<ttFont>
    <TTGlyph name="A" xMin="-29" yMin="-1" xMax="746" yMax="721">
      <contour>
        <pt x="737" y="10" on="1"/>
        <pt x="746" y="10" on="1"/>
        <pt x="746" y="0" on="1"/>
        <pt x="427" y="0" on="1"/>
        <pt x="427" y="10" on="1"/>
        <pt x="436" y="10" on="1"/>
        <pt x="458" y="10" on="0"/>
        <pt x="479" y="37" on="0"/>
        <pt x="479" y="61" on="0"/>
        <pt x="474" y="73" on="1"/>
        <pt x="425" y="196" on="1"/>
        <pt x="191" y="196" on="1"/>
        <pt x="139" y="73" on="1"/>
        <pt x="134" y="60" on="0"/>
        <pt x="134" y="37" on="0"/>
        <pt x="156" y="10" on="0"/>
        <pt x="178" y="10" on="1"/>
        <pt x="186" y="10" on="1"/>
        <pt x="186" y="0" on="1"/>
        <pt x="-28" y="0" on="1"/>
        <pt x="-28" y="10" on="1"/>
        <pt x="-19" y="10" on="1"/>
        <pt x="4" y="10" on="0"/>
        <pt x="50" y="38" on="0"/>
        <pt x="65" y="66" on="1"/>
        <pt x="296" y="589" on="1"/>
        <pt x="343" y="688" on="0"/>
        <pt x="346" y="720" on="1"/>
        <pt x="355" y="720" on="1"/>
        <pt x="652" y="68" on="1"/>
        <pt x="667" y="39" on="0"/>
        <pt x="713" y="10" on="0"/>
      </contour>
      <contour>
        <pt x="208" y="238" on="1"/>
        <pt x="408" y="238" on="1"/>
        <pt x="311" y="484" on="1"/>
      </contour>
    </TTGlyph>
    <TTGlyph name="AE" xMin="-25" yMin="-1" xMax="945" yMax="719">
      <contour>
        <pt x="416" y="10" on="1"/>
        <pt x="436" y="10" on="0"/>
        <pt x="465" y="38" on="0"/>
        <pt x="466" y="58" on="1"/>
        <pt x="466" y="318" on="1"/>
        <pt x="306" y="318" on="1"/>
        <pt x="156" y="71" on="1"/>
        <pt x="148" y="56" on="0"/>
        <pt x="148" y="35" on="0"/>
        <pt x="154" y="27" on="1"/>
        <pt x="166" y="10" on="0"/>
        <pt x="188" y="10" on="1"/>
        <pt x="189" y="10" on="0"/>
        <pt x="189" y="10" on="1"/>
        <pt x="199" y="10" on="1"/>
        <pt x="199" y="0" on="1"/>
        <pt x="-24" y="0" on="1"/>
        <pt x="-24" y="10" on="1"/>
        <pt x="-16" y="10" on="1"/>
        <pt x="31" y="10" on="0"/>
        <pt x="72" y="70" on="1"/>
        <pt x="457" y="647" on="1"/>
        <pt x="463" y="657" on="0"/>
        <pt x="463" y="672" on="0"/>
        <pt x="460" y="677" on="1"/>
        <pt x="453" y="690" on="0"/>
        <pt x="435" y="690" on="1"/>
        <pt x="431" y="690" on="1"/>
        <pt x="431" y="700" on="1"/>
        <pt x="766" y="700" on="1"/>
        <pt x="797" y="700" on="0"/>
        <pt x="871" y="712" on="0"/>
        <pt x="885" y="718" on="1"/>
        <pt x="885" y="549" on="1"/>
        <pt x="875" y="549" on="1"/>
        <pt x="875" y="559" on="1"/>
        <pt x="875" y="603" on="0"/>
        <pt x="824" y="656" on="0"/>
        <pt x="780" y="657" on="1"/>
        <pt x="616" y="657" on="1"/>
        <pt x="616" y="361" on="1"/>
        <pt x="744" y="361" on="1"/>
        <pt x="780" y="362" on="0"/>
        <pt x="827" y="410" on="0"/>
        <pt x="827" y="446" on="1"/>
        <pt x="827" y="455" on="1"/>
        <pt x="837" y="455" on="1"/>
        <pt x="837" y="224" on="1"/>
        <pt x="827" y="224" on="1"/>
        <pt x="827" y="233" on="1"/>
        <pt x="827" y="282" on="0"/>
        <pt x="787" y="306" on="1"/>
        <pt x="769" y="317" on="0"/>
        <pt x="746" y="318" on="1"/>
        <pt x="616" y="318" on="1"/>
        <pt x="616" y="43" on="1"/>
        <pt x="749" y="43" on="1"/>
        <pt x="839" y="43" on="0"/>
        <pt x="894" y="114" on="1"/>
        <pt x="920" y="148" on="0"/>
        <pt x="935" y="195" on="1"/>
        <pt x="945" y="195" on="1"/>
        <pt x="900" y="0" on="1"/>
        <pt x="406" y="0" on="1"/>
        <pt x="407" y="10" on="1"/>
      </contour>
      <contour>
        <pt x="466" y="360" on="1"/>
        <pt x="466" y="581" on="1"/>
        <pt x="332" y="360" on="1"/>
      </contour>
    </TTGlyph>
    <TTGlyph name="Aacute" xMin="-29" yMin="0" xMax="746" yMax="934">
      <contour>
        <pt x="342" y="762" on="1"/>
        <pt x="335" y="769" on="1"/>
        <pt x="378" y="843" on="0"/>
        <pt x="478" y="933" on="1"/>
        <pt x="527" y="908" on="0"/>
        <pt x="546" y="852" on="1"/>
        <pt x="443" y="787" on="0"/>
      </contour>
      <contour>
        <pt x="737" y="10" on="1"/>
        <pt x="746" y="10" on="1"/>
        <pt x="746" y="0" on="1"/>
        <pt x="427" y="0" on="1"/>
        <pt x="427" y="10" on="1"/>
        <pt x="436" y="10" on="1"/>
        <pt x="458" y="10" on="0"/>
        <pt x="479" y="37" on="0"/>
        <pt x="479" y="61" on="0"/>
        <pt x="474" y="73" on="1"/>
        <pt x="425" y="196" on="1"/>
        <pt x="191" y="196" on="1"/>
        <pt x="139" y="73" on="1"/>
        <pt x="134" y="60" on="0"/>
        <pt x="134" y="37" on="0"/>
        <pt x="156" y="10" on="0"/>
        <pt x="178" y="10" on="1"/>
        <pt x="186" y="10" on="1"/>
        <pt x="186" y="0" on="1"/>
        <pt x="-28" y="0" on="1"/>
        <pt x="-28" y="10" on="1"/>
        <pt x="-19" y="10" on="1"/>
        <pt x="4" y="10" on="0"/>
        <pt x="50" y="38" on="0"/>
        <pt x="65" y="66" on="1"/>
        <pt x="296" y="589" on="1"/>
        <pt x="343" y="688" on="0"/>
        <pt x="346" y="720" on="1"/>
        <pt x="355" y="720" on="1"/>
        <pt x="652" y="68" on="1"/>
        <pt x="667" y="39" on="0"/>
        <pt x="713" y="10" on="0"/>
      </contour>
      <contour>
        <pt x="208" y="238" on="1"/>
        <pt x="408" y="238" on="1"/>
        <pt x="311" y="484" on="1"/>
      </contour>
    </TTGlyph>
    <TTGlyph name="Abreve" xMin="-29" yMin="-1" xMax="746" yMax="905">
      <contour>
        <pt x="479" y="884" on="1"/>
        <pt x="479" y="841" on="0"/>
        <pt x="409" y="764" on="0"/>
        <pt x="294" y="764" on="0"/>
        <pt x="225" y="841" on="0"/>
        <pt x="225" y="884" on="1"/>
        <pt x="225" y="894" on="0"/>
        <pt x="227" y="904" on="1"/>
        <pt x="238" y="904" on="1"/>
        <pt x="249" y="879" on="0"/>
        <pt x="312" y="844" on="0"/>
        <pt x="391" y="844" on="0"/>
        <pt x="455" y="879" on="0"/>
        <pt x="466" y="904" on="1"/>
        <pt x="477" y="904" on="1"/>
        <pt x="479" y="894" on="0"/>
      </contour>
      <contour>
        <pt x="713" y="10" on="0"/>
        <pt x="737" y="10" on="1"/>
        <pt x="746" y="10" on="1"/>
        <pt x="746" y="0" on="1"/>
        <pt x="427" y="0" on="1"/>
        <pt x="427" y="10" on="1"/>
        <pt x="436" y="10" on="1"/>
        <pt x="458" y="10" on="0"/>
        <pt x="479" y="37" on="0"/>
        <pt x="479" y="61" on="0"/>
        <pt x="474" y="73" on="1"/>
        <pt x="425" y="196" on="1"/>
        <pt x="191" y="196" on="1"/>
        <pt x="139" y="73" on="1"/>
        <pt x="134" y="60" on="0"/>
        <pt x="134" y="44" on="0"/>
        <pt x="141" y="25" on="0"/>
        <pt x="164" y="10" on="0"/>
        <pt x="178" y="10" on="1"/>
        <pt x="186" y="10" on="1"/>
        <pt x="186" y="0" on="1"/>
        <pt x="-28" y="0" on="1"/>
        <pt x="-28" y="10" on="1"/>
        <pt x="-19" y="10" on="1"/>
        <pt x="4" y="10" on="0"/>
        <pt x="50" y="38" on="0"/>
        <pt x="65" y="66" on="1"/>
        <pt x="296" y="589" on="1"/>
        <pt x="343" y="688" on="0"/>
        <pt x="346" y="720" on="1"/>
        <pt x="355" y="720" on="1"/>
        <pt x="652" y="68" on="1"/>
        <pt x="667" y="39" on="0"/>
      </contour>
      <contour>
        <pt x="208" y="238" on="1"/>
        <pt x="408" y="238" on="1"/>
        <pt x="311" y="484" on="1"/>
      </contour>
    </TTGlyph>
    <TTGlyph name="Acircumflex" xMin="-28" yMin="-1" xMax="746" yMax="916">
      <contour>
        <pt x="345" y="915" on="1"/>
        <pt x="357" y="915" on="1"/>
        <pt x="510" y="762" on="1"/>
        <pt x="503" y="754" on="1"/>
        <pt x="351" y="819" on="1"/>
        <pt x="208" y="754" on="1"/>
        <pt x="201" y="762" on="1"/>
      </contour>
      <contour>
        <pt x="737" y="10" on="1"/>
        <pt x="746" y="10" on="1"/>
        <pt x="746" y="0" on="1"/>
        <pt x="427" y="0" on="1"/>
        <pt x="427" y="10" on="1"/>
        <pt x="436" y="10" on="1"/>
        <pt x="458" y="10" on="0"/>
        <pt x="479" y="37" on="0"/>
        <pt x="479" y="61" on="0"/>
        <pt x="474" y="73" on="1"/>
        <pt x="425" y="196" on="1"/>
        <pt x="191" y="196" on="1"/>
        <pt x="139" y="73" on="1"/>
        <pt x="134" y="60" on="0"/>
        <pt x="134" y="44" on="0"/>
        <pt x="141" y="25" on="0"/>
        <pt x="164" y="10" on="0"/>
        <pt x="178" y="10" on="1"/>
        <pt x="186" y="10" on="1"/>
        <pt x="186" y="0" on="1"/>
        <pt x="-28" y="0" on="1"/>
        <pt x="-28" y="10" on="1"/>
        <pt x="-19" y="10" on="1"/>
        <pt x="4" y="10" on="0"/>
        <pt x="50" y="38" on="0"/>
        <pt x="65" y="66" on="1"/>
        <pt x="296" y="589" on="1"/>
        <pt x="343" y="688" on="0"/>
        <pt x="346" y="720" on="1"/>
        <pt x="355" y="720" on="1"/>
        <pt x="652" y="68" on="1"/>
        <pt x="667" y="39" on="0"/>
        <pt x="713" y="10" on="0"/>
      </contour>
      <contour>
        <pt x="208" y="238" on="1"/>
        <pt x="408" y="238" on="1"/>
        <pt x="311" y="484" on="1"/>
      </contour>
    </TTGlyph>
    <TTGlyph name="Adieresis" xMin="-29" yMin="-1" xMax="746" yMax="880">
      <contour>
        <pt x="258" y="759" on="0"/>
        <pt x="208" y="759" on="0"/>
        <pt x="173" y="794" on="0"/>
        <pt x="173" y="844" on="0"/>
        <pt x="208" y="879" on="0"/>
        <pt x="258" y="879" on="0"/>
        <pt x="293" y="844" on="0"/>
        <pt x="293" y="794" on="0"/>
      </contour>
      <contour>
        <pt x="491" y="759" on="0"/>
        <pt x="442" y="759" on="0"/>
        <pt x="406" y="794" on="0"/>
        <pt x="406" y="844" on="0"/>
        <pt x="442" y="879" on="0"/>
        <pt x="491" y="879" on="0"/>
        <pt x="527" y="844" on="0"/>
        <pt x="527" y="794" on="0"/>
      </contour>
      <contour>
        <pt x="737" y="10" on="1"/>
        <pt x="746" y="10" on="1"/>
        <pt x="746" y="0" on="1"/>
        <pt x="427" y="0" on="1"/>
        <pt x="427" y="10" on="1"/>
        <pt x="436" y="10" on="1"/>
        <pt x="458" y="10" on="0"/>
        <pt x="479" y="37" on="0"/>
        <pt x="479" y="61" on="0"/>
        <pt x="474" y="73" on="1"/>
        <pt x="425" y="196" on="1"/>
        <pt x="191" y="196" on="1"/>
        <pt x="139" y="73" on="1"/>
        <pt x="134" y="60" on="0"/>
        <pt x="134" y="37" on="0"/>
        <pt x="155" y="10" on="0"/>
        <pt x="178" y="10" on="1"/>
        <pt x="186" y="10" on="1"/>
        <pt x="186" y="0" on="1"/>
        <pt x="-28" y="0" on="1"/>
        <pt x="-28" y="10" on="1"/>
        <pt x="-19" y="10" on="1"/>
        <pt x="4" y="10" on="0"/>
        <pt x="50" y="38" on="0"/>
        <pt x="65" y="66" on="1"/>
        <pt x="296" y="589" on="1"/>
        <pt x="343" y="688" on="0"/>
        <pt x="346" y="720" on="1"/>
        <pt x="355" y="720" on="1"/>
        <pt x="652" y="68" on="1"/>
        <pt x="667" y="39" on="0"/>
        <pt x="713" y="10" on="0"/>
      </contour>
      <contour>
        <pt x="208" y="238" on="1"/>
        <pt x="408" y="238" on="1"/>
        <pt x="311" y="484" on="1"/>
      </contour>
    </TTGlyph>
    <TTGlyph name="Agrave" xMin="-29" yMin="-1" xMax="746" yMax="936">
      <contour>
        <pt x="371" y="771" on="1"/>
        <pt x="364" y="764" on="1"/>
        <pt x="264" y="788" on="0"/>
        <pt x="159" y="854" on="1"/>
        <pt x="179" y="911" on="0"/>
        <pt x="227" y="935" on="1"/>
        <pt x="329" y="844" on="0"/>
      </contour>
      <contour>
        <pt x="737" y="10" on="1"/>
        <pt x="746" y="10" on="1"/>
        <pt x="746" y="0" on="1"/>
        <pt x="427" y="0" on="1"/>
        <pt x="427" y="10" on="1"/>
        <pt x="436" y="10" on="1"/>
        <pt x="458" y="10" on="0"/>
        <pt x="479" y="37" on="0"/>
        <pt x="479" y="61" on="0"/>
        <pt x="474" y="73" on="1"/>
        <pt x="425" y="196" on="1"/>
        <pt x="191" y="196" on="1"/>
        <pt x="139" y="73" on="1"/>
        <pt x="134" y="60" on="0"/>
        <pt x="134" y="44" on="0"/>
        <pt x="141" y="25" on="0"/>
        <pt x="164" y="10" on="0"/>
        <pt x="178" y="10" on="1"/>
        <pt x="186" y="10" on="1"/>
        <pt x="186" y="0" on="1"/>
        <pt x="-28" y="0" on="1"/>
        <pt x="-28" y="10" on="1"/>
        <pt x="-19" y="10" on="1"/>
        <pt x="4" y="10" on="0"/>
        <pt x="50" y="38" on="0"/>
        <pt x="65" y="66" on="1"/>
        <pt x="296" y="589" on="1"/>
        <pt x="343" y="688" on="0"/>
        <pt x="346" y="720" on="1"/>
        <pt x="355" y="720" on="1"/>
        <pt x="652" y="68" on="1"/>
        <pt x="667" y="39" on="0"/>
        <pt x="713" y="10" on="0"/>
      </contour>
      <contour>
        <pt x="208" y="238" on="1"/>
        <pt x="408" y="238" on="1"/>
        <pt x="311" y="484" on="1"/>
      </contour>
    </TTGlyph>
    <TTGlyph name="Amacron" xMin="-29" yMin="-1" xMax="746" yMax="861">
      <contour>
        <pt x="218" y="795" on="1"/>
        <pt x="218" y="861" on="1"/>
        <pt x="492" y="861" on="1"/>
        <pt x="492" y="795" on="1"/>
      </contour>
      <contour>
        <pt x="737" y="10" on="1"/>
        <pt x="746" y="10" on="1"/>
        <pt x="746" y="0" on="1"/>
        <pt x="427" y="0" on="1"/>
        <pt x="427" y="10" on="1"/>
        <pt x="436" y="10" on="1"/>
        <pt x="458" y="10" on="0"/>
        <pt x="479" y="37" on="0"/>
        <pt x="479" y="61" on="0"/>
        <pt x="474" y="73" on="1"/>
        <pt x="425" y="196" on="1"/>
        <pt x="191" y="196" on="1"/>
        <pt x="139" y="73" on="1"/>
        <pt x="134" y="60" on="0"/>
        <pt x="134" y="37" on="0"/>
        <pt x="155" y="10" on="0"/>
        <pt x="178" y="10" on="1"/>
        <pt x="186" y="10" on="1"/>
        <pt x="186" y="0" on="1"/>
        <pt x="-28" y="0" on="1"/>
        <pt x="-28" y="10" on="1"/>
        <pt x="-19" y="10" on="1"/>
        <pt x="4" y="10" on="0"/>
        <pt x="50" y="38" on="0"/>
        <pt x="65" y="66" on="1"/>
        <pt x="296" y="589" on="1"/>
        <pt x="343" y="688" on="0"/>
        <pt x="346" y="720" on="1"/>
        <pt x="355" y="720" on="1"/>
        <pt x="652" y="68" on="1"/>
        <pt x="667" y="39" on="0"/>
        <pt x="713" y="10" on="0"/>
      </contour>
      <contour>
        <pt x="208" y="238" on="1"/>
        <pt x="408" y="238" on="1"/>
        <pt x="311" y="484" on="1"/>
      </contour>
    </TTGlyph>
    <TTGlyph name="Aogonek" xMin="-29" yMin="-194" xMax="756" yMax="714">
      <contour>
        <pt x="545" y="0" on="1"/>
        <pt x="481" y="-13" on="0"/>
        <pt x="481" y="-72" on="1"/>
        <pt x="481" y="-99" on="0"/>
        <pt x="520" y="-136" on="0"/>
        <pt x="574" y="-136" on="0"/>
        <pt x="598" y="-114" on="1"/>
        <pt x="604" y="-120" on="1"/>
        <pt x="599" y="-153" on="0"/>
        <pt x="577" y="-173" on="1"/>
        <pt x="552" y="-194" on="0"/>
        <pt x="523" y="-194" on="1"/>
        <pt x="452" y="-194" on="0"/>
        <pt x="424" y="-148" on="1"/>
        <pt x="410" y="-125" on="0"/>
        <pt x="410" y="-97" on="1"/>
        <pt x="410" y="-60" on="0"/>
        <pt x="444" y="-21" on="0"/>
        <pt x="467" y="-7" on="1"/>
        <pt x="494" y="10" on="0"/>
        <pt x="494" y="46" on="0"/>
        <pt x="485" y="69" on="1"/>
        <pt x="433" y="196" on="1"/>
        <pt x="193" y="196" on="1"/>
        <pt x="139" y="73" on="1"/>
        <pt x="134" y="60" on="0"/>
        <pt x="134" y="37" on="0"/>
        <pt x="155" y="10" on="0"/>
        <pt x="178" y="10" on="1"/>
        <pt x="186" y="10" on="1"/>
        <pt x="186" y="0" on="1"/>
        <pt x="-28" y="0" on="1"/>
        <pt x="-28" y="10" on="1"/>
        <pt x="-19" y="10" on="1"/>
        <pt x="6" y="10" on="0"/>
        <pt x="54" y="42" on="0"/>
        <pt x="68" y="73" on="1"/>
        <pt x="302" y="583" on="1"/>
        <pt x="348" y="682" on="0"/>
        <pt x="351" y="714" on="1"/>
        <pt x="360" y="714" on="1"/>
        <pt x="661" y="71" on="1"/>
        <pt x="686" y="18" on="0"/>
        <pt x="747" y="11" on="1"/>
        <pt x="755" y="10" on="1"/>
        <pt x="755" y="0" on="1"/>
        <pt x="744" y="0" on="0"/>
        <pt x="653" y="6" on="0"/>
        <pt x="633" y="6" on="1"/>
        <pt x="573" y="6" on="0"/>
      </contour>
      <contour>
        <pt x="211" y="238" on="1"/>
        <pt x="415" y="238" on="1"/>
        <pt x="315" y="481" on="1"/>
      </contour>
    </TTGlyph>
    <TTGlyph name="Aring" xMin="-28" yMin="0" xMax="746" yMax="841">
      <contour>
        <pt x="737" y="10" on="1"/>
        <pt x="746" y="10" on="1"/>
        <pt x="746" y="0" on="1"/>
        <pt x="427" y="0" on="1"/>
        <pt x="427" y="10" on="1"/>
        <pt x="436" y="10" on="1"/>
        <pt x="458" y="10" on="0"/>
        <pt x="479" y="37" on="0"/>
        <pt x="479" y="60" on="0"/>
        <pt x="474" y="73" on="1"/>
        <pt x="424" y="196" on="1"/>
        <pt x="191" y="196" on="1"/>
        <pt x="139" y="73" on="1"/>
        <pt x="134" y="60" on="0"/>
        <pt x="134" y="37" on="0"/>
        <pt x="156" y="10" on="0"/>
        <pt x="178" y="10" on="1"/>
        <pt x="186" y="10" on="1"/>
        <pt x="186" y="0" on="1"/>
        <pt x="-28" y="0" on="1"/>
        <pt x="-28" y="10" on="1"/>
        <pt x="-19" y="10" on="1"/>
        <pt x="5" y="10" on="0"/>
        <pt x="53" y="41" on="0"/>
        <pt x="67" y="71" on="1"/>
        <pt x="296" y="583" on="1"/>
        <pt x="331" y="656" on="0"/>
        <pt x="342" y="697" on="1"/>
        <pt x="306" y="699" on="0"/>
        <pt x="257" y="739" on="0"/>
        <pt x="257" y="800" on="0"/>
        <pt x="311" y="841" on="0"/>
        <pt x="391" y="841" on="0"/>
        <pt x="444" y="802" on="0"/>
        <pt x="444" y="740" on="0"/>
        <pt x="397" y="700" on="0"/>
        <pt x="362" y="697" on="1"/>
        <pt x="649" y="73" on="1"/>
        <pt x="665" y="41" on="0"/>
        <pt x="712" y="10" on="0"/>
      </contour>
      <contour>
        <pt x="332" y="821" on="0"/>
        <pt x="307" y="792" on="0"/>
        <pt x="307" y="746" on="0"/>
        <pt x="332" y="716" on="0"/>
        <pt x="369" y="716" on="0"/>
        <pt x="394" y="746" on="0"/>
        <pt x="394" y="784" on="0"/>
        <pt x="389" y="796" on="1"/>
        <pt x="377" y="821" on="0"/>
      </contour>
      <contour>
        <pt x="209" y="238" on="1"/>
        <pt x="407" y="238" on="1"/>
        <pt x="310" y="479" on="1"/>
      </contour>
    </TTGlyph>
    <TTGlyph name="Atilde" xMin="-28" yMin="-1" xMax="746" yMax="899">
      <contour>
        <pt x="520" y="889" on="1"/>
        <pt x="531" y="889" on="1"/>
        <pt x="534" y="878" on="0"/>
        <pt x="534" y="868" on="1"/>
        <pt x="534" y="837" on="0"/>
        <pt x="514" y="806" on="1"/>
        <pt x="487" y="764" on="0"/>
        <pt x="435" y="764" on="1"/>
        <pt x="405" y="764" on="0"/>
        <pt x="313" y="811" on="0"/>
        <pt x="285" y="815" on="0"/>
        <pt x="260" y="815" on="0"/>
        <pt x="220" y="787" on="0"/>
        <pt x="212" y="767" on="1"/>
        <pt x="201" y="767" on="1"/>
        <pt x="200" y="775" on="0"/>
        <pt x="200" y="782" on="1"/>
        <pt x="200" y="820" on="0"/>
        <pt x="247" y="899" on="0"/>
        <pt x="297" y="899" on="1"/>
        <pt x="325" y="899" on="0"/>
        <pt x="422" y="849" on="0"/>
        <pt x="460" y="849" on="1"/>
        <pt x="473" y="849" on="0"/>
        <pt x="513" y="873" on="0"/>
      </contour>
      <contour>
        <pt x="737" y="10" on="1"/>
        <pt x="746" y="10" on="1"/>
        <pt x="746" y="0" on="1"/>
        <pt x="427" y="0" on="1"/>
        <pt x="427" y="10" on="1"/>
        <pt x="436" y="10" on="1"/>
        <pt x="458" y="10" on="0"/>
        <pt x="479" y="37" on="0"/>
        <pt x="479" y="61" on="0"/>
        <pt x="474" y="73" on="1"/>
        <pt x="425" y="196" on="1"/>
        <pt x="191" y="196" on="1"/>
        <pt x="139" y="73" on="1"/>
        <pt x="134" y="60" on="0"/>
        <pt x="134" y="37" on="0"/>
        <pt x="156" y="10" on="0"/>
        <pt x="178" y="10" on="1"/>
        <pt x="186" y="10" on="1"/>
        <pt x="186" y="0" on="1"/>
        <pt x="-28" y="0" on="1"/>
        <pt x="-28" y="10" on="1"/>
        <pt x="-19" y="10" on="1"/>
        <pt x="4" y="10" on="0"/>
        <pt x="50" y="38" on="0"/>
        <pt x="65" y="66" on="1"/>
        <pt x="296" y="589" on="1"/>
        <pt x="343" y="688" on="0"/>
        <pt x="346" y="720" on="1"/>
        <pt x="355" y="720" on="1"/>
        <pt x="652" y="68" on="1"/>
        <pt x="667" y="39" on="0"/>
        <pt x="713" y="10" on="0"/>
      </contour>
      <contour>
        <pt x="208" y="238" on="1"/>
        <pt x="408" y="238" on="1"/>
        <pt x="311" y="484" on="1"/>
      </contour>
    </TTGlyph>
    <TTGlyph name="B" xMin="41" yMin="0" xMax="640" yMax="701">
      <contour>
        <pt x="358" y="0" on="1"/>
        <pt x="42" y="0" on="1"/>
        <pt x="42" y="10" on="1"/>
        <pt x="55" y="10" on="1"/>
        <pt x="91" y="10" on="0"/>
        <pt x="110" y="41" on="1"/>
        <pt x="118" y="55" on="0"/>
        <pt x="119" y="72" on="1"/>
        <pt x="119" y="628" on="1"/>
        <pt x="118" y="654" on="0"/>
        <pt x="81" y="690" on="0"/>
        <pt x="55" y="690" on="1"/>
        <pt x="42" y="690" on="1"/>
        <pt x="42" y="700" on="1"/>
        <pt x="332" y="700" on="1"/>
        <pt x="448" y="700" on="0"/>
        <pt x="585" y="616" on="0"/>
        <pt x="586" y="529" on="1"/>
        <pt x="585" y="485" on="0"/>
        <pt x="567" y="452" on="1"/>
        <pt x="534" y="390" on="0"/>
        <pt x="463" y="381" on="1"/>
        <pt x="540" y="374" on="0"/>
        <pt x="640" y="273" on="0"/>
        <pt x="640" y="195" on="1"/>
        <pt x="640" y="101" on="0"/>
        <pt x="489" y="0" on="0"/>
      </contour>
      <contour>
        <pt x="426" y="516" on="1"/>
        <pt x="425" y="657" on="0"/>
        <pt x="298" y="657" on="1"/>
        <pt x="269" y="657" on="1"/>
        <pt x="269" y="46" on="1"/>
        <pt x="315" y="46" on="1"/>
        <pt x="316" y="46" on="0"/>
        <pt x="317" y="46" on="1"/>
        <pt x="386" y="46" on="0"/>
        <pt x="468" y="126" on="0"/>
        <pt x="468" y="290" on="0"/>
        <pt x="376" y="370" on="0"/>
        <pt x="303" y="370" on="1"/>
        <pt x="303" y="370" on="0"/>
        <pt x="303" y="370" on="1"/>
        <pt x="303" y="379" on="1"/>
        <pt x="303" y="379" on="0"/>
        <pt x="303" y="379" on="1"/>
        <pt x="355" y="379" on="0"/>
        <pt x="425" y="446" on="0"/>
      </contour>
    </TTGlyph>
    <TTGlyph name="C" xMin="44" yMin="-14" xMax="732" yMax="714">
      <contour>
        <pt x="265" y="-13" on="0"/>
        <pt x="45" y="181" on="0"/>
        <pt x="45" y="519" on="0"/>
        <pt x="263" y="714" on="0"/>
        <pt x="453" y="714" on="1"/>
        <pt x="598" y="714" on="0"/>
        <pt x="702" y="660" on="1"/>
        <pt x="704" y="488" on="1"/>
        <pt x="696" y="488" on="1"/>
        <pt x="645" y="672" on="0"/>
        <pt x="463" y="672" on="1"/>
        <pt x="345" y="672" on="0"/>
        <pt x="208" y="501" on="0"/>
        <pt x="208" y="205" on="0"/>
        <pt x="339" y="31" on="0"/>
        <pt x="451" y="28" on="1"/>
        <pt x="567" y="28" on="0"/>
        <pt x="628" y="86" on="1"/>
        <pt x="690" y="146" on="0"/>
        <pt x="714" y="292" on="1"/>
        <pt x="722" y="292" on="1"/>
        <pt x="732" y="120" on="1"/>
        <pt x="651" y="-14" on="0"/>
      </contour>
    </TTGlyph>
    <TTGlyph name="Cacute" xMin="44" yMin="-14" xMax="732" yMax="934">
      <contour>
        <pt x="418" y="762" on="1"/>
        <pt x="411" y="769" on="1"/>
        <pt x="454" y="843" on="0"/>
        <pt x="555" y="933" on="1"/>
        <pt x="604" y="908" on="0"/>
        <pt x="623" y="852" on="1"/>
        <pt x="520" y="787" on="0"/>
      </contour>
      <contour>
        <pt x="265" y="-13" on="0"/>
        <pt x="45" y="181" on="0"/>
        <pt x="45" y="519" on="0"/>
        <pt x="263" y="714" on="0"/>
        <pt x="453" y="714" on="1"/>
        <pt x="598" y="714" on="0"/>
        <pt x="702" y="660" on="1"/>
        <pt x="704" y="488" on="1"/>
        <pt x="696" y="488" on="1"/>
        <pt x="645" y="672" on="0"/>
        <pt x="463" y="672" on="1"/>
        <pt x="345" y="672" on="0"/>
        <pt x="208" y="501" on="0"/>
        <pt x="208" y="205" on="0"/>
        <pt x="339" y="31" on="0"/>
        <pt x="451" y="28" on="1"/>
        <pt x="568" y="28" on="0"/>
        <pt x="691" y="147" on="0"/>
        <pt x="714" y="292" on="1"/>
        <pt x="722" y="292" on="1"/>
        <pt x="732" y="120" on="1"/>
        <pt x="651" y="-14" on="0"/>
      </contour>
    </TTGlyph>
    <TTGlyph name="Ccaron" xMin="44" yMin="-14" xMax="732" yMax="926">
      <contour>
        <pt x="435" y="764" on="1"/>
        <pt x="423" y="764" on="1"/>
        <pt x="276" y="917" on="1"/>
        <pt x="283" y="925" on="1"/>
        <pt x="430" y="860" on="1"/>
        <pt x="566" y="925" on="1"/>
        <pt x="573" y="917" on="1"/>
      </contour>
      <contour>
        <pt x="265" y="-13" on="0"/>
        <pt x="45" y="181" on="0"/>
        <pt x="45" y="519" on="0"/>
        <pt x="263" y="714" on="0"/>
        <pt x="453" y="714" on="1"/>
        <pt x="598" y="714" on="0"/>
        <pt x="702" y="660" on="1"/>
        <pt x="704" y="488" on="1"/>
        <pt x="696" y="488" on="1"/>
        <pt x="645" y="672" on="0"/>
        <pt x="463" y="672" on="1"/>
        <pt x="345" y="672" on="0"/>
        <pt x="208" y="501" on="0"/>
        <pt x="208" y="205" on="0"/>
        <pt x="339" y="31" on="0"/>
        <pt x="451" y="28" on="1"/>
        <pt x="567" y="28" on="0"/>
        <pt x="628" y="86" on="1"/>
        <pt x="690" y="146" on="0"/>
        <pt x="714" y="292" on="1"/>
        <pt x="722" y="292" on="1"/>
        <pt x="732" y="120" on="1"/>
        <pt x="651" y="-14" on="0"/>
      </contour>
    </TTGlyph>
    <TTGlyph name="Ccedilla" xMin="44" yMin="-208" xMax="732" yMax="714">
      <contour>
        <pt x="411" y="-57" on="1"/>
        <pt x="426" y="-52" on="0"/>
        <pt x="445" y="-52" on="1"/>
        <pt x="493" y="-52" on="0"/>
        <pt x="513" y="-78" on="1"/>
        <pt x="525" y="-92" on="0"/>
        <pt x="525" y="-114" on="1"/>
        <pt x="525" y="-167" on="0"/>
        <pt x="468" y="-194" on="1"/>
        <pt x="437" y="-208" on="0"/>
        <pt x="381" y="-208" on="0"/>
        <pt x="355" y="-199" on="1"/>
        <pt x="356" y="-189" on="1"/>
        <pt x="392" y="-189" on="0"/>
        <pt x="454" y="-152" on="0"/>
        <pt x="454" y="-114" on="1"/>
        <pt x="454" y="-96" on="0"/>
        <pt x="424" y="-74" on="0"/>
        <pt x="382" y="-74" on="0"/>
        <pt x="362" y="-81" on="1"/>
        <pt x="357" y="-71" on="1"/>
        <pt x="403" y="-12" on="1"/>
        <pt x="237" y="1" on="0"/>
        <pt x="45" y="193" on="0"/>
        <pt x="45" y="519" on="0"/>
        <pt x="263" y="714" on="0"/>
        <pt x="453" y="714" on="1"/>
        <pt x="598" y="714" on="0"/>
        <pt x="702" y="660" on="1"/>
        <pt x="704" y="488" on="1"/>
        <pt x="696" y="488" on="1"/>
        <pt x="645" y="672" on="0"/>
        <pt x="463" y="672" on="1"/>
        <pt x="345" y="672" on="0"/>
        <pt x="208" y="501" on="0"/>
        <pt x="208" y="205" on="0"/>
        <pt x="339" y="31" on="0"/>
        <pt x="451" y="28" on="1"/>
        <pt x="567" y="28" on="0"/>
        <pt x="628" y="86" on="1"/>
        <pt x="690" y="146" on="0"/>
        <pt x="714" y="292" on="1"/>
        <pt x="722" y="292" on="1"/>
        <pt x="732" y="120" on="1"/>
        <pt x="651" y="-14" on="0"/>
        <pt x="449" y="-14" on="1"/>
      </contour>
    </TTGlyph>
    <TTGlyph name="Cdotaccent" xMin="44" yMin="-14" xMax="732" yMax="888">
      <contour>
        <pt x="454" y="764" on="0"/>
        <pt x="403" y="764" on="0"/>
        <pt x="366" y="800" on="0"/>
        <pt x="366" y="851" on="0"/>
        <pt x="403" y="888" on="0"/>
        <pt x="454" y="888" on="0"/>
        <pt x="490" y="851" on="0"/>
        <pt x="490" y="800" on="0"/>
      </contour>
      <contour>
        <pt x="265" y="-13" on="0"/>
        <pt x="45" y="181" on="0"/>
        <pt x="45" y="519" on="0"/>
        <pt x="263" y="714" on="0"/>
        <pt x="453" y="714" on="1"/>
        <pt x="598" y="714" on="0"/>
        <pt x="702" y="660" on="1"/>
        <pt x="704" y="488" on="1"/>
        <pt x="696" y="488" on="1"/>
        <pt x="645" y="672" on="0"/>
        <pt x="463" y="672" on="1"/>
        <pt x="345" y="672" on="0"/>
        <pt x="208" y="501" on="0"/>
        <pt x="208" y="205" on="0"/>
        <pt x="339" y="31" on="0"/>
        <pt x="451" y="28" on="1"/>
        <pt x="567" y="28" on="0"/>
        <pt x="628" y="86" on="1"/>
        <pt x="690" y="146" on="0"/>
        <pt x="714" y="292" on="1"/>
        <pt x="722" y="292" on="1"/>
        <pt x="732" y="120" on="1"/>
        <pt x="651" y="-14" on="0"/>
      </contour>
    </TTGlyph>
    <TTGlyph name="D" xMin="41" yMin="-1" xMax="789" yMax="700">
      <contour>
        <pt x="582" y="700" on="0"/>
        <pt x="788" y="512" on="0"/>
        <pt x="788" y="188" on="0"/>
        <pt x="582" y="0" on="0"/>
        <pt x="405" y="0" on="1"/>
        <pt x="42" y="0" on="1"/>
        <pt x="42" y="10" on="1"/>
        <pt x="55" y="10" on="1"/>
        <pt x="81" y="10" on="0"/>
        <pt x="118" y="47" on="0"/>
        <pt x="119" y="73" on="1"/>
        <pt x="119" y="633" on="1"/>
        <pt x="119" y="657" on="0"/>
        <pt x="80" y="690" on="0"/>
        <pt x="55" y="690" on="1"/>
        <pt x="42" y="690" on="1"/>
        <pt x="42" y="700" on="1"/>
        <pt x="405" y="700" on="1"/>
      </contour>
      <contour>
        <pt x="392" y="43" on="1"/>
        <pt x="464" y="43" on="0"/>
        <pt x="569" y="117" on="0"/>
        <pt x="625" y="256" on="0"/>
        <pt x="625" y="420" on="0"/>
        <pt x="592" y="535" on="0"/>
        <pt x="562" y="575" on="1"/>
        <pt x="500" y="658" on="0"/>
        <pt x="392" y="658" on="1"/>
        <pt x="269" y="658" on="1"/>
        <pt x="269" y="43" on="1"/>
      </contour>
    </TTGlyph>
    <TTGlyph name="Dcaron" xMin="41" yMin="-1" xMax="789" yMax="926">
      <contour>
        <pt x="419" y="764" on="1"/>
        <pt x="407" y="764" on="1"/>
        <pt x="260" y="917" on="1"/>
        <pt x="267" y="925" on="1"/>
        <pt x="414" y="860" on="1"/>
        <pt x="550" y="925" on="1"/>
        <pt x="557" y="917" on="1"/>
      </contour>
      <contour>
        <pt x="582" y="700" on="0"/>
        <pt x="788" y="512" on="0"/>
        <pt x="788" y="188" on="0"/>
        <pt x="582" y="0" on="0"/>
        <pt x="405" y="0" on="1"/>
        <pt x="42" y="0" on="1"/>
        <pt x="42" y="10" on="1"/>
        <pt x="55" y="10" on="1"/>
        <pt x="81" y="10" on="0"/>
        <pt x="118" y="47" on="0"/>
        <pt x="119" y="73" on="1"/>
        <pt x="119" y="633" on="1"/>
        <pt x="119" y="657" on="0"/>
        <pt x="80" y="690" on="0"/>
        <pt x="55" y="690" on="1"/>
        <pt x="42" y="690" on="1"/>
        <pt x="42" y="700" on="1"/>
        <pt x="405" y="700" on="1"/>
      </contour>
      <contour>
        <pt x="392" y="43" on="1"/>
        <pt x="464" y="43" on="0"/>
        <pt x="569" y="117" on="0"/>
        <pt x="625" y="256" on="0"/>
        <pt x="625" y="406" on="0"/>
        <pt x="604" y="503" on="0"/>
        <pt x="564" y="578" on="0"/>
        <pt x="536" y="604" on="1"/>
        <pt x="479" y="658" on="0"/>
        <pt x="392" y="658" on="1"/>
        <pt x="269" y="658" on="1"/>
        <pt x="269" y="43" on="1"/>
      </contour>
    </TTGlyph>
    <TTGlyph name="Dcroat" xMin="41" yMin="-1" xMax="789" yMax="861">
      <contour>
        <pt x="278" y="795" on="1"/>
        <pt x="278" y="861" on="1"/>
        <pt x="553" y="861" on="1"/>
        <pt x="553" y="795" on="1"/>
      </contour>
      <contour>
        <pt x="582" y="700" on="0"/>
        <pt x="788" y="512" on="0"/>
        <pt x="788" y="188" on="0"/>
        <pt x="582" y="0" on="0"/>
        <pt x="405" y="0" on="1"/>
        <pt x="42" y="0" on="1"/>
        <pt x="42" y="10" on="1"/>
        <pt x="55" y="10" on="1"/>
        <pt x="81" y="10" on="0"/>
        <pt x="118" y="47" on="0"/>
        <pt x="119" y="73" on="1"/>
        <pt x="119" y="633" on="1"/>
        <pt x="119" y="657" on="0"/>
        <pt x="80" y="690" on="0"/>
        <pt x="55" y="690" on="1"/>
        <pt x="42" y="690" on="1"/>
        <pt x="42" y="700" on="1"/>
        <pt x="405" y="700" on="1"/>
      </contour>
      <contour>
        <pt x="392" y="43" on="1"/>
        <pt x="464" y="43" on="0"/>
        <pt x="569" y="117" on="0"/>
        <pt x="625" y="256" on="0"/>
        <pt x="625" y="350" on="1"/>
        <pt x="625" y="492" on="0"/>
        <pt x="500" y="658" on="0"/>
        <pt x="392" y="658" on="1"/>
        <pt x="269" y="658" on="1"/>
        <pt x="269" y="43" on="1"/>
      </contour>
    </TTGlyph>
    <TTGlyph name="Delta" xMin="5" yMin="0" xMax="647" yMax="714">
      <contour>
        <pt x="647" y="0" on="1"/>
        <pt x="5" y="0" on="1"/>
        <pt x="5" y="10" on="1"/>
        <pt x="321" y="714" on="1"/>
        <pt x="331" y="714" on="1"/>
        <pt x="647" y="10" on="1"/>
      </contour>
      <contour>
        <pt x="522" y="42" on="1"/>
        <pt x="297" y="563" on="1"/>
        <pt x="67" y="42" on="1"/>
      </contour>
    </TTGlyph>
    <TTGlyph name="E" xMin="41" yMin="-1" xMax="606" yMax="719">
      <contour>
        <pt x="55" y="10" on="1"/>
        <pt x="81" y="10" on="0"/>
        <pt x="118" y="47" on="0"/>
        <pt x="119" y="73" on="1"/>
        <pt x="119" y="630" on="1"/>
        <pt x="117" y="656" on="0"/>
        <pt x="104" y="668" on="1"/>
        <pt x="80" y="690" on="0"/>
        <pt x="55" y="690" on="1"/>
        <pt x="42" y="690" on="1"/>
        <pt x="42" y="700" on="1"/>
        <pt x="425" y="700" on="1"/>
        <pt x="474" y="700" on="0"/>
        <pt x="538" y="715" on="0"/>
        <pt x="545" y="718" on="1"/>
        <pt x="545" y="543" on="1"/>
        <pt x="535" y="544" on="1"/>
        <pt x="535" y="555" on="1"/>
        <pt x="535" y="617" on="0"/>
        <pt x="489" y="643" on="1"/>
        <pt x="467" y="656" on="0"/>
        <pt x="437" y="657" on="1"/>
        <pt x="269" y="657" on="1"/>
        <pt x="269" y="366" on="1"/>
        <pt x="401" y="366" on="1"/>
        <pt x="438" y="367" on="0"/>
        <pt x="486" y="416" on="0"/>
        <pt x="486" y="452" on="1"/>
        <pt x="486" y="461" on="1"/>
        <pt x="496" y="461" on="1"/>
        <pt x="496" y="230" on="1"/>
        <pt x="486" y="230" on="1"/>
        <pt x="486" y="238" on="1"/>
        <pt x="486" y="275" on="0"/>
        <pt x="439" y="323" on="0"/>
        <pt x="403" y="324" on="1"/>
        <pt x="269" y="324" on="1"/>
        <pt x="269" y="43" on="1"/>
        <pt x="400" y="43" on="1"/>
        <pt x="473" y="43" on="0"/>
        <pt x="572" y="127" on="0"/>
        <pt x="596" y="204" on="1"/>
        <pt x="606" y="204" on="1"/>
        <pt x="560" y="0" on="1"/>
        <pt x="42" y="0" on="1"/>
        <pt x="42" y="10" on="1"/>
      </contour>
    </TTGlyph>
    <TTGlyph name="Eacute" xMin="41" yMin="-1" xMax="606" yMax="934">
      <contour>
        <pt x="313" y="762" on="1"/>
        <pt x="306" y="769" on="1"/>
        <pt x="349" y="843" on="0"/>
        <pt x="450" y="933" on="1"/>
        <pt x="498" y="908" on="0"/>
        <pt x="517" y="852" on="1"/>
        <pt x="415" y="787" on="0"/>
      </contour>
      <contour>
        <pt x="55" y="10" on="1"/>
        <pt x="81" y="10" on="0"/>
        <pt x="118" y="47" on="0"/>
        <pt x="119" y="73" on="1"/>
        <pt x="119" y="630" on="1"/>
        <pt x="117" y="656" on="0"/>
        <pt x="104" y="668" on="1"/>
        <pt x="80" y="690" on="0"/>
        <pt x="55" y="690" on="1"/>
        <pt x="42" y="690" on="1"/>
        <pt x="42" y="700" on="1"/>
        <pt x="425" y="700" on="1"/>
        <pt x="456" y="700" on="0"/>
        <pt x="530" y="712" on="0"/>
        <pt x="545" y="718" on="1"/>
        <pt x="545" y="543" on="1"/>
        <pt x="535" y="544" on="1"/>
        <pt x="535" y="555" on="1"/>
        <pt x="535" y="617" on="0"/>
        <pt x="489" y="643" on="1"/>
        <pt x="467" y="656" on="0"/>
        <pt x="437" y="657" on="1"/>
        <pt x="269" y="657" on="1"/>
        <pt x="269" y="366" on="1"/>
        <pt x="401" y="366" on="1"/>
        <pt x="438" y="367" on="0"/>
        <pt x="486" y="416" on="0"/>
        <pt x="486" y="452" on="1"/>
        <pt x="486" y="461" on="1"/>
        <pt x="496" y="461" on="1"/>
        <pt x="496" y="230" on="1"/>
        <pt x="486" y="230" on="1"/>
        <pt x="486" y="238" on="1"/>
        <pt x="486" y="275" on="0"/>
        <pt x="439" y="323" on="0"/>
        <pt x="403" y="324" on="1"/>
        <pt x="269" y="324" on="1"/>
        <pt x="269" y="43" on="1"/>
        <pt x="400" y="43" on="1"/>
        <pt x="473" y="43" on="0"/>
        <pt x="572" y="127" on="0"/>
        <pt x="596" y="204" on="1"/>
        <pt x="606" y="204" on="1"/>
        <pt x="560" y="0" on="1"/>
        <pt x="42" y="0" on="1"/>
        <pt x="42" y="10" on="1"/>
      </contour>
    </TTGlyph>
    <TTGlyph name="Ecaron" xMin="41" yMin="-1" xMax="606" yMax="926">
      <contour>
        <pt x="329" y="764" on="1"/>
        <pt x="318" y="764" on="1"/>
        <pt x="170" y="917" on="1"/>
        <pt x="177" y="925" on="1"/>
        <pt x="324" y="860" on="1"/>
        <pt x="461" y="925" on="1"/>
        <pt x="468" y="917" on="1"/>
      </contour>
      <contour>
        <pt x="55" y="10" on="1"/>
        <pt x="81" y="10" on="0"/>
        <pt x="118" y="47" on="0"/>
        <pt x="119" y="73" on="1"/>
        <pt x="119" y="630" on="1"/>
        <pt x="117" y="656" on="0"/>
        <pt x="104" y="668" on="1"/>
        <pt x="80" y="690" on="0"/>
        <pt x="55" y="690" on="1"/>
        <pt x="42" y="690" on="1"/>
        <pt x="42" y="700" on="1"/>
        <pt x="425" y="700" on="1"/>
        <pt x="469" y="700" on="0"/>
        <pt x="535" y="714" on="0"/>
        <pt x="545" y="718" on="1"/>
        <pt x="545" y="543" on="1"/>
        <pt x="535" y="544" on="1"/>
        <pt x="535" y="555" on="1"/>
        <pt x="535" y="617" on="0"/>
        <pt x="489" y="643" on="1"/>
        <pt x="467" y="656" on="0"/>
        <pt x="437" y="657" on="1"/>
        <pt x="269" y="657" on="1"/>
        <pt x="269" y="366" on="1"/>
        <pt x="401" y="366" on="1"/>
        <pt x="438" y="367" on="0"/>
        <pt x="486" y="416" on="0"/>
        <pt x="486" y="452" on="1"/>
        <pt x="486" y="461" on="1"/>
        <pt x="496" y="461" on="1"/>
        <pt x="496" y="230" on="1"/>
        <pt x="486" y="230" on="1"/>
        <pt x="486" y="238" on="1"/>
        <pt x="486" y="288" on="0"/>
        <pt x="446" y="312" on="1"/>
        <pt x="426" y="323" on="0"/>
        <pt x="403" y="324" on="1"/>
        <pt x="269" y="324" on="1"/>
        <pt x="269" y="43" on="1"/>
        <pt x="400" y="43" on="1"/>
        <pt x="473" y="43" on="0"/>
        <pt x="572" y="127" on="0"/>
        <pt x="596" y="204" on="1"/>
        <pt x="606" y="204" on="1"/>
        <pt x="560" y="0" on="1"/>
        <pt x="42" y="0" on="1"/>
        <pt x="42" y="10" on="1"/>
      </contour>
    </TTGlyph>
    <TTGlyph name="Ecircumflex" xMin="41" yMin="-1" xMax="606" yMax="916">
      <contour>
        <pt x="317" y="915" on="1"/>
        <pt x="328" y="915" on="1"/>
        <pt x="481" y="762" on="1"/>
        <pt x="474" y="754" on="1"/>
        <pt x="322" y="819" on="1"/>
        <pt x="179" y="754" on="1"/>
        <pt x="172" y="762" on="1"/>
      </contour>
      <contour>
        <pt x="55" y="10" on="1"/>
        <pt x="81" y="10" on="0"/>
        <pt x="118" y="47" on="0"/>
        <pt x="119" y="73" on="1"/>
        <pt x="119" y="630" on="1"/>
        <pt x="117" y="655" on="0"/>
        <pt x="104" y="668" on="1"/>
        <pt x="80" y="690" on="0"/>
        <pt x="55" y="690" on="1"/>
        <pt x="42" y="690" on="1"/>
        <pt x="42" y="700" on="1"/>
        <pt x="425" y="700" on="1"/>
        <pt x="456" y="700" on="0"/>
        <pt x="530" y="712" on="0"/>
        <pt x="545" y="718" on="1"/>
        <pt x="545" y="543" on="1"/>
        <pt x="535" y="544" on="1"/>
        <pt x="535" y="555" on="1"/>
        <pt x="535" y="600" on="0"/>
        <pt x="482" y="655" on="0"/>
        <pt x="437" y="657" on="1"/>
        <pt x="269" y="657" on="1"/>
        <pt x="269" y="366" on="1"/>
        <pt x="401" y="366" on="1"/>
        <pt x="438" y="367" on="0"/>
        <pt x="486" y="416" on="0"/>
        <pt x="486" y="452" on="1"/>
        <pt x="486" y="461" on="1"/>
        <pt x="496" y="461" on="1"/>
        <pt x="496" y="230" on="1"/>
        <pt x="486" y="230" on="1"/>
        <pt x="486" y="238" on="1"/>
        <pt x="486" y="275" on="0"/>
        <pt x="439" y="323" on="0"/>
        <pt x="403" y="324" on="1"/>
        <pt x="269" y="324" on="1"/>
        <pt x="269" y="43" on="1"/>
        <pt x="400" y="43" on="1"/>
        <pt x="473" y="43" on="0"/>
        <pt x="572" y="127" on="0"/>
        <pt x="596" y="204" on="1"/>
        <pt x="606" y="204" on="1"/>
        <pt x="560" y="0" on="1"/>
        <pt x="42" y="0" on="1"/>
        <pt x="42" y="10" on="1"/>
      </contour>
    </TTGlyph>
    <TTGlyph name="Edieresis" xMin="41" yMin="-1" xMax="606" yMax="880">
      <contour>
        <pt x="229" y="759" on="0"/>
        <pt x="179" y="759" on="0"/>
        <pt x="144" y="794" on="0"/>
        <pt x="144" y="844" on="0"/>
        <pt x="179" y="879" on="0"/>
        <pt x="229" y="879" on="0"/>
        <pt x="264" y="844" on="0"/>
        <pt x="264" y="794" on="0"/>
      </contour>
      <contour>
        <pt x="462" y="759" on="0"/>
        <pt x="413" y="759" on="0"/>
        <pt x="378" y="794" on="0"/>
        <pt x="378" y="844" on="0"/>
        <pt x="413" y="879" on="0"/>
        <pt x="462" y="879" on="0"/>
        <pt x="498" y="844" on="0"/>
        <pt x="498" y="794" on="0"/>
      </contour>
      <contour>
        <pt x="55" y="10" on="1"/>
        <pt x="81" y="10" on="0"/>
        <pt x="118" y="47" on="0"/>
        <pt x="119" y="73" on="1"/>
        <pt x="119" y="630" on="1"/>
        <pt x="117" y="656" on="0"/>
        <pt x="104" y="668" on="1"/>
        <pt x="80" y="690" on="0"/>
        <pt x="55" y="690" on="1"/>
        <pt x="42" y="690" on="1"/>
        <pt x="42" y="700" on="1"/>
        <pt x="425" y="700" on="1"/>
        <pt x="474" y="700" on="0"/>
        <pt x="538" y="715" on="0"/>
        <pt x="545" y="718" on="1"/>
        <pt x="545" y="543" on="1"/>
        <pt x="535" y="544" on="1"/>
        <pt x="535" y="555" on="1"/>
        <pt x="535" y="617" on="0"/>
        <pt x="489" y="643" on="1"/>
        <pt x="467" y="656" on="0"/>
        <pt x="437" y="657" on="1"/>
        <pt x="269" y="657" on="1"/>
        <pt x="269" y="366" on="1"/>
        <pt x="401" y="366" on="1"/>
        <pt x="438" y="367" on="0"/>
        <pt x="486" y="416" on="0"/>
        <pt x="486" y="452" on="1"/>
        <pt x="486" y="461" on="1"/>
        <pt x="496" y="461" on="1"/>
        <pt x="496" y="230" on="1"/>
        <pt x="486" y="230" on="1"/>
        <pt x="486" y="238" on="1"/>
        <pt x="486" y="288" on="0"/>
        <pt x="446" y="312" on="1"/>
        <pt x="426" y="323" on="0"/>
        <pt x="403" y="324" on="1"/>
        <pt x="269" y="324" on="1"/>
        <pt x="269" y="43" on="1"/>
        <pt x="400" y="43" on="1"/>
        <pt x="473" y="43" on="0"/>
        <pt x="572" y="127" on="0"/>
        <pt x="596" y="204" on="1"/>
        <pt x="606" y="204" on="1"/>
        <pt x="560" y="0" on="1"/>
        <pt x="42" y="0" on="1"/>
        <pt x="42" y="10" on="1"/>
      </contour>
    </TTGlyph>
    <TTGlyph name="Edotaccent" xMin="41" yMin="-1" xMax="606" yMax="888">
      <contour>
        <pt x="348" y="764" on="0"/>
        <pt x="297" y="764" on="0"/>
        <pt x="261" y="800" on="0"/>
        <pt x="261" y="851" on="0"/>
        <pt x="297" y="888" on="0"/>
        <pt x="348" y="888" on="0"/>
        <pt x="384" y="851" on="0"/>
        <pt x="384" y="800" on="0"/>
      </contour>
      <contour>
        <pt x="55" y="10" on="1"/>
        <pt x="81" y="10" on="0"/>
        <pt x="118" y="47" on="0"/>
        <pt x="119" y="73" on="1"/>
        <pt x="119" y="630" on="1"/>
        <pt x="117" y="655" on="0"/>
        <pt x="104" y="668" on="1"/>
        <pt x="80" y="690" on="0"/>
        <pt x="55" y="690" on="1"/>
        <pt x="42" y="690" on="1"/>
        <pt x="42" y="700" on="1"/>
        <pt x="425" y="700" on="1"/>
        <pt x="474" y="700" on="0"/>
        <pt x="538" y="715" on="0"/>
        <pt x="545" y="718" on="1"/>
        <pt x="545" y="543" on="1"/>
        <pt x="535" y="544" on="1"/>
        <pt x="535" y="555" on="1"/>
        <pt x="535" y="600" on="0"/>
        <pt x="482" y="655" on="0"/>
        <pt x="437" y="657" on="1"/>
        <pt x="269" y="657" on="1"/>
        <pt x="269" y="366" on="1"/>
        <pt x="401" y="366" on="1"/>
        <pt x="438" y="367" on="0"/>
        <pt x="486" y="416" on="0"/>
        <pt x="486" y="452" on="1"/>
        <pt x="486" y="461" on="1"/>
        <pt x="496" y="461" on="1"/>
        <pt x="496" y="230" on="1"/>
        <pt x="486" y="230" on="1"/>
        <pt x="486" y="238" on="1"/>
        <pt x="486" y="275" on="0"/>
        <pt x="439" y="323" on="0"/>
        <pt x="403" y="324" on="1"/>
        <pt x="269" y="324" on="1"/>
        <pt x="269" y="43" on="1"/>
        <pt x="400" y="43" on="1"/>
        <pt x="473" y="43" on="0"/>
        <pt x="572" y="127" on="0"/>
        <pt x="596" y="204" on="1"/>
        <pt x="606" y="204" on="1"/>
        <pt x="560" y="0" on="1"/>
        <pt x="42" y="0" on="1"/>
        <pt x="42" y="10" on="1"/>
      </contour>
    </TTGlyph>
    <TTGlyph name="Egrave" xMin="41" yMin="-1" xMax="606" yMax="936">
      <contour>
        <pt x="342" y="771" on="1"/>
        <pt x="335" y="764" on="1"/>
        <pt x="235" y="788" on="0"/>
        <pt x="131" y="854" on="1"/>
        <pt x="150" y="911" on="0"/>
        <pt x="198" y="935" on="1"/>
        <pt x="300" y="844" on="0"/>
      </contour>
      <contour>
        <pt x="55" y="10" on="1"/>
        <pt x="81" y="10" on="0"/>
        <pt x="118" y="47" on="0"/>
        <pt x="119" y="73" on="1"/>
        <pt x="119" y="630" on="1"/>
        <pt x="117" y="655" on="0"/>
        <pt x="104" y="668" on="1"/>
        <pt x="80" y="690" on="0"/>
        <pt x="55" y="690" on="1"/>
        <pt x="42" y="690" on="1"/>
        <pt x="42" y="700" on="1"/>
        <pt x="425" y="700" on="1"/>
        <pt x="456" y="700" on="0"/>
        <pt x="530" y="712" on="0"/>
        <pt x="545" y="718" on="1"/>
        <pt x="545" y="543" on="1"/>
        <pt x="535" y="543" on="1"/>
        <pt x="535" y="555" on="1"/>
        <pt x="535" y="617" on="0"/>
        <pt x="489" y="643" on="1"/>
        <pt x="467" y="656" on="0"/>
        <pt x="437" y="657" on="1"/>
        <pt x="269" y="657" on="1"/>
        <pt x="269" y="366" on="1"/>
        <pt x="401" y="366" on="1"/>
        <pt x="438" y="367" on="0"/>
        <pt x="486" y="416" on="0"/>
        <pt x="486" y="452" on="1"/>
        <pt x="486" y="461" on="1"/>
        <pt x="496" y="461" on="1"/>
        <pt x="496" y="230" on="1"/>
        <pt x="486" y="230" on="1"/>
        <pt x="486" y="238" on="1"/>
        <pt x="486" y="288" on="0"/>
        <pt x="446" y="312" on="1"/>
        <pt x="426" y="323" on="0"/>
        <pt x="403" y="324" on="1"/>
        <pt x="269" y="324" on="1"/>
        <pt x="269" y="43" on="1"/>
        <pt x="400" y="43" on="1"/>
        <pt x="473" y="43" on="0"/>
        <pt x="572" y="127" on="0"/>
        <pt x="596" y="204" on="1"/>
        <pt x="606" y="204" on="1"/>
        <pt x="560" y="0" on="1"/>
        <pt x="42" y="0" on="1"/>
        <pt x="42" y="10" on="1"/>
      </contour>
    </TTGlyph>
    <TTGlyph name="Emacron" xMin="41" yMin="-1" xMax="606" yMax="861">
      <contour>
        <pt x="189" y="795" on="1"/>
        <pt x="189" y="861" on="1"/>
        <pt x="463" y="861" on="1"/>
        <pt x="463" y="795" on="1"/>
      </contour>
      <contour>
        <pt x="55" y="10" on="1"/>
        <pt x="81" y="10" on="0"/>
        <pt x="118" y="47" on="0"/>
        <pt x="119" y="73" on="1"/>
        <pt x="119" y="630" on="1"/>
        <pt x="117" y="656" on="0"/>
        <pt x="104" y="668" on="1"/>
        <pt x="80" y="690" on="0"/>
        <pt x="55" y="690" on="1"/>
        <pt x="42" y="690" on="1"/>
        <pt x="42" y="700" on="1"/>
        <pt x="425" y="700" on="1"/>
        <pt x="456" y="700" on="0"/>
        <pt x="530" y="712" on="0"/>
        <pt x="545" y="718" on="1"/>
        <pt x="545" y="543" on="1"/>
        <pt x="535" y="544" on="1"/>
        <pt x="535" y="555" on="1"/>
        <pt x="535" y="617" on="0"/>
        <pt x="489" y="643" on="1"/>
        <pt x="467" y="656" on="0"/>
        <pt x="437" y="657" on="1"/>
        <pt x="269" y="657" on="1"/>
        <pt x="269" y="366" on="1"/>
        <pt x="401" y="366" on="1"/>
        <pt x="438" y="367" on="0"/>
        <pt x="486" y="416" on="0"/>
        <pt x="486" y="452" on="1"/>
        <pt x="486" y="461" on="1"/>
        <pt x="496" y="461" on="1"/>
        <pt x="496" y="230" on="1"/>
        <pt x="486" y="230" on="1"/>
        <pt x="486" y="238" on="1"/>
        <pt x="486" y="275" on="0"/>
        <pt x="439" y="323" on="0"/>
        <pt x="403" y="324" on="1"/>
        <pt x="269" y="324" on="1"/>
        <pt x="269" y="43" on="1"/>
        <pt x="400" y="43" on="1"/>
        <pt x="473" y="43" on="0"/>
        <pt x="572" y="127" on="0"/>
        <pt x="596" y="204" on="1"/>
        <pt x="606" y="204" on="1"/>
        <pt x="560" y="0" on="1"/>
        <pt x="42" y="0" on="1"/>
        <pt x="42" y="10" on="1"/>
      </contour>
    </TTGlyph>
    <TTGlyph name="Eng" xMin="29" yMin="-203" xMax="828" yMax="715">
      <contour>
        <pt x="809" y="689" on="1"/>
        <pt x="778" y="689" on="0"/>
        <pt x="761" y="663" on="1"/>
        <pt x="754" y="650" on="0"/>
        <pt x="754" y="636" on="1"/>
        <pt x="754" y="-15" on="1"/>
        <pt x="754" y="-79" on="0"/>
        <pt x="691" y="-170" on="0"/>
        <pt x="606" y="-202" on="0"/>
        <pt x="550" y="-202" on="0"/>
        <pt x="532" y="-200" on="1"/>
        <pt x="527" y="-192" on="1"/>
        <pt x="559" y="-169" on="0"/>
        <pt x="576" y="-150" on="1"/>
        <pt x="615" y="-104" on="0"/>
        <pt x="615" y="14" on="1"/>
        <pt x="615" y="118" on="1"/>
        <pt x="242" y="473" on="1"/>
        <pt x="242" y="68" on="1"/>
        <pt x="243" y="45" on="0"/>
        <pt x="277" y="11" on="0"/>
        <pt x="301" y="11" on="1"/>
        <pt x="318" y="11" on="1"/>
        <pt x="318" y="0" on="1"/>
        <pt x="30" y="0" on="1"/>
        <pt x="30" y="11" on="1"/>
        <pt x="47" y="11" on="1"/>
        <pt x="71" y="11" on="0"/>
        <pt x="105" y="44" on="0"/>
        <pt x="106" y="68" on="1"/>
        <pt x="106" y="590" on="1"/>
        <pt x="106" y="656" on="0"/>
        <pt x="97" y="700" on="1"/>
        <pt x="94" y="715" on="1"/>
        <pt x="104" y="715" on="1"/>
        <pt x="615" y="229" on="1"/>
        <pt x="615" y="632" on="1"/>
        <pt x="614" y="655" on="0"/>
        <pt x="580" y="689" on="0"/>
        <pt x="556" y="689" on="1"/>
        <pt x="539" y="689" on="1"/>
        <pt x="539" y="700" on="1"/>
        <pt x="827" y="700" on="1"/>
        <pt x="827" y="689" on="1"/>
      </contour>
    </TTGlyph>
    <TTGlyph name="Eogonek" xMin="41" yMin="-201" xMax="613" yMax="719">
      <contour>
        <pt x="534" y="-200" on="1"/>
        <pt x="531" y="-200" on="0"/>
        <pt x="502" y="-200" on="0"/>
        <pt x="451" y="-181" on="0"/>
        <pt x="420" y="-130" on="0"/>
        <pt x="420" y="-101" on="1"/>
        <pt x="420" y="-56" on="0"/>
        <pt x="473" y="-7" on="0"/>
        <pt x="508" y="0" on="1"/>
        <pt x="42" y="0" on="1"/>
        <pt x="42" y="10" on="1"/>
        <pt x="55" y="10" on="1"/>
        <pt x="81" y="10" on="0"/>
        <pt x="118" y="47" on="0"/>
        <pt x="119" y="73" on="1"/>
        <pt x="119" y="630" on="1"/>
        <pt x="117" y="655" on="0"/>
        <pt x="104" y="668" on="1"/>
        <pt x="80" y="690" on="0"/>
        <pt x="55" y="690" on="1"/>
        <pt x="42" y="690" on="1"/>
        <pt x="42" y="700" on="1"/>
        <pt x="425" y="700" on="1"/>
        <pt x="469" y="700" on="0"/>
        <pt x="535" y="714" on="0"/>
        <pt x="545" y="718" on="1"/>
        <pt x="545" y="543" on="1"/>
        <pt x="535" y="544" on="1"/>
        <pt x="535" y="555" on="1"/>
        <pt x="535" y="600" on="0"/>
        <pt x="482" y="655" on="0"/>
        <pt x="437" y="657" on="1"/>
        <pt x="269" y="657" on="1"/>
        <pt x="269" y="366" on="1"/>
        <pt x="401" y="366" on="1"/>
        <pt x="438" y="367" on="0"/>
        <pt x="486" y="416" on="0"/>
        <pt x="486" y="452" on="1"/>
        <pt x="486" y="461" on="1"/>
        <pt x="496" y="461" on="1"/>
        <pt x="496" y="230" on="1"/>
        <pt x="486" y="230" on="1"/>
        <pt x="486" y="238" on="1"/>
        <pt x="486" y="275" on="0"/>
        <pt x="439" y="323" on="0"/>
        <pt x="403" y="324" on="1"/>
        <pt x="269" y="324" on="1"/>
        <pt x="269" y="43" on="1"/>
        <pt x="400" y="43" on="1"/>
        <pt x="473" y="43" on="0"/>
        <pt x="572" y="127" on="0"/>
        <pt x="596" y="204" on="1"/>
        <pt x="606" y="204" on="1"/>
        <pt x="559" y="0" on="1"/>
        <pt x="490" y="-16" on="0"/>
        <pt x="490" y="-72" on="1"/>
        <pt x="490" y="-122" on="0"/>
        <pt x="531" y="-138" on="1"/>
        <pt x="543" y="-143" on="0"/>
        <pt x="554" y="-143" on="1"/>
        <pt x="580" y="-143" on="0"/>
        <pt x="606" y="-120" on="1"/>
        <pt x="612" y="-126" on="1"/>
        <pt x="607" y="-159" on="0"/>
        <pt x="562" y="-199" on="0"/>
      </contour>
    </TTGlyph>
    <TTGlyph name="Eth" xMin="41" yMin="-1" xMax="788" yMax="700">
      <contour>
        <pt x="584" y="700" on="0"/>
        <pt x="788" y="512" on="0"/>
        <pt x="788" y="188" on="0"/>
        <pt x="584" y="0" on="0"/>
        <pt x="407" y="0" on="1"/>
        <pt x="44" y="0" on="1"/>
        <pt x="44" y="10" on="1"/>
        <pt x="57" y="10" on="1"/>
        <pt x="83" y="10" on="0"/>
        <pt x="120" y="47" on="0"/>
        <pt x="121" y="73" on="1"/>
        <pt x="121" y="329" on="1"/>
        <pt x="42" y="329" on="1"/>
        <pt x="42" y="371" on="1"/>
        <pt x="121" y="371" on="1"/>
        <pt x="121" y="633" on="1"/>
        <pt x="121" y="657" on="0"/>
        <pt x="82" y="690" on="0"/>
        <pt x="57" y="690" on="1"/>
        <pt x="44" y="690" on="1"/>
        <pt x="44" y="700" on="1"/>
        <pt x="407" y="700" on="1"/>
      </contour>
      <contour>
        <pt x="271" y="329" on="1"/>
        <pt x="271" y="42" on="1"/>
        <pt x="394" y="42" on="1"/>
        <pt x="502" y="42" on="0"/>
        <pt x="630" y="208" on="0"/>
        <pt x="630" y="492" on="0"/>
        <pt x="502" y="658" on="0"/>
        <pt x="394" y="658" on="1"/>
        <pt x="271" y="658" on="1"/>
        <pt x="271" y="371" on="1"/>
        <pt x="400" y="371" on="1"/>
        <pt x="400" y="329" on="1"/>
      </contour>
    </TTGlyph>
    <TTGlyph name="Euro" xMin="-28" yMin="-14" xMax="679" yMax="714">
      <contour>
        <pt x="453" y="-13" on="1"/>
        <pt x="313" y="-13" on="0"/>
        <pt x="114" y="145" on="0"/>
        <pt x="88" y="271" on="1"/>
        <pt x="-28" y="271" on="1"/>
        <pt x="-13" y="314" on="1"/>
        <pt x="82" y="314" on="1"/>
        <pt x="78" y="349" on="0"/>
        <pt x="81" y="384" on="1"/>
        <pt x="-28" y="384" on="1"/>
        <pt x="-13" y="426" on="1"/>
        <pt x="87" y="426" on="1"/>
        <pt x="112" y="554" on="0"/>
        <pt x="313" y="714" on="0"/>
        <pt x="455" y="714" on="1"/>
        <pt x="527" y="714" on="0"/>
        <pt x="655" y="684" on="0"/>
        <pt x="678" y="655" on="1"/>
        <pt x="634" y="523" on="1"/>
        <pt x="624" y="523" on="1"/>
        <pt x="625" y="533" on="0"/>
        <pt x="625" y="565" on="0"/>
        <pt x="610" y="611" on="0"/>
        <pt x="578" y="643" on="0"/>
        <pt x="555" y="654" on="1"/>
        <pt x="516" y="672" on="0"/>
        <pt x="465" y="672" on="1"/>
        <pt x="376" y="672" on="0"/>
        <pt x="260" y="540" on="0"/>
        <pt x="245" y="426" on="1"/>
        <pt x="601" y="426" on="1"/>
        <pt x="586" y="384" on="1"/>
        <pt x="240" y="384" on="1"/>
        <pt x="240" y="351" on="1"/>
        <pt x="240" y="332" on="0"/>
        <pt x="241" y="314" on="1"/>
        <pt x="562" y="314" on="1"/>
        <pt x="548" y="271" on="1"/>
        <pt x="245" y="271" on="1"/>
        <pt x="261" y="158" on="0"/>
        <pt x="380" y="29" on="0"/>
        <pt x="555" y="29" on="0"/>
        <pt x="649" y="108" on="0"/>
        <pt x="670" y="190" on="1"/>
        <pt x="679" y="190" on="1"/>
        <pt x="679" y="49" on="1"/>
        <pt x="649" y="18" on="0"/>
        <pt x="520" y="-13" on="0"/>
      </contour>
    </TTGlyph>
    <TTGlyph name="F" xMin="41" yMin="-1" xMax="545" yMax="719">
      <contour>
        <pt x="269" y="657" on="1"/>
        <pt x="269" y="366" on="1"/>
        <pt x="401" y="366" on="1"/>
        <pt x="438" y="367" on="0"/>
        <pt x="486" y="415" on="0"/>
        <pt x="486" y="452" on="1"/>
        <pt x="486" y="461" on="1"/>
        <pt x="496" y="461" on="1"/>
        <pt x="496" y="230" on="1"/>
        <pt x="486" y="230" on="1"/>
        <pt x="486" y="238" on="1"/>
        <pt x="486" y="275" on="0"/>
        <pt x="439" y="323" on="0"/>
        <pt x="403" y="324" on="1"/>
        <pt x="269" y="324" on="1"/>
        <pt x="269" y="73" on="1"/>
        <pt x="269" y="47" on="0"/>
        <pt x="307" y="10" on="0"/>
        <pt x="333" y="10" on="1"/>
        <pt x="345" y="10" on="1"/>
        <pt x="346" y="0" on="1"/>
        <pt x="42" y="0" on="1"/>
        <pt x="42" y="10" on="1"/>
        <pt x="55" y="10" on="1"/>
        <pt x="81" y="10" on="0"/>
        <pt x="118" y="47" on="0"/>
        <pt x="119" y="73" on="1"/>
        <pt x="119" y="630" on="1"/>
        <pt x="119" y="665" on="0"/>
        <pt x="86" y="682" on="1"/>
        <pt x="72" y="690" on="0"/>
        <pt x="55" y="690" on="1"/>
        <pt x="42" y="690" on="1"/>
        <pt x="42" y="700" on="1"/>
        <pt x="425" y="700" on="1"/>
        <pt x="456" y="700" on="0"/>
        <pt x="530" y="712" on="0"/>
        <pt x="545" y="718" on="1"/>
        <pt x="545" y="549" on="1"/>
        <pt x="535" y="549" on="1"/>
        <pt x="535" y="559" on="1"/>
        <pt x="535" y="603" on="0"/>
        <pt x="484" y="656" on="0"/>
        <pt x="440" y="657" on="1"/>
      </contour>
    </TTGlyph>
    <TTGlyph name="G" xMin="44" yMin="-15" xMax="820" yMax="714">
      <contour>
        <pt x="423" y="-14" on="1"/>
        <pt x="252" y="-14" on="0"/>
        <pt x="45" y="183" on="0"/>
        <pt x="45" y="518" on="0"/>
        <pt x="252" y="714" on="0"/>
        <pt x="429" y="714" on="1"/>
        <pt x="509" y="714" on="0"/>
        <pt x="659" y="683" on="0"/>
        <pt x="705" y="660" on="1"/>
        <pt x="707" y="488" on="1"/>
        <pt x="698" y="488" on="1"/>
        <pt x="672" y="585" on="0"/>
        <pt x="546" y="672" on="0"/>
        <pt x="459" y="672" on="1"/>
        <pt x="338" y="672" on="0"/>
        <pt x="208" y="499" on="0"/>
        <pt x="208" y="198" on="0"/>
        <pt x="327" y="28" on="0"/>
        <pt x="436" y="28" on="1"/>
        <pt x="515" y="28" on="0"/>
        <pt x="568" y="73" on="1"/>
        <pt x="594" y="96" on="0"/>
        <pt x="606" y="127" on="1"/>
        <pt x="606" y="280" on="1"/>
        <pt x="606" y="302" on="0"/>
        <pt x="579" y="325" on="0"/>
        <pt x="554" y="325" on="1"/>
        <pt x="538" y="325" on="1"/>
        <pt x="538" y="335" on="1"/>
        <pt x="819" y="335" on="1"/>
        <pt x="819" y="325" on="1"/>
        <pt x="804" y="325" on="1"/>
        <pt x="780" y="325" on="0"/>
        <pt x="754" y="302" on="0"/>
        <pt x="754" y="280" on="1"/>
        <pt x="754" y="115" on="1"/>
        <pt x="715" y="64" on="0"/>
        <pt x="535" y="-14" on="0"/>
      </contour>
    </TTGlyph>
    <TTGlyph name="Gbreve" xMin="44" yMin="-15" xMax="820" yMax="905">
      <contour>
        <pt x="550" y="884" on="1"/>
        <pt x="550" y="841" on="0"/>
        <pt x="480" y="764" on="0"/>
        <pt x="366" y="764" on="0"/>
        <pt x="297" y="841" on="0"/>
        <pt x="297" y="884" on="1"/>
        <pt x="297" y="894" on="0"/>
        <pt x="298" y="904" on="1"/>
        <pt x="310" y="904" on="1"/>
        <pt x="320" y="879" on="0"/>
        <pt x="384" y="844" on="0"/>
        <pt x="463" y="844" on="0"/>
        <pt x="527" y="879" on="0"/>
        <pt x="537" y="904" on="1"/>
        <pt x="549" y="904" on="1"/>
        <pt x="550" y="894" on="0"/>
      </contour>
      <contour>
        <pt x="819" y="325" on="1"/>
        <pt x="804" y="325" on="1"/>
        <pt x="780" y="325" on="0"/>
        <pt x="754" y="302" on="0"/>
        <pt x="754" y="280" on="1"/>
        <pt x="754" y="115" on="1"/>
        <pt x="699" y="43" on="0"/>
        <pt x="569" y="6" on="1"/>
        <pt x="499" y="-14" on="0"/>
        <pt x="423" y="-14" on="1"/>
        <pt x="252" y="-14" on="0"/>
        <pt x="45" y="183" on="0"/>
        <pt x="45" y="518" on="0"/>
        <pt x="252" y="714" on="0"/>
        <pt x="429" y="714" on="1"/>
        <pt x="509" y="714" on="0"/>
        <pt x="659" y="683" on="0"/>
        <pt x="705" y="660" on="1"/>
        <pt x="707" y="488" on="1"/>
        <pt x="698" y="488" on="1"/>
        <pt x="672" y="585" on="0"/>
        <pt x="546" y="672" on="0"/>
        <pt x="459" y="672" on="1"/>
        <pt x="338" y="672" on="0"/>
        <pt x="208" y="499" on="0"/>
        <pt x="208" y="198" on="0"/>
        <pt x="327" y="28" on="0"/>
        <pt x="436" y="28" on="1"/>
        <pt x="493" y="28" on="0"/>
        <pt x="588" y="81" on="0"/>
        <pt x="606" y="127" on="1"/>
        <pt x="606" y="280" on="1"/>
        <pt x="606" y="302" on="0"/>
        <pt x="579" y="325" on="0"/>
        <pt x="554" y="325" on="1"/>
        <pt x="538" y="325" on="1"/>
        <pt x="538" y="335" on="1"/>
        <pt x="819" y="335" on="1"/>
      </contour>
    </TTGlyph>
    <TTGlyph name="Gcommaaccent" xMin="44" yMin="-248" xMax="820" yMax="714">
      <contour>
        <pt x="819" y="325" on="1"/>
        <pt x="804" y="325" on="1"/>
        <pt x="780" y="325" on="0"/>
        <pt x="754" y="302" on="0"/>
        <pt x="754" y="280" on="1"/>
        <pt x="754" y="115" on="1"/>
        <pt x="715" y="64" on="0"/>
        <pt x="535" y="-14" on="0"/>
        <pt x="423" y="-14" on="1"/>
        <pt x="252" y="-14" on="0"/>
        <pt x="45" y="183" on="0"/>
        <pt x="45" y="518" on="0"/>
        <pt x="252" y="714" on="0"/>
        <pt x="429" y="714" on="1"/>
        <pt x="509" y="714" on="0"/>
        <pt x="659" y="683" on="0"/>
        <pt x="705" y="660" on="1"/>
        <pt x="707" y="488" on="1"/>
        <pt x="698" y="488" on="1"/>
        <pt x="672" y="585" on="0"/>
        <pt x="546" y="672" on="0"/>
        <pt x="459" y="672" on="1"/>
        <pt x="338" y="672" on="0"/>
        <pt x="208" y="499" on="0"/>
        <pt x="208" y="198" on="0"/>
        <pt x="327" y="28" on="0"/>
        <pt x="436" y="28" on="1"/>
        <pt x="515" y="28" on="0"/>
        <pt x="568" y="73" on="1"/>
        <pt x="594" y="96" on="0"/>
        <pt x="606" y="127" on="1"/>
        <pt x="606" y="280" on="1"/>
        <pt x="606" y="302" on="0"/>
        <pt x="579" y="325" on="0"/>
        <pt x="554" y="325" on="1"/>
        <pt x="538" y="325" on="1"/>
        <pt x="538" y="335" on="1"/>
        <pt x="819" y="335" on="1"/>
      </contour>
      <contour>
        <pt x="383" y="-239" on="1"/>
        <pt x="417" y="-227" on="0"/>
        <pt x="417" y="-194" on="1"/>
        <pt x="417" y="-175" on="0"/>
        <pt x="385" y="-136" on="0"/>
        <pt x="385" y="-92" on="0"/>
        <pt x="411" y="-64" on="0"/>
        <pt x="424" y="-64" on="1"/>
        <pt x="469" y="-64" on="0"/>
        <pt x="484" y="-99" on="1"/>
        <pt x="493" y="-123" on="0"/>
        <pt x="493" y="-141" on="1"/>
        <pt x="493" y="-198" on="0"/>
        <pt x="451" y="-230" on="1"/>
        <pt x="426" y="-248" on="0"/>
        <pt x="398" y="-248" on="1"/>
        <pt x="392" y="-248" on="0"/>
        <pt x="386" y="-247" on="1"/>
      </contour>
    </TTGlyph>
    <TTGlyph name="Gdotaccent" xMin="44" yMin="-15" xMax="820" yMax="888">
      <contour>
        <pt x="448" y="764" on="0"/>
        <pt x="397" y="764" on="0"/>
        <pt x="361" y="800" on="0"/>
        <pt x="361" y="851" on="0"/>
        <pt x="397" y="888" on="0"/>
        <pt x="448" y="888" on="0"/>
        <pt x="485" y="851" on="0"/>
        <pt x="485" y="800" on="0"/>
      </contour>
      <contour>
        <pt x="819" y="325" on="1"/>
        <pt x="804" y="325" on="1"/>
        <pt x="780" y="325" on="0"/>
        <pt x="754" y="302" on="0"/>
        <pt x="754" y="280" on="1"/>
        <pt x="754" y="115" on="1"/>
        <pt x="699" y="43" on="0"/>
        <pt x="569" y="6" on="1"/>
        <pt x="499" y="-14" on="0"/>
        <pt x="423" y="-14" on="1"/>
        <pt x="252" y="-14" on="0"/>
        <pt x="45" y="183" on="0"/>
        <pt x="45" y="518" on="0"/>
        <pt x="252" y="714" on="0"/>
        <pt x="429" y="714" on="1"/>
        <pt x="509" y="714" on="0"/>
        <pt x="659" y="683" on="0"/>
        <pt x="705" y="660" on="1"/>
        <pt x="707" y="488" on="1"/>
        <pt x="698" y="488" on="1"/>
        <pt x="672" y="585" on="0"/>
        <pt x="546" y="672" on="0"/>
        <pt x="459" y="672" on="1"/>
        <pt x="338" y="672" on="0"/>
        <pt x="208" y="499" on="0"/>
        <pt x="208" y="198" on="0"/>
        <pt x="327" y="28" on="0"/>
        <pt x="436" y="28" on="1"/>
        <pt x="515" y="28" on="0"/>
        <pt x="568" y="73" on="1"/>
        <pt x="594" y="96" on="0"/>
        <pt x="606" y="127" on="1"/>
        <pt x="606" y="280" on="1"/>
        <pt x="606" y="302" on="0"/>
        <pt x="579" y="325" on="0"/>
        <pt x="554" y="325" on="1"/>
        <pt x="538" y="325" on="1"/>
        <pt x="538" y="335" on="1"/>
        <pt x="819" y="335" on="1"/>
      </contour>
    </TTGlyph>
    <TTGlyph name="H" xMin="41" yMin="-1" xMax="820" yMax="701">
      <contour>
        <pt x="529" y="10" on="1"/>
        <pt x="555" y="10" on="0"/>
        <pt x="569" y="23" on="1"/>
        <pt x="592" y="46" on="0"/>
        <pt x="593" y="72" on="1"/>
        <pt x="593" y="327" on="1"/>
        <pt x="269" y="327" on="1"/>
        <pt x="269" y="73" on="1"/>
        <pt x="269" y="47" on="0"/>
        <pt x="307" y="10" on="0"/>
        <pt x="333" y="10" on="1"/>
        <pt x="345" y="10" on="1"/>
        <pt x="346" y="0" on="1"/>
        <pt x="42" y="0" on="1"/>
        <pt x="42" y="10" on="1"/>
        <pt x="55" y="10" on="1"/>
        <pt x="81" y="10" on="0"/>
        <pt x="118" y="47" on="0"/>
        <pt x="119" y="73" on="1"/>
        <pt x="119" y="627" on="1"/>
        <pt x="118" y="653" on="0"/>
        <pt x="81" y="690" on="0"/>
        <pt x="55" y="690" on="1"/>
        <pt x="42" y="690" on="1"/>
        <pt x="42" y="700" on="1"/>
        <pt x="346" y="700" on="1"/>
        <pt x="345" y="690" on="1"/>
        <pt x="333" y="690" on="1"/>
        <pt x="307" y="690" on="0"/>
        <pt x="269" y="653" on="0"/>
        <pt x="269" y="627" on="1"/>
        <pt x="269" y="370" on="1"/>
        <pt x="593" y="370" on="1"/>
        <pt x="593" y="627" on="1"/>
        <pt x="592" y="653" on="0"/>
        <pt x="555" y="690" on="0"/>
        <pt x="529" y="690" on="1"/>
        <pt x="516" y="690" on="1"/>
        <pt x="516" y="700" on="1"/>
        <pt x="820" y="700" on="1"/>
        <pt x="820" y="690" on="1"/>
        <pt x="807" y="690" on="1"/>
        <pt x="781" y="690" on="0"/>
        <pt x="743" y="653" on="0"/>
        <pt x="743" y="627" on="1"/>
        <pt x="743" y="73" on="1"/>
        <pt x="743" y="47" on="0"/>
        <pt x="781" y="10" on="0"/>
        <pt x="807" y="10" on="1"/>
        <pt x="820" y="10" on="1"/>
        <pt x="820" y="0" on="1"/>
        <pt x="516" y="0" on="1"/>
        <pt x="516" y="10" on="1"/>
      </contour>
    </TTGlyph>
    <TTGlyph name="Hbar" xMin="34" yMin="-1" xMax="814" yMax="701">
      <contour>
        <pt x="522" y="10" on="1"/>
        <pt x="548" y="10" on="0"/>
        <pt x="585" y="46" on="0"/>
        <pt x="586" y="72" on="1"/>
        <pt x="586" y="327" on="1"/>
        <pt x="262" y="327" on="1"/>
        <pt x="262" y="73" on="1"/>
        <pt x="262" y="47" on="0"/>
        <pt x="300" y="10" on="0"/>
        <pt x="326" y="10" on="1"/>
        <pt x="339" y="10" on="1"/>
        <pt x="339" y="0" on="1"/>
        <pt x="35" y="0" on="1"/>
        <pt x="35" y="10" on="1"/>
        <pt x="48" y="10" on="1"/>
        <pt x="74" y="10" on="0"/>
        <pt x="111" y="47" on="0"/>
        <pt x="112" y="73" on="1"/>
        <pt x="112" y="492" on="1"/>
        <pt x="48" y="492" on="1"/>
        <pt x="48" y="534" on="1"/>
        <pt x="112" y="534" on="1"/>
        <pt x="112" y="628" on="1"/>
        <pt x="111" y="654" on="0"/>
        <pt x="74" y="690" on="0"/>
        <pt x="48" y="690" on="1"/>
        <pt x="35" y="690" on="1"/>
        <pt x="35" y="700" on="1"/>
        <pt x="339" y="700" on="1"/>
        <pt x="339" y="690" on="1"/>
        <pt x="326" y="690" on="1"/>
        <pt x="300" y="690" on="0"/>
        <pt x="263" y="654" on="0"/>
        <pt x="262" y="628" on="1"/>
        <pt x="262" y="534" on="1"/>
        <pt x="586" y="534" on="1"/>
        <pt x="586" y="628" on="1"/>
        <pt x="585" y="654" on="0"/>
        <pt x="548" y="690" on="0"/>
        <pt x="522" y="690" on="1"/>
        <pt x="509" y="690" on="1"/>
        <pt x="509" y="700" on="1"/>
        <pt x="813" y="700" on="1"/>
        <pt x="813" y="690" on="1"/>
        <pt x="800" y="690" on="1"/>
        <pt x="774" y="690" on="0"/>
        <pt x="737" y="653" on="0"/>
        <pt x="736" y="627" on="1"/>
        <pt x="736" y="534" on="1"/>
        <pt x="803" y="534" on="1"/>
        <pt x="803" y="492" on="1"/>
        <pt x="736" y="492" on="1"/>
        <pt x="736" y="73" on="1"/>
        <pt x="737" y="47" on="0"/>
        <pt x="774" y="10" on="0"/>
        <pt x="800" y="10" on="1"/>
        <pt x="813" y="10" on="1"/>
        <pt x="813" y="0" on="1"/>
        <pt x="509" y="0" on="1"/>
        <pt x="509" y="10" on="1"/>
      </contour>
      <contour>
        <pt x="262" y="370" on="1"/>
        <pt x="586" y="370" on="1"/>
        <pt x="586" y="492" on="1"/>
        <pt x="262" y="492" on="1"/>
      </contour>
    </TTGlyph>
    <TTGlyph name="I" xMin="41" yMin="0" xMax="346" yMax="701">
      <contour>
        <pt x="55" y="10" on="1"/>
        <pt x="81" y="10" on="0"/>
        <pt x="118" y="47" on="0"/>
        <pt x="119" y="73" on="1"/>
        <pt x="119" y="628" on="1"/>
        <pt x="118" y="654" on="0"/>
        <pt x="81" y="690" on="0"/>
        <pt x="55" y="690" on="1"/>
        <pt x="42" y="690" on="1"/>
        <pt x="42" y="700" on="1"/>
        <pt x="346" y="700" on="1"/>
        <pt x="345" y="690" on="1"/>
        <pt x="333" y="690" on="1"/>
        <pt x="307" y="690" on="0"/>
        <pt x="269" y="654" on="0"/>
        <pt x="269" y="628" on="1"/>
        <pt x="269" y="73" on="1"/>
        <pt x="269" y="47" on="0"/>
        <pt x="307" y="10" on="0"/>
        <pt x="333" y="10" on="1"/>
        <pt x="345" y="10" on="1"/>
        <pt x="346" y="0" on="1"/>
        <pt x="42" y="0" on="1"/>
        <pt x="42" y="10" on="1"/>
      </contour>
    </TTGlyph>
    <TTGlyph name="IJ" xMin="41" yMin="-202" xMax="736" yMax="701">
      <contour>
        <pt x="55" y="10" on="1"/>
        <pt x="81" y="10" on="0"/>
        <pt x="118" y="47" on="0"/>
        <pt x="119" y="73" on="1"/>
        <pt x="119" y="628" on="1"/>
        <pt x="118" y="654" on="0"/>
        <pt x="81" y="690" on="0"/>
        <pt x="55" y="690" on="1"/>
        <pt x="42" y="690" on="1"/>
        <pt x="42" y="700" on="1"/>
        <pt x="346" y="700" on="1"/>
        <pt x="345" y="690" on="1"/>
        <pt x="333" y="690" on="1"/>
        <pt x="307" y="690" on="0"/>
        <pt x="269" y="654" on="0"/>
        <pt x="269" y="628" on="1"/>
        <pt x="269" y="73" on="1"/>
        <pt x="269" y="47" on="0"/>
        <pt x="307" y="10" on="0"/>
        <pt x="333" y="10" on="1"/>
        <pt x="345" y="10" on="1"/>
        <pt x="346" y="0" on="1"/>
        <pt x="42" y="0" on="1"/>
        <pt x="42" y="10" on="1"/>
      </contour>
      <contour>
        <pt x="723" y="690" on="1"/>
        <pt x="686" y="690" on="0"/>
        <pt x="668" y="659" on="1"/>
        <pt x="659" y="645" on="0"/>
        <pt x="659" y="627" on="1"/>
        <pt x="659" y="30" on="1"/>
        <pt x="659" y="-41" on="0"/>
        <pt x="583" y="-153" on="0"/>
        <pt x="472" y="-201" on="0"/>
        <pt x="418" y="-201" on="1"/>
        <pt x="405" y="-201" on="0"/>
        <pt x="391" y="-200" on="1"/>
        <pt x="391" y="-191" on="1"/>
        <pt x="451" y="-166" on="0"/>
        <pt x="508" y="-43" on="0"/>
        <pt x="508" y="33" on="1"/>
        <pt x="508" y="627" on="1"/>
        <pt x="508" y="653" on="0"/>
        <pt x="470" y="690" on="0"/>
        <pt x="444" y="690" on="1"/>
        <pt x="432" y="690" on="1"/>
        <pt x="431" y="700" on="1"/>
        <pt x="735" y="700" on="1"/>
        <pt x="735" y="690" on="1"/>
      </contour>
    </TTGlyph>
    <TTGlyph name="Iacute" xMin="41" yMin="0" xMax="388" yMax="934">
      <contour>
        <pt x="183" y="762" on="1"/>
        <pt x="176" y="769" on="1"/>
        <pt x="219" y="843" on="0"/>
        <pt x="319" y="933" on="1"/>
        <pt x="368" y="908" on="0"/>
        <pt x="387" y="852" on="1"/>
        <pt x="285" y="787" on="0"/>
      </contour>
      <contour>
        <pt x="55" y="10" on="1"/>
        <pt x="81" y="10" on="0"/>
        <pt x="118" y="47" on="0"/>
        <pt x="119" y="73" on="1"/>
        <pt x="119" y="628" on="1"/>
        <pt x="118" y="654" on="0"/>
        <pt x="81" y="690" on="0"/>
        <pt x="55" y="690" on="1"/>
        <pt x="42" y="690" on="1"/>
        <pt x="42" y="700" on="1"/>
        <pt x="346" y="700" on="1"/>
        <pt x="345" y="690" on="1"/>
        <pt x="333" y="690" on="1"/>
        <pt x="307" y="690" on="0"/>
        <pt x="269" y="654" on="0"/>
        <pt x="269" y="628" on="1"/>
        <pt x="269" y="73" on="1"/>
        <pt x="269" y="47" on="0"/>
        <pt x="307" y="10" on="0"/>
        <pt x="333" y="10" on="1"/>
        <pt x="345" y="10" on="1"/>
        <pt x="346" y="0" on="1"/>
        <pt x="42" y="0" on="1"/>
        <pt x="42" y="10" on="1"/>
      </contour>
    </TTGlyph>
    <TTGlyph name="Icircumflex" xMin="41" yMin="-1" xMax="351" yMax="916">
      <contour>
        <pt x="187" y="915" on="1"/>
        <pt x="198" y="915" on="1"/>
        <pt x="351" y="762" on="1"/>
        <pt x="344" y="754" on="1"/>
        <pt x="192" y="819" on="1"/>
        <pt x="49" y="754" on="1"/>
        <pt x="42" y="762" on="1"/>
      </contour>
      <contour>
        <pt x="55" y="10" on="1"/>
        <pt x="81" y="10" on="0"/>
        <pt x="118" y="47" on="0"/>
        <pt x="119" y="73" on="1"/>
        <pt x="119" y="628" on="1"/>
        <pt x="118" y="654" on="0"/>
        <pt x="81" y="690" on="0"/>
        <pt x="55" y="690" on="1"/>
        <pt x="42" y="690" on="1"/>
        <pt x="42" y="700" on="1"/>
        <pt x="346" y="700" on="1"/>
        <pt x="345" y="690" on="1"/>
        <pt x="333" y="690" on="1"/>
        <pt x="307" y="690" on="0"/>
        <pt x="269" y="654" on="0"/>
        <pt x="269" y="628" on="1"/>
        <pt x="269" y="73" on="1"/>
        <pt x="269" y="47" on="0"/>
        <pt x="307" y="10" on="0"/>
        <pt x="333" y="10" on="1"/>
        <pt x="345" y="10" on="1"/>
        <pt x="346" y="0" on="1"/>
        <pt x="42" y="0" on="1"/>
        <pt x="42" y="10" on="1"/>
      </contour>
    </TTGlyph>
    <TTGlyph name="Idieresis" xMin="14" yMin="0" xMax="368" yMax="880">
      <contour>
        <pt x="99" y="759" on="0"/>
        <pt x="49" y="759" on="0"/>
        <pt x="14" y="794" on="0"/>
        <pt x="14" y="844" on="0"/>
        <pt x="49" y="879" on="0"/>
        <pt x="99" y="879" on="0"/>
        <pt x="134" y="844" on="0"/>
        <pt x="134" y="794" on="0"/>
      </contour>
      <contour>
        <pt x="332" y="759" on="0"/>
        <pt x="283" y="759" on="0"/>
        <pt x="247" y="794" on="0"/>
        <pt x="247" y="844" on="0"/>
        <pt x="283" y="879" on="0"/>
        <pt x="332" y="879" on="0"/>
        <pt x="368" y="844" on="0"/>
        <pt x="368" y="794" on="0"/>
      </contour>
      <contour>
        <pt x="55" y="10" on="1"/>
        <pt x="81" y="10" on="0"/>
        <pt x="118" y="47" on="0"/>
        <pt x="119" y="73" on="1"/>
        <pt x="119" y="628" on="1"/>
        <pt x="118" y="654" on="0"/>
        <pt x="81" y="690" on="0"/>
        <pt x="55" y="690" on="1"/>
        <pt x="42" y="690" on="1"/>
        <pt x="42" y="700" on="1"/>
        <pt x="346" y="700" on="1"/>
        <pt x="345" y="690" on="1"/>
        <pt x="333" y="690" on="1"/>
        <pt x="307" y="690" on="0"/>
        <pt x="269" y="654" on="0"/>
        <pt x="269" y="628" on="1"/>
        <pt x="269" y="73" on="1"/>
        <pt x="269" y="47" on="0"/>
        <pt x="307" y="10" on="0"/>
        <pt x="333" y="10" on="1"/>
        <pt x="345" y="10" on="1"/>
        <pt x="346" y="0" on="1"/>
        <pt x="42" y="0" on="1"/>
        <pt x="42" y="10" on="1"/>
      </contour>
    </TTGlyph>
    <TTGlyph name="Idotaccent" xMin="41" yMin="0" xMax="346" yMax="888">
      <contour>
        <pt x="218" y="764" on="0"/>
        <pt x="167" y="764" on="0"/>
        <pt x="131" y="800" on="0"/>
        <pt x="131" y="851" on="0"/>
        <pt x="167" y="888" on="0"/>
        <pt x="218" y="888" on="0"/>
        <pt x="254" y="851" on="0"/>
        <pt x="254" y="800" on="0"/>
      </contour>
      <contour>
        <pt x="55" y="10" on="1"/>
        <pt x="81" y="10" on="0"/>
        <pt x="118" y="47" on="0"/>
        <pt x="119" y="73" on="1"/>
        <pt x="119" y="628" on="1"/>
        <pt x="118" y="654" on="0"/>
        <pt x="81" y="690" on="0"/>
        <pt x="55" y="690" on="1"/>
        <pt x="42" y="690" on="1"/>
        <pt x="42" y="700" on="1"/>
        <pt x="346" y="700" on="1"/>
        <pt x="345" y="690" on="1"/>
        <pt x="333" y="690" on="1"/>
        <pt x="307" y="690" on="0"/>
        <pt x="269" y="654" on="0"/>
        <pt x="269" y="628" on="1"/>
        <pt x="269" y="73" on="1"/>
        <pt x="269" y="47" on="0"/>
        <pt x="307" y="10" on="0"/>
        <pt x="333" y="10" on="1"/>
        <pt x="345" y="10" on="1"/>
        <pt x="346" y="0" on="1"/>
        <pt x="42" y="0" on="1"/>
        <pt x="42" y="10" on="1"/>
      </contour>
    </TTGlyph>
    <TTGlyph name="Igrave" xMin="6" yMin="-1" xMax="346" yMax="936">
      <contour>
        <pt x="218" y="771" on="1"/>
        <pt x="211" y="764" on="1"/>
        <pt x="111" y="788" on="0"/>
        <pt x="7" y="854" on="1"/>
        <pt x="26" y="911" on="0"/>
        <pt x="74" y="935" on="1"/>
        <pt x="176" y="844" on="0"/>
      </contour>
      <contour>
        <pt x="55" y="10" on="1"/>
        <pt x="81" y="10" on="0"/>
        <pt x="118" y="47" on="0"/>
        <pt x="119" y="73" on="1"/>
        <pt x="119" y="628" on="1"/>
        <pt x="118" y="654" on="0"/>
        <pt x="81" y="690" on="0"/>
        <pt x="55" y="690" on="1"/>
        <pt x="42" y="690" on="1"/>
        <pt x="42" y="700" on="1"/>
        <pt x="346" y="700" on="1"/>
        <pt x="345" y="690" on="1"/>
        <pt x="333" y="690" on="1"/>
        <pt x="307" y="690" on="0"/>
        <pt x="269" y="654" on="0"/>
        <pt x="269" y="628" on="1"/>
        <pt x="269" y="73" on="1"/>
        <pt x="269" y="47" on="0"/>
        <pt x="307" y="10" on="0"/>
        <pt x="333" y="10" on="1"/>
        <pt x="345" y="10" on="1"/>
        <pt x="346" y="0" on="1"/>
        <pt x="42" y="0" on="1"/>
        <pt x="42" y="10" on="1"/>
      </contour>
    </TTGlyph>
    <TTGlyph name="Imacron" xMin="41" yMin="0" xMax="346" yMax="861">
      <contour>
        <pt x="59" y="795" on="1"/>
        <pt x="59" y="861" on="1"/>
        <pt x="333" y="861" on="1"/>
        <pt x="333" y="795" on="1"/>
      </contour>
      <contour>
        <pt x="55" y="10" on="1"/>
        <pt x="81" y="10" on="0"/>
        <pt x="118" y="47" on="0"/>
        <pt x="119" y="73" on="1"/>
        <pt x="119" y="628" on="1"/>
        <pt x="118" y="654" on="0"/>
        <pt x="81" y="690" on="0"/>
        <pt x="55" y="690" on="1"/>
        <pt x="42" y="690" on="1"/>
        <pt x="42" y="700" on="1"/>
        <pt x="346" y="700" on="1"/>
        <pt x="345" y="690" on="1"/>
        <pt x="333" y="690" on="1"/>
        <pt x="307" y="690" on="0"/>
        <pt x="269" y="654" on="0"/>
        <pt x="269" y="628" on="1"/>
        <pt x="269" y="73" on="1"/>
        <pt x="269" y="47" on="0"/>
        <pt x="307" y="10" on="0"/>
        <pt x="333" y="10" on="1"/>
        <pt x="345" y="10" on="1"/>
        <pt x="346" y="0" on="1"/>
        <pt x="42" y="0" on="1"/>
        <pt x="42" y="10" on="1"/>
      </contour>
    </TTGlyph>
    <TTGlyph name="Iogonek" xMin="41" yMin="-202" xMax="346" yMax="701">
      <contour>
        <pt x="202" y="-139" on="1"/>
        <pt x="213" y="-144" on="0"/>
        <pt x="225" y="-144" on="1"/>
        <pt x="251" y="-144" on="0"/>
        <pt x="277" y="-121" on="1"/>
        <pt x="283" y="-127" on="1"/>
        <pt x="278" y="-160" on="0"/>
        <pt x="255" y="-180" on="1"/>
        <pt x="231" y="-201" on="0"/>
        <pt x="202" y="-201" on="1"/>
        <pt x="133" y="-201" on="0"/>
        <pt x="104" y="-155" on="1"/>
        <pt x="90" y="-131" on="0"/>
        <pt x="90" y="-102" on="1"/>
        <pt x="90" y="-56" on="0"/>
        <pt x="146" y="-7" on="0"/>
        <pt x="184" y="0" on="1"/>
        <pt x="42" y="0" on="1"/>
        <pt x="42" y="10" on="1"/>
        <pt x="55" y="10" on="1"/>
        <pt x="81" y="10" on="0"/>
        <pt x="118" y="47" on="0"/>
        <pt x="119" y="73" on="1"/>
        <pt x="119" y="628" on="1"/>
        <pt x="118" y="654" on="0"/>
        <pt x="81" y="690" on="0"/>
        <pt x="55" y="690" on="1"/>
        <pt x="42" y="690" on="1"/>
        <pt x="42" y="700" on="1"/>
        <pt x="346" y="700" on="1"/>
        <pt x="345" y="690" on="1"/>
        <pt x="333" y="690" on="1"/>
        <pt x="307" y="690" on="0"/>
        <pt x="269" y="654" on="0"/>
        <pt x="269" y="628" on="1"/>
        <pt x="269" y="73" on="1"/>
        <pt x="269" y="47" on="0"/>
        <pt x="307" y="10" on="0"/>
        <pt x="333" y="10" on="1"/>
        <pt x="345" y="10" on="1"/>
        <pt x="346" y="0" on="1"/>
        <pt x="226" y="0" on="1"/>
        <pt x="160" y="-18" on="0"/>
        <pt x="160" y="-123" on="0"/>
      </contour>
    </TTGlyph>
    <TTGlyph name="J" xMin="4" yMin="-202" xMax="349" yMax="701">
      <contour>
        <pt x="336" y="690" on="1"/>
        <pt x="300" y="690" on="0"/>
        <pt x="281" y="659" on="1"/>
        <pt x="272" y="645" on="0"/>
        <pt x="272" y="627" on="1"/>
        <pt x="272" y="30" on="1"/>
        <pt x="272" y="-41" on="0"/>
        <pt x="196" y="-153" on="0"/>
        <pt x="86" y="-201" on="0"/>
        <pt x="31" y="-201" on="1"/>
        <pt x="18" y="-201" on="0"/>
        <pt x="5" y="-200" on="1"/>
        <pt x="5" y="-191" on="1"/>
        <pt x="65" y="-166" on="0"/>
        <pt x="122" y="-43" on="0"/>
        <pt x="122" y="33" on="1"/>
        <pt x="122" y="627" on="1"/>
        <pt x="121" y="664" on="0"/>
        <pt x="90" y="682" on="1"/>
        <pt x="75" y="690" on="0"/>
        <pt x="58" y="690" on="1"/>
        <pt x="45" y="690" on="1"/>
        <pt x="45" y="700" on="1"/>
        <pt x="349" y="700" on="1"/>
        <pt x="349" y="690" on="1"/>
      </contour>
    </TTGlyph>
    <TTGlyph name="K" xMin="41" yMin="0" xMax="778" yMax="701">
      <contour>
        <pt x="55" y="10" on="1"/>
        <pt x="81" y="10" on="0"/>
        <pt x="118" y="47" on="0"/>
        <pt x="119" y="73" on="1"/>
        <pt x="119" y="628" on="1"/>
        <pt x="118" y="664" on="0"/>
        <pt x="86" y="682" on="1"/>
        <pt x="72" y="690" on="0"/>
        <pt x="55" y="690" on="1"/>
        <pt x="42" y="690" on="1"/>
        <pt x="42" y="700" on="1"/>
        <pt x="346" y="700" on="1"/>
        <pt x="345" y="690" on="1"/>
        <pt x="333" y="690" on="1"/>
        <pt x="297" y="690" on="0"/>
        <pt x="278" y="659" on="1"/>
        <pt x="269" y="645" on="0"/>
        <pt x="269" y="628" on="1"/>
        <pt x="269" y="73" on="1"/>
        <pt x="269" y="47" on="0"/>
        <pt x="307" y="10" on="0"/>
        <pt x="333" y="10" on="1"/>
        <pt x="345" y="10" on="1"/>
        <pt x="346" y="0" on="1"/>
        <pt x="42" y="0" on="1"/>
        <pt x="42" y="10" on="1"/>
      </contour>
      <contour>
        <pt x="777" y="0" on="1"/>
        <pt x="695" y="0" on="1"/>
        <pt x="543" y="0" on="0"/>
        <pt x="480" y="83" on="1"/>
        <pt x="301" y="326" on="0"/>
        <pt x="301" y="330" on="1"/>
        <pt x="538" y="644" on="1"/>
        <pt x="546" y="654" on="0"/>
        <pt x="546" y="670" on="0"/>
        <pt x="543" y="676" on="1"/>
        <pt x="535" y="691" on="0"/>
        <pt x="515" y="691" on="1"/>
        <pt x="505" y="691" on="1"/>
        <pt x="505" y="700" on="1"/>
        <pt x="734" y="700" on="1"/>
        <pt x="734" y="691" on="1"/>
        <pt x="730" y="691" on="1"/>
        <pt x="663" y="691" on="0"/>
        <pt x="621" y="643" on="1"/>
        <pt x="426" y="412" on="1"/>
        <pt x="675" y="72" on="1"/>
        <pt x="721" y="12" on="0"/>
        <pt x="777" y="10" on="1"/>
      </contour>
    </TTGlyph>
    <TTGlyph name="Kcommaaccent" xMin="41" yMin="-210" xMax="777" yMax="701">
      <contour>
        <pt x="55" y="10" on="1"/>
        <pt x="81" y="10" on="0"/>
        <pt x="118" y="47" on="0"/>
        <pt x="119" y="73" on="1"/>
        <pt x="119" y="628" on="1"/>
        <pt x="118" y="664" on="0"/>
        <pt x="86" y="682" on="1"/>
        <pt x="72" y="690" on="0"/>
        <pt x="55" y="690" on="1"/>
        <pt x="42" y="690" on="1"/>
        <pt x="42" y="700" on="1"/>
        <pt x="346" y="700" on="1"/>
        <pt x="345" y="690" on="1"/>
        <pt x="333" y="690" on="1"/>
        <pt x="297" y="690" on="0"/>
        <pt x="278" y="659" on="1"/>
        <pt x="269" y="645" on="0"/>
        <pt x="269" y="628" on="1"/>
        <pt x="269" y="73" on="1"/>
        <pt x="269" y="47" on="0"/>
        <pt x="307" y="10" on="0"/>
        <pt x="333" y="10" on="1"/>
        <pt x="345" y="10" on="1"/>
        <pt x="346" y="0" on="1"/>
        <pt x="42" y="0" on="1"/>
        <pt x="42" y="10" on="1"/>
      </contour>
      <contour>
        <pt x="777" y="0" on="1"/>
        <pt x="695" y="0" on="1"/>
        <pt x="543" y="0" on="0"/>
        <pt x="480" y="83" on="1"/>
        <pt x="301" y="326" on="0"/>
        <pt x="301" y="330" on="1"/>
        <pt x="538" y="644" on="1"/>
        <pt x="546" y="654" on="0"/>
        <pt x="546" y="670" on="0"/>
        <pt x="543" y="676" on="1"/>
        <pt x="535" y="691" on="0"/>
        <pt x="515" y="691" on="1"/>
        <pt x="505" y="691" on="1"/>
        <pt x="505" y="700" on="1"/>
        <pt x="734" y="700" on="1"/>
        <pt x="734" y="691" on="1"/>
        <pt x="730" y="691" on="1"/>
        <pt x="663" y="691" on="0"/>
        <pt x="621" y="643" on="1"/>
        <pt x="426" y="412" on="1"/>
        <pt x="675" y="72" on="1"/>
        <pt x="721" y="12" on="0"/>
        <pt x="777" y="10" on="1"/>
      </contour>
      <contour>
        <pt x="386" y="-200" on="1"/>
        <pt x="420" y="-188" on="0"/>
        <pt x="420" y="-155" on="1"/>
        <pt x="420" y="-136" on="0"/>
        <pt x="387" y="-97" on="0"/>
        <pt x="387" y="-53" on="0"/>
        <pt x="414" y="-25" on="0"/>
        <pt x="427" y="-25" on="1"/>
        <pt x="472" y="-25" on="0"/>
        <pt x="487" y="-60" on="1"/>
        <pt x="496" y="-84" on="0"/>
        <pt x="496" y="-102" on="1"/>
        <pt x="496" y="-159" on="0"/>
        <pt x="453" y="-191" on="1"/>
        <pt x="428" y="-210" on="0"/>
        <pt x="400" y="-210" on="1"/>
        <pt x="394" y="-210" on="0"/>
        <pt x="388" y="-209" on="1"/>
      </contour>
    </TTGlyph>
    <TTGlyph name="L" xMin="41" yMin="-1" xMax="606" yMax="701">
      <contour>
        <pt x="55" y="10" on="1"/>
        <pt x="81" y="10" on="0"/>
        <pt x="118" y="47" on="0"/>
        <pt x="119" y="73" on="1"/>
        <pt x="119" y="627" on="1"/>
        <pt x="118" y="653" on="0"/>
        <pt x="81" y="690" on="0"/>
        <pt x="55" y="690" on="1"/>
        <pt x="42" y="690" on="1"/>
        <pt x="42" y="700" on="1"/>
        <pt x="346" y="700" on="1"/>
        <pt x="345" y="690" on="1"/>
        <pt x="333" y="690" on="1"/>
        <pt x="307" y="690" on="0"/>
        <pt x="269" y="653" on="0"/>
        <pt x="269" y="627" on="1"/>
        <pt x="269" y="43" on="1"/>
        <pt x="400" y="43" on="1"/>
        <pt x="473" y="43" on="0"/>
        <pt x="572" y="127" on="0"/>
        <pt x="596" y="204" on="1"/>
        <pt x="606" y="204" on="1"/>
        <pt x="560" y="0" on="1"/>
        <pt x="42" y="0" on="1"/>
        <pt x="42" y="10" on="1"/>
      </contour>
    </TTGlyph>
    <TTGlyph name="Lacute" xMin="41" yMin="-1" xMax="606" yMax="934">
      <contour>
        <pt x="184" y="762" on="1"/>
        <pt x="177" y="769" on="1"/>
        <pt x="220" y="843" on="0"/>
        <pt x="321" y="933" on="1"/>
        <pt x="369" y="908" on="0"/>
        <pt x="388" y="852" on="1"/>
        <pt x="286" y="787" on="0"/>
      </contour>
      <contour>
        <pt x="55" y="10" on="1"/>
        <pt x="81" y="10" on="0"/>
        <pt x="118" y="47" on="0"/>
        <pt x="119" y="73" on="1"/>
        <pt x="119" y="627" on="1"/>
        <pt x="118" y="664" on="0"/>
        <pt x="86" y="682" on="1"/>
        <pt x="72" y="690" on="0"/>
        <pt x="55" y="690" on="1"/>
        <pt x="42" y="690" on="1"/>
        <pt x="42" y="700" on="1"/>
        <pt x="346" y="700" on="1"/>
        <pt x="345" y="690" on="1"/>
        <pt x="333" y="690" on="1"/>
        <pt x="307" y="690" on="0"/>
        <pt x="269" y="653" on="0"/>
        <pt x="269" y="627" on="1"/>
        <pt x="269" y="43" on="1"/>
        <pt x="400" y="43" on="1"/>
        <pt x="473" y="43" on="0"/>
        <pt x="572" y="127" on="0"/>
        <pt x="596" y="204" on="1"/>
        <pt x="606" y="204" on="1"/>
        <pt x="560" y="0" on="1"/>
        <pt x="42" y="0" on="1"/>
        <pt x="42" y="10" on="1"/>
      </contour>
    </TTGlyph>
    <TTGlyph name="Lcaron" xMin="41" yMin="-1" xMax="606" yMax="708">
      <contour>
        <pt x="404" y="532" on="1"/>
        <pt x="438" y="545" on="0"/>
        <pt x="438" y="578" on="1"/>
        <pt x="438" y="597" on="0"/>
        <pt x="406" y="635" on="0"/>
        <pt x="406" y="680" on="0"/>
        <pt x="432" y="707" on="0"/>
        <pt x="445" y="707" on="1"/>
        <pt x="490" y="707" on="0"/>
        <pt x="505" y="673" on="1"/>
        <pt x="514" y="649" on="0"/>
        <pt x="514" y="631" on="1"/>
        <pt x="514" y="573" on="0"/>
        <pt x="472" y="542" on="1"/>
        <pt x="447" y="524" on="0"/>
        <pt x="419" y="524" on="1"/>
        <pt x="413" y="524" on="0"/>
        <pt x="407" y="524" on="1"/>
      </contour>
      <contour>
        <pt x="55" y="10" on="1"/>
        <pt x="81" y="10" on="0"/>
        <pt x="118" y="47" on="0"/>
        <pt x="119" y="73" on="1"/>
        <pt x="119" y="627" on="1"/>
        <pt x="118" y="653" on="0"/>
        <pt x="81" y="690" on="0"/>
        <pt x="55" y="690" on="1"/>
        <pt x="42" y="690" on="1"/>
        <pt x="42" y="700" on="1"/>
        <pt x="346" y="700" on="1"/>
        <pt x="345" y="690" on="1"/>
        <pt x="333" y="690" on="1"/>
        <pt x="307" y="690" on="0"/>
        <pt x="269" y="653" on="0"/>
        <pt x="269" y="627" on="1"/>
        <pt x="269" y="43" on="1"/>
        <pt x="400" y="43" on="1"/>
        <pt x="473" y="43" on="0"/>
        <pt x="572" y="127" on="0"/>
        <pt x="596" y="204" on="1"/>
        <pt x="606" y="204" on="1"/>
        <pt x="560" y="0" on="1"/>
        <pt x="42" y="0" on="1"/>
        <pt x="42" y="10" on="1"/>
      </contour>
    </TTGlyph>
    <TTGlyph name="Lcommaaccent" xMin="41" yMin="-243" xMax="606" yMax="701">
      <contour>
        <pt x="55" y="10" on="1"/>
        <pt x="81" y="10" on="0"/>
        <pt x="118" y="47" on="0"/>
        <pt x="119" y="73" on="1"/>
        <pt x="119" y="627" on="1"/>
        <pt x="118" y="664" on="0"/>
        <pt x="86" y="682" on="1"/>
        <pt x="72" y="690" on="0"/>
        <pt x="55" y="690" on="1"/>
        <pt x="42" y="690" on="1"/>
        <pt x="42" y="700" on="1"/>
        <pt x="346" y="700" on="1"/>
        <pt x="345" y="690" on="1"/>
        <pt x="333" y="690" on="1"/>
        <pt x="307" y="690" on="0"/>
        <pt x="269" y="653" on="0"/>
        <pt x="269" y="627" on="1"/>
        <pt x="269" y="43" on="1"/>
        <pt x="400" y="43" on="1"/>
        <pt x="473" y="43" on="0"/>
        <pt x="572" y="127" on="0"/>
        <pt x="596" y="204" on="1"/>
        <pt x="606" y="204" on="1"/>
        <pt x="560" y="0" on="1"/>
        <pt x="42" y="0" on="1"/>
        <pt x="42" y="10" on="1"/>
      </contour>
      <contour>
        <pt x="284" y="-234" on="1"/>
        <pt x="318" y="-221" on="0"/>
        <pt x="318" y="-188" on="1"/>
        <pt x="318" y="-169" on="0"/>
        <pt x="286" y="-131" on="0"/>
        <pt x="286" y="-86" on="0"/>
        <pt x="312" y="-59" on="0"/>
        <pt x="325" y="-59" on="1"/>
        <pt x="370" y="-59" on="0"/>
        <pt x="385" y="-93" on="1"/>
        <pt x="394" y="-118" on="0"/>
        <pt x="394" y="-136" on="1"/>
        <pt x="394" y="-193" on="0"/>
        <pt x="352" y="-225" on="1"/>
        <pt x="327" y="-243" on="0"/>
        <pt x="299" y="-243" on="1"/>
        <pt x="293" y="-243" on="0"/>
        <pt x="287" y="-242" on="1"/>
      </contour>
    </TTGlyph>
    <TTGlyph name="Ldot" xMin="41" yMin="-1" xMax="606" yMax="701">
      <contour>
        <pt x="55" y="10" on="1"/>
        <pt x="81" y="10" on="0"/>
        <pt x="118" y="47" on="0"/>
        <pt x="119" y="73" on="1"/>
        <pt x="119" y="627" on="1"/>
        <pt x="118" y="664" on="0"/>
        <pt x="86" y="682" on="1"/>
        <pt x="72" y="690" on="0"/>
        <pt x="55" y="690" on="1"/>
        <pt x="42" y="690" on="1"/>
        <pt x="42" y="700" on="1"/>
        <pt x="346" y="700" on="1"/>
        <pt x="345" y="690" on="1"/>
        <pt x="333" y="690" on="1"/>
        <pt x="307" y="690" on="0"/>
        <pt x="269" y="653" on="0"/>
        <pt x="269" y="627" on="1"/>
        <pt x="269" y="43" on="1"/>
        <pt x="400" y="43" on="1"/>
        <pt x="473" y="43" on="0"/>
        <pt x="572" y="127" on="0"/>
        <pt x="596" y="204" on="1"/>
        <pt x="606" y="204" on="1"/>
        <pt x="560" y="0" on="1"/>
        <pt x="42" y="0" on="1"/>
        <pt x="42" y="10" on="1"/>
      </contour>
      <contour>
        <pt x="442" y="357" on="0"/>
        <pt x="390" y="357" on="0"/>
        <pt x="354" y="394" on="0"/>
        <pt x="354" y="445" on="0"/>
        <pt x="390" y="482" on="0"/>
        <pt x="442" y="482" on="0"/>
        <pt x="478" y="445" on="0"/>
        <pt x="478" y="394" on="0"/>
      </contour>
    </TTGlyph>
    <TTGlyph name="Lslash" xMin="17" yMin="-1" xMax="606" yMax="701">
      <contour>
        <pt x="55" y="10" on="1"/>
        <pt x="81" y="10" on="0"/>
        <pt x="118" y="47" on="0"/>
        <pt x="119" y="73" on="1"/>
        <pt x="119" y="281" on="1"/>
        <pt x="39" y="236" on="1"/>
        <pt x="18" y="274" on="1"/>
        <pt x="119" y="332" on="1"/>
        <pt x="119" y="627" on="1"/>
        <pt x="118" y="664" on="0"/>
        <pt x="86" y="682" on="1"/>
        <pt x="72" y="690" on="0"/>
        <pt x="55" y="690" on="1"/>
        <pt x="42" y="690" on="1"/>
        <pt x="42" y="700" on="1"/>
        <pt x="346" y="700" on="1"/>
        <pt x="345" y="690" on="1"/>
        <pt x="333" y="690" on="1"/>
        <pt x="307" y="690" on="0"/>
        <pt x="269" y="653" on="0"/>
        <pt x="269" y="627" on="1"/>
        <pt x="269" y="419" on="1"/>
        <pt x="365" y="474" on="1"/>
        <pt x="386" y="436" on="1"/>
        <pt x="269" y="368" on="1"/>
        <pt x="269" y="43" on="1"/>
        <pt x="400" y="43" on="1"/>
        <pt x="473" y="43" on="0"/>
        <pt x="572" y="127" on="0"/>
        <pt x="596" y="204" on="1"/>
        <pt x="606" y="204" on="1"/>
        <pt x="560" y="0" on="1"/>
        <pt x="42" y="0" on="1"/>
        <pt x="42" y="10" on="1"/>
      </contour>
    </TTGlyph>
    <TTGlyph name="M" xMin="-9" yMin="-20" xMax="964" yMax="715">
      <contour>
        <pt x="947" y="10" on="1"/>
        <pt x="963" y="10" on="1"/>
        <pt x="963" y="0" on="1"/>
        <pt x="663" y="0" on="1"/>
        <pt x="663" y="9" on="1"/>
        <pt x="678" y="9" on="1"/>
        <pt x="695" y="10" on="0"/>
        <pt x="719" y="36" on="0"/>
        <pt x="717" y="52" on="1"/>
        <pt x="678" y="415" on="1"/>
        <pt x="490" y="91" on="1"/>
        <pt x="453" y="29" on="0"/>
        <pt x="452" y="-20" on="1"/>
        <pt x="442" y="-20" on="1"/>
        <pt x="185" y="412" on="1"/>
        <pt x="146" y="52" on="1"/>
        <pt x="144" y="36" on="0"/>
        <pt x="168" y="9" on="0"/>
        <pt x="185" y="9" on="1"/>
        <pt x="200" y="9" on="1"/>
        <pt x="200" y="0" on="1"/>
        <pt x="-9" y="0" on="1"/>
        <pt x="-9" y="10" on="1"/>
        <pt x="7" y="10" on="1"/>
        <pt x="35" y="10" on="0"/>
        <pt x="76" y="44" on="0"/>
        <pt x="80" y="73" on="1"/>
        <pt x="163" y="714" on="1"/>
        <pt x="172" y="714" on="1"/>
        <pt x="482" y="204" on="1"/>
        <pt x="780" y="714" on="1"/>
        <pt x="789" y="714" on="1"/>
        <pt x="874" y="73" on="1"/>
        <pt x="879" y="44" on="0"/>
        <pt x="920" y="10" on="0"/>
      </contour>
    </TTGlyph>
    <TTGlyph name="N" xMin="29" yMin="-15" xMax="836" yMax="715">
      <contour>
        <pt x="817" y="690" on="1"/>
        <pt x="782" y="690" on="0"/>
        <pt x="764" y="660" on="1"/>
        <pt x="756" y="647" on="0"/>
        <pt x="755" y="630" on="1"/>
        <pt x="755" y="114" on="1"/>
        <pt x="755" y="47" on="0"/>
        <pt x="764" y="1" on="1"/>
        <pt x="767" y="-14" on="1"/>
        <pt x="758" y="-14" on="1"/>
        <pt x="253" y="467" on="1"/>
        <pt x="253" y="70" on="1"/>
        <pt x="253" y="45" on="0"/>
        <pt x="289" y="10" on="0"/>
        <pt x="314" y="10" on="1"/>
        <pt x="333" y="10" on="1"/>
        <pt x="333" y="0" on="1"/>
        <pt x="30" y="0" on="1"/>
        <pt x="30" y="10" on="1"/>
        <pt x="48" y="10" on="1"/>
        <pt x="74" y="10" on="0"/>
        <pt x="110" y="45" on="0"/>
        <pt x="110" y="71" on="1"/>
        <pt x="110" y="590" on="1"/>
        <pt x="110" y="656" on="0"/>
        <pt x="101" y="700" on="1"/>
        <pt x="99" y="715" on="1"/>
        <pt x="108" y="715" on="1"/>
        <pt x="613" y="234" on="1"/>
        <pt x="613" y="629" on="1"/>
        <pt x="612" y="655" on="0"/>
        <pt x="576" y="690" on="0"/>
        <pt x="551" y="690" on="1"/>
        <pt x="533" y="690" on="1"/>
        <pt x="533" y="700" on="1"/>
        <pt x="836" y="700" on="1"/>
        <pt x="836" y="690" on="1"/>
      </contour>
    </TTGlyph>
    <TTGlyph name="Nacute" xMin="29" yMin="-14" xMax="836" yMax="934">
      <contour>
        <pt x="407" y="762" on="1"/>
        <pt x="400" y="769" on="1"/>
        <pt x="443" y="843" on="0"/>
        <pt x="544" y="933" on="1"/>
        <pt x="592" y="908" on="0"/>
        <pt x="612" y="852" on="1"/>
        <pt x="509" y="787" on="0"/>
      </contour>
      <contour>
        <pt x="817" y="690" on="1"/>
        <pt x="792" y="690" on="0"/>
        <pt x="756" y="655" on="0"/>
        <pt x="755" y="630" on="1"/>
        <pt x="755" y="114" on="1"/>
        <pt x="755" y="47" on="0"/>
        <pt x="764" y="1" on="1"/>
        <pt x="767" y="-14" on="1"/>
        <pt x="758" y="-14" on="1"/>
        <pt x="253" y="467" on="1"/>
        <pt x="253" y="70" on="1"/>
        <pt x="253" y="45" on="0"/>
        <pt x="289" y="10" on="0"/>
        <pt x="314" y="10" on="1"/>
        <pt x="333" y="10" on="1"/>
        <pt x="333" y="0" on="1"/>
        <pt x="30" y="0" on="1"/>
        <pt x="30" y="10" on="1"/>
        <pt x="48" y="10" on="1"/>
        <pt x="74" y="10" on="0"/>
        <pt x="110" y="45" on="0"/>
        <pt x="110" y="71" on="1"/>
        <pt x="110" y="590" on="1"/>
        <pt x="110" y="656" on="0"/>
        <pt x="101" y="700" on="1"/>
        <pt x="99" y="715" on="1"/>
        <pt x="108" y="715" on="1"/>
        <pt x="613" y="234" on="1"/>
        <pt x="613" y="629" on="1"/>
        <pt x="612" y="655" on="0"/>
        <pt x="576" y="690" on="0"/>
        <pt x="551" y="690" on="1"/>
        <pt x="533" y="690" on="1"/>
        <pt x="533" y="700" on="1"/>
        <pt x="836" y="700" on="1"/>
        <pt x="836" y="690" on="1"/>
      </contour>
    </TTGlyph>
    <TTGlyph name="Ncaron" xMin="29" yMin="-15" xMax="836" yMax="926">
      <contour>
        <pt x="423" y="764" on="1"/>
        <pt x="412" y="764" on="1"/>
        <pt x="265" y="917" on="1"/>
        <pt x="271" y="925" on="1"/>
        <pt x="418" y="860" on="1"/>
        <pt x="555" y="925" on="1"/>
        <pt x="562" y="917" on="1"/>
      </contour>
      <contour>
        <pt x="817" y="690" on="1"/>
        <pt x="792" y="690" on="0"/>
        <pt x="756" y="655" on="0"/>
        <pt x="755" y="630" on="1"/>
        <pt x="755" y="114" on="1"/>
        <pt x="755" y="47" on="0"/>
        <pt x="764" y="1" on="1"/>
        <pt x="767" y="-14" on="1"/>
        <pt x="758" y="-14" on="1"/>
        <pt x="253" y="467" on="1"/>
        <pt x="253" y="70" on="1"/>
        <pt x="253" y="35" on="0"/>
        <pt x="284" y="18" on="1"/>
        <pt x="298" y="10" on="0"/>
        <pt x="314" y="10" on="1"/>
        <pt x="333" y="10" on="1"/>
        <pt x="333" y="0" on="1"/>
        <pt x="30" y="0" on="1"/>
        <pt x="30" y="10" on="1"/>
        <pt x="48" y="10" on="1"/>
        <pt x="74" y="10" on="0"/>
        <pt x="110" y="45" on="0"/>
        <pt x="110" y="71" on="1"/>
        <pt x="110" y="590" on="1"/>
        <pt x="110" y="656" on="0"/>
        <pt x="101" y="700" on="1"/>
        <pt x="99" y="715" on="1"/>
        <pt x="108" y="715" on="1"/>
        <pt x="613" y="234" on="1"/>
        <pt x="613" y="629" on="1"/>
        <pt x="612" y="655" on="0"/>
        <pt x="576" y="690" on="0"/>
        <pt x="551" y="690" on="1"/>
        <pt x="533" y="690" on="1"/>
        <pt x="533" y="700" on="1"/>
        <pt x="836" y="700" on="1"/>
        <pt x="836" y="690" on="1"/>
      </contour>
    </TTGlyph>
    <TTGlyph name="Ncommaaccent" xMin="29" yMin="-248" xMax="836" yMax="715">
      <contour>
        <pt x="817" y="690" on="1"/>
        <pt x="792" y="690" on="0"/>
        <pt x="756" y="655" on="0"/>
        <pt x="755" y="630" on="1"/>
        <pt x="755" y="114" on="1"/>
        <pt x="755" y="47" on="0"/>
        <pt x="764" y="1" on="1"/>
        <pt x="767" y="-14" on="1"/>
        <pt x="758" y="-14" on="1"/>
        <pt x="253" y="467" on="1"/>
        <pt x="253" y="70" on="1"/>
        <pt x="253" y="45" on="0"/>
        <pt x="289" y="10" on="0"/>
        <pt x="314" y="10" on="1"/>
        <pt x="333" y="10" on="1"/>
        <pt x="333" y="0" on="1"/>
        <pt x="30" y="0" on="1"/>
        <pt x="30" y="10" on="1"/>
        <pt x="48" y="10" on="1"/>
        <pt x="74" y="10" on="0"/>
        <pt x="110" y="45" on="0"/>
        <pt x="110" y="71" on="1"/>
        <pt x="110" y="590" on="1"/>
        <pt x="110" y="656" on="0"/>
        <pt x="101" y="700" on="1"/>
        <pt x="99" y="715" on="1"/>
        <pt x="108" y="715" on="1"/>
        <pt x="613" y="234" on="1"/>
        <pt x="613" y="629" on="1"/>
        <pt x="612" y="655" on="0"/>
        <pt x="576" y="690" on="0"/>
        <pt x="551" y="690" on="1"/>
        <pt x="533" y="690" on="1"/>
        <pt x="533" y="700" on="1"/>
        <pt x="836" y="700" on="1"/>
        <pt x="836" y="690" on="1"/>
      </contour>
      <contour>
        <pt x="424" y="-239" on="1"/>
        <pt x="458" y="-227" on="0"/>
        <pt x="458" y="-194" on="1"/>
        <pt x="458" y="-175" on="0"/>
        <pt x="426" y="-136" on="0"/>
        <pt x="426" y="-92" on="0"/>
        <pt x="452" y="-64" on="0"/>
        <pt x="465" y="-64" on="1"/>
        <pt x="510" y="-64" on="0"/>
        <pt x="525" y="-99" on="1"/>
        <pt x="534" y="-123" on="0"/>
        <pt x="534" y="-141" on="1"/>
        <pt x="534" y="-198" on="0"/>
        <pt x="492" y="-230" on="1"/>
        <pt x="467" y="-248" on="0"/>
        <pt x="439" y="-248" on="1"/>
        <pt x="433" y="-248" on="0"/>
        <pt x="427" y="-247" on="1"/>
      </contour>
    </TTGlyph>
    <TTGlyph name="Ntilde" xMin="29" yMin="-15" xMax="836" yMax="899">
      <contour>
        <pt x="585" y="889" on="1"/>
        <pt x="597" y="889" on="1"/>
        <pt x="599" y="878" on="0"/>
        <pt x="599" y="868" on="1"/>
        <pt x="599" y="837" on="0"/>
        <pt x="579" y="806" on="1"/>
        <pt x="552" y="764" on="0"/>
        <pt x="500" y="764" on="1"/>
        <pt x="477" y="764" on="0"/>
        <pt x="427" y="786" on="0"/>
        <pt x="376" y="812" on="0"/>
        <pt x="350" y="815" on="0"/>
        <pt x="325" y="815" on="0"/>
        <pt x="286" y="787" on="0"/>
        <pt x="278" y="767" on="1"/>
        <pt x="266" y="767" on="1"/>
        <pt x="265" y="775" on="0"/>
        <pt x="265" y="782" on="1"/>
        <pt x="265" y="820" on="0"/>
        <pt x="313" y="899" on="0"/>
        <pt x="363" y="899" on="1"/>
        <pt x="390" y="899" on="0"/>
        <pt x="487" y="849" on="0"/>
        <pt x="521" y="849" on="1"/>
        <pt x="530" y="849" on="0"/>
        <pt x="545" y="855" on="1"/>
        <pt x="576" y="866" on="0"/>
      </contour>
      <contour>
        <pt x="817" y="690" on="1"/>
        <pt x="792" y="690" on="0"/>
        <pt x="756" y="655" on="0"/>
        <pt x="755" y="630" on="1"/>
        <pt x="755" y="114" on="1"/>
        <pt x="755" y="47" on="0"/>
        <pt x="764" y="1" on="1"/>
        <pt x="767" y="-14" on="1"/>
        <pt x="758" y="-14" on="1"/>
        <pt x="253" y="467" on="1"/>
        <pt x="253" y="70" on="1"/>
        <pt x="253" y="35" on="0"/>
        <pt x="284" y="18" on="1"/>
        <pt x="298" y="10" on="0"/>
        <pt x="314" y="10" on="1"/>
        <pt x="333" y="10" on="1"/>
        <pt x="333" y="0" on="1"/>
        <pt x="30" y="0" on="1"/>
        <pt x="30" y="10" on="1"/>
        <pt x="48" y="10" on="1"/>
        <pt x="74" y="10" on="0"/>
        <pt x="110" y="45" on="0"/>
        <pt x="110" y="71" on="1"/>
        <pt x="110" y="590" on="1"/>
        <pt x="110" y="656" on="0"/>
        <pt x="101" y="700" on="1"/>
        <pt x="99" y="715" on="1"/>
        <pt x="108" y="715" on="1"/>
        <pt x="613" y="234" on="1"/>
        <pt x="613" y="629" on="1"/>
        <pt x="612" y="655" on="0"/>
        <pt x="576" y="690" on="0"/>
        <pt x="551" y="690" on="1"/>
        <pt x="533" y="690" on="1"/>
        <pt x="533" y="700" on="1"/>
        <pt x="836" y="700" on="1"/>
        <pt x="836" y="690" on="1"/>
      </contour>
    </TTGlyph>
    <TTGlyph name="O" xMin="48" yMin="-14" xMax="836" yMax="714">
      <contour>
        <pt x="262" y="714" on="0"/>
        <pt x="623" y="714" on="0"/>
        <pt x="836" y="518" on="0"/>
        <pt x="836" y="182" on="0"/>
        <pt x="623" y="-14" on="0"/>
        <pt x="262" y="-14" on="0"/>
        <pt x="49" y="182" on="0"/>
        <pt x="49" y="518" on="0"/>
      </contour>
      <contour>
        <pt x="336" y="28" on="0"/>
        <pt x="548" y="28" on="0"/>
        <pt x="672" y="201" on="0"/>
        <pt x="672" y="499" on="0"/>
        <pt x="548" y="672" on="0"/>
        <pt x="336" y="672" on="0"/>
        <pt x="213" y="499" on="0"/>
        <pt x="213" y="201" on="0"/>
      </contour>
    </TTGlyph>
    <TTGlyph name="OE" xMin="44" yMin="-14" xMax="1052" yMax="719">
      <contour>
        <pt x="1005" y="0" on="1"/>
        <pt x="710" y="0" on="1"/>
        <pt x="597" y="0" on="0"/>
        <pt x="564" y="-2" on="0"/>
        <pt x="465" y="-14" on="0"/>
        <pt x="434" y="-14" on="1"/>
        <pt x="257" y="-14" on="0"/>
        <pt x="45" y="183" on="0"/>
        <pt x="45" y="519" on="0"/>
        <pt x="258" y="714" on="0"/>
        <pt x="442" y="714" on="1"/>
        <pt x="490" y="714" on="0"/>
        <pt x="591" y="700" on="0"/>
        <pt x="622" y="700" on="1"/>
        <pt x="871" y="700" on="1"/>
        <pt x="902" y="700" on="0"/>
        <pt x="975" y="712" on="0"/>
        <pt x="990" y="718" on="1"/>
        <pt x="990" y="543" on="1"/>
        <pt x="979" y="544" on="1"/>
        <pt x="979" y="555" on="1"/>
        <pt x="979" y="600" on="0"/>
        <pt x="927" y="655" on="0"/>
        <pt x="882" y="657" on="1"/>
        <pt x="712" y="657" on="1"/>
        <pt x="712" y="366" on="1"/>
        <pt x="847" y="366" on="1"/>
        <pt x="883" y="367" on="0"/>
        <pt x="932" y="416" on="0"/>
        <pt x="931" y="452" on="1"/>
        <pt x="931" y="461" on="1"/>
        <pt x="941" y="461" on="1"/>
        <pt x="941" y="230" on="1"/>
        <pt x="931" y="230" on="1"/>
        <pt x="931" y="238" on="1"/>
        <pt x="932" y="288" on="0"/>
        <pt x="891" y="312" on="1"/>
        <pt x="872" y="323" on="0"/>
        <pt x="848" y="324" on="1"/>
        <pt x="712" y="324" on="1"/>
        <pt x="712" y="43" on="1"/>
        <pt x="845" y="43" on="1"/>
        <pt x="918" y="43" on="0"/>
        <pt x="1017" y="127" on="0"/>
        <pt x="1041" y="204" on="1"/>
        <pt x="1051" y="204" on="1"/>
      </contour>
      <contour>
        <pt x="443" y="672" on="1"/>
        <pt x="336" y="672" on="0"/>
        <pt x="202" y="500" on="0"/>
        <pt x="202" y="348" on="1"/>
        <pt x="202" y="251" on="0"/>
        <pt x="262" y="105" on="0"/>
        <pt x="371" y="28" on="0"/>
        <pt x="443" y="28" on="1"/>
        <pt x="492" y="28" on="0"/>
        <pt x="564" y="65" on="0"/>
        <pt x="564" y="89" on="1"/>
        <pt x="564" y="611" on="1"/>
        <pt x="564" y="635" on="0"/>
        <pt x="493" y="672" on="0"/>
      </contour>
    </TTGlyph>
    <TTGlyph name="Oacute" xMin="48" yMin="-14" xMax="836" yMax="942">
      <contour>
        <pt x="432" y="771" on="1"/>
        <pt x="425" y="778" on="1"/>
        <pt x="468" y="852" on="0"/>
        <pt x="569" y="942" on="1"/>
        <pt x="617" y="917" on="0"/>
        <pt x="636" y="861" on="1"/>
        <pt x="534" y="795" on="0"/>
      </contour>
      <contour>
        <pt x="262" y="714" on="0"/>
        <pt x="623" y="714" on="0"/>
        <pt x="836" y="518" on="0"/>
        <pt x="836" y="182" on="0"/>
        <pt x="623" y="-14" on="0"/>
        <pt x="262" y="-14" on="0"/>
        <pt x="49" y="182" on="0"/>
        <pt x="49" y="518" on="0"/>
      </contour>
      <contour>
        <pt x="336" y="28" on="0"/>
        <pt x="548" y="28" on="0"/>
        <pt x="672" y="201" on="0"/>
        <pt x="672" y="499" on="0"/>
        <pt x="548" y="672" on="0"/>
        <pt x="336" y="672" on="0"/>
        <pt x="213" y="499" on="0"/>
        <pt x="213" y="201" on="0"/>
      </contour>
    </TTGlyph>
    <TTGlyph name="Ocircumflex" xMin="48" yMin="-15" xMax="836" yMax="924">
      <contour>
        <pt x="436" y="924" on="1"/>
        <pt x="447" y="924" on="1"/>
        <pt x="600" y="770" on="1"/>
        <pt x="593" y="762" on="1"/>
        <pt x="441" y="828" on="1"/>
        <pt x="298" y="763" on="1"/>
        <pt x="291" y="771" on="1"/>
      </contour>
      <contour>
        <pt x="442" y="714" on="1"/>
        <pt x="562" y="714" on="0"/>
        <pt x="739" y="626" on="0"/>
        <pt x="836" y="461" on="0"/>
        <pt x="836" y="350" on="1"/>
        <pt x="836" y="182" on="0"/>
        <pt x="623" y="-14" on="0"/>
        <pt x="262" y="-14" on="0"/>
        <pt x="49" y="182" on="0"/>
        <pt x="49" y="518" on="0"/>
        <pt x="262" y="714" on="0"/>
      </contour>
      <contour>
        <pt x="336" y="28" on="0"/>
        <pt x="548" y="28" on="0"/>
        <pt x="672" y="201" on="0"/>
        <pt x="672" y="499" on="0"/>
        <pt x="548" y="672" on="0"/>
        <pt x="336" y="672" on="0"/>
        <pt x="213" y="499" on="0"/>
        <pt x="213" y="201" on="0"/>
      </contour>
    </TTGlyph>
    <TTGlyph name="Odieresis" xMin="48" yMin="-14" xMax="836" yMax="888">
      <contour>
        <pt x="348" y="767" on="0"/>
        <pt x="298" y="767" on="0"/>
        <pt x="263" y="803" on="0"/>
        <pt x="263" y="852" on="0"/>
        <pt x="298" y="888" on="0"/>
        <pt x="348" y="888" on="0"/>
        <pt x="383" y="852" on="0"/>
        <pt x="383" y="803" on="0"/>
      </contour>
      <contour>
        <pt x="581" y="767" on="0"/>
        <pt x="532" y="767" on="0"/>
        <pt x="496" y="803" on="0"/>
        <pt x="496" y="852" on="0"/>
        <pt x="532" y="888" on="0"/>
        <pt x="581" y="888" on="0"/>
        <pt x="617" y="852" on="0"/>
        <pt x="617" y="803" on="0"/>
      </contour>
      <contour>
        <pt x="262" y="714" on="0"/>
        <pt x="623" y="714" on="0"/>
        <pt x="836" y="518" on="0"/>
        <pt x="836" y="182" on="0"/>
        <pt x="623" y="-14" on="0"/>
        <pt x="262" y="-14" on="0"/>
        <pt x="49" y="182" on="0"/>
        <pt x="49" y="518" on="0"/>
      </contour>
      <contour>
        <pt x="336" y="28" on="0"/>
        <pt x="548" y="28" on="0"/>
        <pt x="672" y="201" on="0"/>
        <pt x="672" y="499" on="0"/>
        <pt x="548" y="672" on="0"/>
        <pt x="336" y="672" on="0"/>
        <pt x="213" y="499" on="0"/>
        <pt x="213" y="201" on="0"/>
      </contour>
    </TTGlyph>
    <TTGlyph name="Ograve" xMin="44" yMin="-15" xMax="832" yMax="944">
      <contour>
        <pt x="457" y="779" on="1"/>
        <pt x="450" y="772" on="1"/>
        <pt x="350" y="796" on="0"/>
        <pt x="246" y="862" on="1"/>
        <pt x="265" y="919" on="0"/>
        <pt x="313" y="944" on="1"/>
        <pt x="415" y="853" on="0"/>
      </contour>
      <contour>
        <pt x="258" y="714" on="0"/>
        <pt x="619" y="714" on="0"/>
        <pt x="832" y="518" on="0"/>
        <pt x="832" y="182" on="0"/>
        <pt x="619" y="-14" on="0"/>
        <pt x="258" y="-14" on="0"/>
        <pt x="45" y="182" on="0"/>
        <pt x="45" y="518" on="0"/>
      </contour>
      <contour>
        <pt x="330" y="28" on="0"/>
        <pt x="547" y="28" on="0"/>
        <pt x="671" y="201" on="0"/>
        <pt x="671" y="350" on="1"/>
        <pt x="671" y="449" on="0"/>
        <pt x="615" y="594" on="0"/>
        <pt x="510" y="672" on="0"/>
        <pt x="438" y="672" on="1"/>
        <pt x="330" y="672" on="0"/>
        <pt x="206" y="499" on="0"/>
        <pt x="206" y="201" on="0"/>
      </contour>
    </TTGlyph>
    <TTGlyph name="Ohungarumlaut" xMin="48" yMin="-15" xMax="836" yMax="944">
      <contour>
        <pt x="344" y="774" on="1"/>
        <pt x="335" y="779" on="1"/>
        <pt x="362" y="841" on="0"/>
        <pt x="456" y="943" on="1"/>
        <pt x="507" y="926" on="0"/>
        <pt x="531" y="878" on="1"/>
        <pt x="443" y="809" on="0"/>
      </contour>
      <contour>
        <pt x="520" y="774" on="1"/>
        <pt x="511" y="779" on="1"/>
        <pt x="539" y="845" on="0"/>
        <pt x="631" y="943" on="1"/>
        <pt x="683" y="926" on="0"/>
        <pt x="707" y="878" on="1"/>
        <pt x="617" y="807" on="0"/>
      </contour>
      <contour>
        <pt x="442" y="714" on="1"/>
        <pt x="623" y="714" on="0"/>
        <pt x="836" y="518" on="0"/>
        <pt x="836" y="182" on="0"/>
        <pt x="623" y="-14" on="0"/>
        <pt x="262" y="-14" on="0"/>
        <pt x="49" y="182" on="0"/>
        <pt x="49" y="350" on="1"/>
        <pt x="49" y="461" on="0"/>
        <pt x="145" y="626" on="0"/>
        <pt x="323" y="714" on="0"/>
      </contour>
      <contour>
        <pt x="336" y="28" on="0"/>
        <pt x="548" y="28" on="0"/>
        <pt x="672" y="201" on="0"/>
        <pt x="672" y="499" on="0"/>
        <pt x="548" y="672" on="0"/>
        <pt x="336" y="672" on="0"/>
        <pt x="213" y="499" on="0"/>
        <pt x="213" y="201" on="0"/>
      </contour>
    </TTGlyph>
    <TTGlyph name="Omacron" xMin="48" yMin="-14" xMax="836" yMax="870">
      <contour>
        <pt x="308" y="804" on="1"/>
        <pt x="308" y="869" on="1"/>
        <pt x="582" y="869" on="1"/>
        <pt x="582" y="804" on="1"/>
      </contour>
      <contour>
        <pt x="262" y="714" on="0"/>
        <pt x="623" y="714" on="0"/>
        <pt x="836" y="518" on="0"/>
        <pt x="836" y="182" on="0"/>
        <pt x="623" y="-14" on="0"/>
        <pt x="262" y="-14" on="0"/>
        <pt x="49" y="182" on="0"/>
        <pt x="49" y="518" on="0"/>
      </contour>
      <contour>
        <pt x="336" y="28" on="0"/>
        <pt x="548" y="28" on="0"/>
        <pt x="672" y="201" on="0"/>
        <pt x="672" y="499" on="0"/>
        <pt x="548" y="672" on="0"/>
        <pt x="336" y="672" on="0"/>
        <pt x="213" y="499" on="0"/>
        <pt x="213" y="201" on="0"/>
      </contour>
    </TTGlyph>
    <TTGlyph name="Omega" xMin="33" yMin="-1" xMax="818" yMax="714">
      <contour>
        <pt x="463" y="132" on="1"/>
        <pt x="548" y="167" on="0"/>
        <pt x="657" y="310" on="0"/>
        <pt x="657" y="524" on="0"/>
        <pt x="526" y="672" on="0"/>
        <pt x="328" y="672" on="0"/>
        <pt x="194" y="521" on="0"/>
        <pt x="194" y="308" on="0"/>
        <pt x="300" y="166" on="0"/>
        <pt x="385" y="132" on="1"/>
        <pt x="373" y="0" on="1"/>
        <pt x="81" y="0" on="1"/>
        <pt x="33" y="213" on="1"/>
        <pt x="43" y="213" on="1"/>
        <pt x="62" y="179" on="0"/>
        <pt x="76" y="162" on="1"/>
        <pt x="106" y="128" on="0"/>
        <pt x="160" y="128" on="1"/>
        <pt x="324" y="128" on="1"/>
        <pt x="196" y="147" on="0"/>
        <pt x="39" y="309" on="0"/>
        <pt x="39" y="416" on="1"/>
        <pt x="39" y="499" on="0"/>
        <pt x="139" y="636" on="0"/>
        <pt x="318" y="714" on="0"/>
        <pt x="535" y="714" on="0"/>
        <pt x="712" y="635" on="0"/>
        <pt x="812" y="496" on="0"/>
        <pt x="812" y="344" on="0"/>
        <pt x="738" y="222" on="0"/>
        <pt x="606" y="138" on="0"/>
        <pt x="524" y="128" on="1"/>
        <pt x="691" y="128" on="1"/>
        <pt x="734" y="128" on="0"/>
        <pt x="780" y="163" on="0"/>
        <pt x="808" y="213" on="1"/>
        <pt x="818" y="213" on="1"/>
        <pt x="770" y="0" on="1"/>
        <pt x="475" y="0" on="1"/>
      </contour>
    </TTGlyph>
    <TTGlyph name="Oslash" xMin="44" yMin="-23" xMax="828" yMax="725">
      <contour>
        <pt x="828" y="350" on="1"/>
        <pt x="828" y="182" on="0"/>
        <pt x="617" y="-14" on="0"/>
        <pt x="436" y="-14" on="1"/>
        <pt x="297" y="-14" on="0"/>
        <pt x="200" y="46" on="1"/>
        <pt x="141" y="-23" on="1"/>
        <pt x="105" y="8" on="1"/>
        <pt x="161" y="74" on="1"/>
        <pt x="45" y="173" on="0"/>
        <pt x="45" y="350" on="1"/>
        <pt x="45" y="461" on="0"/>
        <pt x="140" y="626" on="0"/>
        <pt x="317" y="714" on="0"/>
        <pt x="566" y="714" on="0"/>
        <pt x="660" y="662" on="1"/>
        <pt x="713" y="725" on="1"/>
        <pt x="750" y="695" on="1"/>
        <pt x="699" y="635" on="1"/>
        <pt x="828" y="537" on="0"/>
      </contour>
      <contour>
        <pt x="601" y="593" on="1"/>
        <pt x="540" y="672" on="0"/>
        <pt x="328" y="672" on="0"/>
        <pt x="204" y="499" on="0"/>
        <pt x="204" y="350" on="1"/>
        <pt x="204" y="241" on="0"/>
        <pt x="238" y="164" on="1"/>
      </contour>
      <contour>
        <pt x="262" y="120" on="1"/>
        <pt x="324" y="28" on="0"/>
        <pt x="545" y="28" on="0"/>
        <pt x="669" y="201" on="0"/>
        <pt x="669" y="350" on="1"/>
        <pt x="669" y="470" on="0"/>
        <pt x="628" y="551" on="1"/>
      </contour>
    </TTGlyph>
    <TTGlyph name="Otilde" xMin="48" yMin="-15" xMax="836" yMax="908">
      <contour>
        <pt x="290" y="791" on="1"/>
        <pt x="290" y="829" on="0"/>
        <pt x="337" y="907" on="0"/>
        <pt x="387" y="907" on="1"/>
        <pt x="415" y="907" on="0"/>
        <pt x="505" y="861" on="0"/>
        <pt x="547" y="857" on="0"/>
        <pt x="560" y="860" on="1"/>
        <pt x="598" y="869" on="0"/>
        <pt x="610" y="898" on="1"/>
        <pt x="621" y="898" on="1"/>
        <pt x="624" y="887" on="0"/>
        <pt x="624" y="876" on="1"/>
        <pt x="624" y="846" on="0"/>
        <pt x="604" y="814" on="1"/>
        <pt x="577" y="773" on="0"/>
        <pt x="525" y="773" on="1"/>
        <pt x="496" y="773" on="0"/>
        <pt x="403" y="820" on="0"/>
        <pt x="375" y="823" on="0"/>
        <pt x="350" y="823" on="0"/>
        <pt x="311" y="796" on="0"/>
        <pt x="302" y="776" on="1"/>
        <pt x="291" y="776" on="1"/>
        <pt x="290" y="783" on="0"/>
      </contour>
      <contour>
        <pt x="262" y="714" on="0"/>
        <pt x="623" y="714" on="0"/>
        <pt x="836" y="518" on="0"/>
        <pt x="836" y="182" on="0"/>
        <pt x="623" y="-14" on="0"/>
        <pt x="262" y="-14" on="0"/>
        <pt x="49" y="182" on="0"/>
        <pt x="49" y="518" on="0"/>
      </contour>
      <contour>
        <pt x="336" y="28" on="0"/>
        <pt x="548" y="28" on="0"/>
        <pt x="672" y="201" on="0"/>
        <pt x="672" y="499" on="0"/>
        <pt x="548" y="672" on="0"/>
        <pt x="336" y="672" on="0"/>
        <pt x="213" y="499" on="0"/>
        <pt x="213" y="201" on="0"/>
      </contour>
    </TTGlyph>
    <TTGlyph name="P" xMin="44" yMin="-1" xMax="628" yMax="700">
      <contour>
        <pt x="627" y="500" on="1"/>
        <pt x="627" y="454" on="0"/>
        <pt x="609" y="413" on="1"/>
        <pt x="575" y="334" on="0"/>
        <pt x="483" y="305" on="1"/>
        <pt x="456" y="296" on="0"/>
        <pt x="433" y="296" on="1"/>
        <pt x="362" y="296" on="0"/>
        <pt x="306" y="333" on="1"/>
        <pt x="306" y="343" on="1"/>
        <pt x="381" y="341" on="0"/>
        <pt x="427" y="392" on="1"/>
        <pt x="467" y="436" on="0"/>
        <pt x="467" y="507" on="1"/>
        <pt x="467" y="579" on="0"/>
        <pt x="398" y="658" on="0"/>
        <pt x="339" y="658" on="1"/>
        <pt x="272" y="658" on="1"/>
        <pt x="272" y="73" on="1"/>
        <pt x="272" y="47" on="0"/>
        <pt x="310" y="10" on="0"/>
        <pt x="336" y="10" on="1"/>
        <pt x="349" y="10" on="1"/>
        <pt x="349" y="0" on="1"/>
        <pt x="45" y="0" on="1"/>
        <pt x="45" y="10" on="1"/>
        <pt x="58" y="10" on="1"/>
        <pt x="84" y="10" on="0"/>
        <pt x="121" y="47" on="0"/>
        <pt x="122" y="73" on="1"/>
        <pt x="122" y="632" on="1"/>
        <pt x="122" y="657" on="0"/>
        <pt x="84" y="690" on="0"/>
        <pt x="58" y="690" on="1"/>
        <pt x="45" y="690" on="1"/>
        <pt x="45" y="700" on="1"/>
        <pt x="379" y="700" on="1"/>
        <pt x="501" y="700" on="0"/>
        <pt x="563" y="648" on="1"/>
        <pt x="627" y="593" on="0"/>
      </contour>
    </TTGlyph>
    <TTGlyph name="Q" xMin="47" yMin="-279" xMax="1357" yMax="714">
      <contour>
        <pt x="1120" y="-145" on="1"/>
        <pt x="1261" y="-145" on="0"/>
        <pt x="1351" y="-72" on="1"/>
        <pt x="1357" y="-76" on="1"/>
        <pt x="1352" y="-157" on="0"/>
        <pt x="1281" y="-214" on="1"/>
        <pt x="1201" y="-279" on="0"/>
        <pt x="964" y="-279" on="0"/>
        <pt x="826" y="-212" on="1"/>
        <pt x="764" y="-181" on="0"/>
        <pt x="621" y="-89" on="1"/>
        <pt x="581" y="-62" on="0"/>
        <pt x="479" y="-18" on="0"/>
        <pt x="435" y="-14" on="1"/>
        <pt x="257" y="-12" on="0"/>
        <pt x="48" y="183" on="0"/>
        <pt x="48" y="518" on="0"/>
        <pt x="261" y="714" on="0"/>
        <pt x="622" y="714" on="0"/>
        <pt x="834" y="518" on="0"/>
        <pt x="834" y="350" on="1"/>
        <pt x="834" y="218" on="0"/>
        <pt x="699" y="37" on="0"/>
        <pt x="580" y="4" on="1"/>
        <pt x="660" y="-12" on="0"/>
        <pt x="799" y="-64" on="0"/>
        <pt x="888" y="-98" on="1"/>
        <pt x="1008" y="-145" on="0"/>
      </contour>
      <contour>
        <pt x="211" y="350" on="1"/>
        <pt x="211" y="252" on="0"/>
        <pt x="267" y="106" on="0"/>
        <pt x="371" y="28" on="0"/>
        <pt x="441" y="28" on="1"/>
        <pt x="547" y="28" on="0"/>
        <pt x="671" y="201" on="0"/>
        <pt x="671" y="499" on="0"/>
        <pt x="547" y="672" on="0"/>
        <pt x="335" y="672" on="0"/>
        <pt x="211" y="499" on="0"/>
      </contour>
    </TTGlyph>
    <TTGlyph name="R" xMin="44" yMin="0" xMax="789" yMax="701">
      <contour>
        <pt x="318" y="656" on="1"/>
        <pt x="275" y="656" on="1"/>
        <pt x="273" y="656" on="0"/>
        <pt x="272" y="656" on="1"/>
        <pt x="272" y="73" on="1"/>
        <pt x="273" y="47" on="0"/>
        <pt x="310" y="10" on="0"/>
        <pt x="336" y="10" on="1"/>
        <pt x="349" y="10" on="1"/>
        <pt x="349" y="0" on="1"/>
        <pt x="45" y="0" on="1"/>
        <pt x="45" y="10" on="1"/>
        <pt x="58" y="10" on="1"/>
        <pt x="94" y="10" on="0"/>
        <pt x="113" y="41" on="1"/>
        <pt x="121" y="55" on="0"/>
        <pt x="122" y="72" on="1"/>
        <pt x="122" y="627" on="1"/>
        <pt x="121" y="653" on="0"/>
        <pt x="84" y="690" on="0"/>
        <pt x="58" y="690" on="1"/>
        <pt x="45" y="690" on="1"/>
        <pt x="45" y="700" on="1"/>
        <pt x="388" y="700" on="1"/>
        <pt x="485" y="700" on="0"/>
        <pt x="552" y="658" on="1"/>
        <pt x="586" y="637" on="0"/>
        <pt x="626" y="562" on="0"/>
        <pt x="626" y="441" on="0"/>
        <pt x="542" y="329" on="0"/>
        <pt x="462" y="321" on="1"/>
        <pt x="520" y="302" on="0"/>
        <pt x="564" y="233" on="1"/>
        <pt x="672" y="60" on="0"/>
        <pt x="724" y="27" on="1"/>
        <pt x="750" y="11" on="0"/>
        <pt x="789" y="10" on="1"/>
        <pt x="789" y="0" on="1"/>
        <pt x="691" y="0" on="1"/>
        <pt x="604" y="0" on="0"/>
        <pt x="489" y="46" on="0"/>
        <pt x="456" y="104" on="1"/>
        <pt x="437" y="137" on="0"/>
        <pt x="373" y="275" on="1"/>
        <pt x="345" y="336" on="0"/>
        <pt x="305" y="342" on="1"/>
        <pt x="305" y="352" on="1"/>
        <pt x="336" y="352" on="1"/>
        <pt x="381" y="352" on="0"/>
        <pt x="450" y="406" on="0"/>
        <pt x="462" y="467" on="1"/>
        <pt x="466" y="488" on="0"/>
        <pt x="466" y="500" on="1"/>
        <pt x="466" y="582" on="0"/>
        <pt x="400" y="655" on="0"/>
        <pt x="348" y="656" on="1"/>
        <pt x="338" y="656" on="0"/>
      </contour>
    </TTGlyph>
    <TTGlyph name="Racute" xMin="44" yMin="0" xMax="789" yMax="934">
      <contour>
        <pt x="354" y="762" on="1"/>
        <pt x="347" y="769" on="1"/>
        <pt x="390" y="843" on="0"/>
        <pt x="491" y="933" on="1"/>
        <pt x="539" y="908" on="0"/>
        <pt x="559" y="852" on="1"/>
        <pt x="456" y="787" on="0"/>
      </contour>
      <contour>
        <pt x="318" y="656" on="1"/>
        <pt x="275" y="656" on="1"/>
        <pt x="273" y="656" on="0"/>
        <pt x="272" y="656" on="1"/>
        <pt x="272" y="73" on="1"/>
        <pt x="273" y="47" on="0"/>
        <pt x="310" y="10" on="0"/>
        <pt x="336" y="10" on="1"/>
        <pt x="349" y="10" on="1"/>
        <pt x="349" y="0" on="1"/>
        <pt x="45" y="0" on="1"/>
        <pt x="45" y="10" on="1"/>
        <pt x="58" y="10" on="1"/>
        <pt x="84" y="10" on="0"/>
        <pt x="121" y="46" on="0"/>
        <pt x="122" y="72" on="1"/>
        <pt x="122" y="627" on="1"/>
        <pt x="121" y="653" on="0"/>
        <pt x="84" y="690" on="0"/>
        <pt x="58" y="690" on="1"/>
        <pt x="45" y="690" on="1"/>
        <pt x="45" y="700" on="1"/>
        <pt x="388" y="700" on="1"/>
        <pt x="485" y="700" on="0"/>
        <pt x="552" y="658" on="1"/>
        <pt x="586" y="637" on="0"/>
        <pt x="626" y="562" on="0"/>
        <pt x="626" y="441" on="0"/>
        <pt x="542" y="329" on="0"/>
        <pt x="462" y="321" on="1"/>
        <pt x="520" y="302" on="0"/>
        <pt x="564" y="233" on="1"/>
        <pt x="672" y="60" on="0"/>
        <pt x="724" y="27" on="1"/>
        <pt x="750" y="11" on="0"/>
        <pt x="789" y="10" on="1"/>
        <pt x="789" y="0" on="1"/>
        <pt x="691" y="0" on="1"/>
        <pt x="604" y="0" on="0"/>
        <pt x="489" y="46" on="0"/>
        <pt x="456" y="104" on="1"/>
        <pt x="437" y="137" on="0"/>
        <pt x="373" y="275" on="1"/>
        <pt x="345" y="336" on="0"/>
        <pt x="305" y="342" on="1"/>
        <pt x="305" y="352" on="1"/>
        <pt x="336" y="352" on="1"/>
        <pt x="439" y="353" on="0"/>
        <pt x="462" y="467" on="1"/>
        <pt x="466" y="488" on="0"/>
        <pt x="466" y="500" on="1"/>
        <pt x="466" y="582" on="0"/>
        <pt x="400" y="655" on="0"/>
        <pt x="348" y="656" on="1"/>
        <pt x="338" y="656" on="0"/>
      </contour>
    </TTGlyph>
    <TTGlyph name="Rcaron" xMin="44" yMin="0" xMax="789" yMax="926">
      <contour>
        <pt x="371" y="764" on="1"/>
        <pt x="359" y="764" on="1"/>
        <pt x="212" y="917" on="1"/>
        <pt x="219" y="925" on="1"/>
        <pt x="366" y="860" on="1"/>
        <pt x="502" y="925" on="1"/>
        <pt x="509" y="917" on="1"/>
      </contour>
      <contour>
        <pt x="318" y="656" on="1"/>
        <pt x="275" y="656" on="1"/>
        <pt x="273" y="656" on="0"/>
        <pt x="272" y="656" on="1"/>
        <pt x="272" y="73" on="1"/>
        <pt x="273" y="36" on="0"/>
        <pt x="304" y="18" on="1"/>
        <pt x="319" y="10" on="0"/>
        <pt x="336" y="10" on="1"/>
        <pt x="349" y="10" on="1"/>
        <pt x="349" y="0" on="1"/>
        <pt x="45" y="0" on="1"/>
        <pt x="45" y="10" on="1"/>
        <pt x="58" y="10" on="1"/>
        <pt x="84" y="10" on="0"/>
        <pt x="121" y="46" on="0"/>
        <pt x="122" y="72" on="1"/>
        <pt x="122" y="627" on="1"/>
        <pt x="121" y="653" on="0"/>
        <pt x="84" y="690" on="0"/>
        <pt x="58" y="690" on="1"/>
        <pt x="45" y="690" on="1"/>
        <pt x="45" y="700" on="1"/>
        <pt x="388" y="700" on="1"/>
        <pt x="485" y="700" on="0"/>
        <pt x="552" y="658" on="1"/>
        <pt x="586" y="637" on="0"/>
        <pt x="626" y="562" on="0"/>
        <pt x="626" y="441" on="0"/>
        <pt x="542" y="329" on="0"/>
        <pt x="462" y="321" on="1"/>
        <pt x="520" y="302" on="0"/>
        <pt x="564" y="233" on="1"/>
        <pt x="672" y="60" on="0"/>
        <pt x="724" y="27" on="1"/>
        <pt x="750" y="11" on="0"/>
        <pt x="789" y="10" on="1"/>
        <pt x="789" y="0" on="1"/>
        <pt x="691" y="0" on="1"/>
        <pt x="604" y="0" on="0"/>
        <pt x="489" y="46" on="0"/>
        <pt x="456" y="104" on="1"/>
        <pt x="437" y="137" on="0"/>
        <pt x="373" y="275" on="1"/>
        <pt x="345" y="336" on="0"/>
        <pt x="305" y="342" on="1"/>
        <pt x="305" y="352" on="1"/>
        <pt x="336" y="352" on="1"/>
        <pt x="439" y="353" on="0"/>
        <pt x="462" y="467" on="1"/>
        <pt x="466" y="488" on="0"/>
        <pt x="466" y="500" on="1"/>
        <pt x="466" y="582" on="0"/>
        <pt x="400" y="655" on="0"/>
        <pt x="348" y="656" on="1"/>
        <pt x="338" y="656" on="0"/>
      </contour>
    </TTGlyph>
    <TTGlyph name="Rcommaaccent" xMin="44" yMin="-243" xMax="789" yMax="701">
      <contour>
        <pt x="318" y="656" on="1"/>
        <pt x="275" y="656" on="1"/>
        <pt x="273" y="656" on="0"/>
        <pt x="272" y="656" on="1"/>
        <pt x="272" y="73" on="1"/>
        <pt x="273" y="47" on="0"/>
        <pt x="310" y="10" on="0"/>
        <pt x="336" y="10" on="1"/>
        <pt x="349" y="10" on="1"/>
        <pt x="349" y="0" on="1"/>
        <pt x="45" y="0" on="1"/>
        <pt x="45" y="10" on="1"/>
        <pt x="58" y="10" on="1"/>
        <pt x="84" y="10" on="0"/>
        <pt x="121" y="46" on="0"/>
        <pt x="122" y="72" on="1"/>
        <pt x="122" y="627" on="1"/>
        <pt x="121" y="653" on="0"/>
        <pt x="84" y="690" on="0"/>
        <pt x="58" y="690" on="1"/>
        <pt x="45" y="690" on="1"/>
        <pt x="45" y="700" on="1"/>
        <pt x="388" y="700" on="1"/>
        <pt x="485" y="700" on="0"/>
        <pt x="552" y="658" on="1"/>
        <pt x="586" y="637" on="0"/>
        <pt x="626" y="562" on="0"/>
        <pt x="626" y="441" on="0"/>
        <pt x="542" y="329" on="0"/>
        <pt x="462" y="321" on="1"/>
        <pt x="520" y="302" on="0"/>
        <pt x="564" y="233" on="1"/>
        <pt x="672" y="60" on="0"/>
        <pt x="724" y="27" on="1"/>
        <pt x="750" y="11" on="0"/>
        <pt x="789" y="10" on="1"/>
        <pt x="789" y="0" on="1"/>
        <pt x="691" y="0" on="1"/>
        <pt x="604" y="0" on="0"/>
        <pt x="489" y="46" on="0"/>
        <pt x="456" y="104" on="1"/>
        <pt x="437" y="137" on="0"/>
        <pt x="373" y="275" on="1"/>
        <pt x="345" y="336" on="0"/>
        <pt x="305" y="342" on="1"/>
        <pt x="305" y="352" on="1"/>
        <pt x="336" y="352" on="1"/>
        <pt x="381" y="352" on="0"/>
        <pt x="450" y="406" on="0"/>
        <pt x="462" y="467" on="1"/>
        <pt x="466" y="488" on="0"/>
        <pt x="466" y="500" on="1"/>
        <pt x="466" y="582" on="0"/>
        <pt x="400" y="655" on="0"/>
        <pt x="348" y="656" on="1"/>
        <pt x="338" y="656" on="0"/>
      </contour>
      <contour>
        <pt x="388" y="-234" on="1"/>
        <pt x="423" y="-221" on="0"/>
        <pt x="423" y="-188" on="1"/>
        <pt x="423" y="-169" on="0"/>
        <pt x="390" y="-131" on="0"/>
        <pt x="390" y="-86" on="0"/>
        <pt x="416" y="-59" on="0"/>
        <pt x="429" y="-59" on="1"/>
        <pt x="474" y="-59" on="0"/>
        <pt x="489" y="-93" on="1"/>
        <pt x="498" y="-117" on="0"/>
        <pt x="498" y="-136" on="1"/>
        <pt x="498" y="-193" on="0"/>
        <pt x="456" y="-224" on="1"/>
        <pt x="431" y="-243" on="0"/>
        <pt x="402" y="-243" on="1"/>
        <pt x="397" y="-243" on="0"/>
        <pt x="391" y="-242" on="1"/>
      </contour>
    </TTGlyph>
    <TTGlyph name="S" xMin="49" yMin="-14" xMax="532" yMax="715">
      <contour>
        <pt x="50" y="93" on="1"/>
        <pt x="50" y="165" on="0"/>
        <pt x="81" y="216" on="1"/>
        <pt x="90" y="216" on="1"/>
        <pt x="89" y="208" on="0"/>
        <pt x="89" y="200" on="1"/>
        <pt x="89" y="131" on="0"/>
        <pt x="188" y="28" on="0"/>
        <pt x="274" y="28" on="1"/>
        <pt x="341" y="28" on="0"/>
        <pt x="416" y="92" on="0"/>
        <pt x="416" y="141" on="1"/>
        <pt x="416" y="170" on="0"/>
        <pt x="379" y="216" on="0"/>
        <pt x="336" y="244" on="1"/>
        <pt x="162" y="359" on="1"/>
        <pt x="65" y="424" on="0"/>
        <pt x="65" y="519" on="1"/>
        <pt x="65" y="529" on="0"/>
        <pt x="67" y="539" on="1"/>
        <pt x="73" y="618" on="0"/>
        <pt x="184" y="714" on="0"/>
        <pt x="277" y="714" on="1"/>
        <pt x="332" y="714" on="0"/>
        <pt x="413" y="704" on="1"/>
        <pt x="476" y="704" on="1"/>
        <pt x="463" y="557" on="1"/>
        <pt x="453" y="557" on="1"/>
        <pt x="453" y="609" on="0"/>
        <pt x="376" y="672" on="0"/>
        <pt x="312" y="672" on="1"/>
        <pt x="234" y="672" on="0"/>
        <pt x="199" y="624" on="1"/>
        <pt x="181" y="601" on="0"/>
        <pt x="181" y="555" on="0"/>
        <pt x="190" y="539" on="1"/>
        <pt x="204" y="513" on="0"/>
        <pt x="251" y="483" on="1"/>
        <pt x="442" y="359" on="1"/>
        <pt x="532" y="300" on="0"/>
        <pt x="532" y="205" on="1"/>
        <pt x="532" y="99" on="0"/>
        <pt x="387" y="-14" on="0"/>
        <pt x="267" y="-14" on="1"/>
        <pt x="199" y="-14" on="0"/>
        <pt x="84" y="19" on="0"/>
        <pt x="57" y="47" on="1"/>
        <pt x="50" y="66" on="0"/>
      </contour>
    </TTGlyph>
    <TTGlyph name="Sacute" xMin="49" yMin="-14" xMax="532" yMax="934">
      <contour>
        <pt x="278" y="762" on="1"/>
        <pt x="271" y="769" on="1"/>
        <pt x="314" y="843" on="0"/>
        <pt x="415" y="933" on="1"/>
        <pt x="463" y="908" on="0"/>
        <pt x="483" y="852" on="1"/>
        <pt x="380" y="787" on="0"/>
      </contour>
      <contour>
        <pt x="50" y="93" on="1"/>
        <pt x="50" y="165" on="0"/>
        <pt x="81" y="216" on="1"/>
        <pt x="90" y="216" on="1"/>
        <pt x="89" y="208" on="0"/>
        <pt x="89" y="200" on="1"/>
        <pt x="89" y="131" on="0"/>
        <pt x="189" y="28" on="0"/>
        <pt x="274" y="28" on="1"/>
        <pt x="341" y="28" on="0"/>
        <pt x="416" y="92" on="0"/>
        <pt x="416" y="141" on="1"/>
        <pt x="416" y="170" on="0"/>
        <pt x="379" y="216" on="0"/>
        <pt x="336" y="244" on="1"/>
        <pt x="162" y="359" on="1"/>
        <pt x="66" y="424" on="0"/>
        <pt x="66" y="519" on="1"/>
        <pt x="66" y="529" on="0"/>
        <pt x="67" y="539" on="1"/>
        <pt x="73" y="618" on="0"/>
        <pt x="184" y="714" on="0"/>
        <pt x="277" y="714" on="1"/>
        <pt x="332" y="714" on="0"/>
        <pt x="413" y="704" on="1"/>
        <pt x="476" y="704" on="1"/>
        <pt x="463" y="557" on="1"/>
        <pt x="453" y="557" on="1"/>
        <pt x="453" y="609" on="0"/>
        <pt x="376" y="672" on="0"/>
        <pt x="312" y="672" on="1"/>
        <pt x="234" y="672" on="0"/>
        <pt x="199" y="624" on="1"/>
        <pt x="181" y="601" on="0"/>
        <pt x="181" y="547" on="0"/>
        <pt x="215" y="506" on="0"/>
        <pt x="251" y="483" on="1"/>
        <pt x="442" y="359" on="1"/>
        <pt x="532" y="300" on="0"/>
        <pt x="532" y="205" on="1"/>
        <pt x="532" y="99" on="0"/>
        <pt x="387" y="-14" on="0"/>
        <pt x="267" y="-14" on="1"/>
        <pt x="199" y="-14" on="0"/>
        <pt x="84" y="19" on="0"/>
        <pt x="57" y="47" on="1"/>
        <pt x="50" y="66" on="0"/>
      </contour>
    </TTGlyph>
    <TTGlyph name="Scaron" xMin="49" yMin="-14" xMax="532" yMax="926">
      <contour>
        <pt x="294" y="764" on="1"/>
        <pt x="283" y="764" on="1"/>
        <pt x="136" y="917" on="1"/>
        <pt x="143" y="925" on="1"/>
        <pt x="289" y="860" on="1"/>
        <pt x="426" y="925" on="1"/>
        <pt x="433" y="917" on="1"/>
      </contour>
      <contour>
        <pt x="50" y="93" on="1"/>
        <pt x="50" y="165" on="0"/>
        <pt x="81" y="216" on="1"/>
        <pt x="90" y="216" on="1"/>
        <pt x="89" y="208" on="0"/>
        <pt x="89" y="200" on="1"/>
        <pt x="89" y="131" on="0"/>
        <pt x="189" y="28" on="0"/>
        <pt x="274" y="28" on="1"/>
        <pt x="341" y="28" on="0"/>
        <pt x="416" y="92" on="0"/>
        <pt x="416" y="141" on="1"/>
        <pt x="416" y="170" on="0"/>
        <pt x="379" y="216" on="0"/>
        <pt x="336" y="244" on="1"/>
        <pt x="162" y="359" on="1"/>
        <pt x="65" y="424" on="0"/>
        <pt x="65" y="519" on="1"/>
        <pt x="65" y="529" on="0"/>
        <pt x="66" y="539" on="1"/>
        <pt x="73" y="618" on="0"/>
        <pt x="184" y="714" on="0"/>
        <pt x="277" y="714" on="1"/>
        <pt x="332" y="714" on="0"/>
        <pt x="413" y="704" on="1"/>
        <pt x="476" y="704" on="1"/>
        <pt x="463" y="557" on="1"/>
        <pt x="453" y="557" on="1"/>
        <pt x="453" y="609" on="0"/>
        <pt x="376" y="672" on="0"/>
        <pt x="312" y="672" on="1"/>
        <pt x="234" y="672" on="0"/>
        <pt x="199" y="624" on="1"/>
        <pt x="181" y="601" on="0"/>
        <pt x="181" y="547" on="0"/>
        <pt x="215" y="506" on="0"/>
        <pt x="251" y="483" on="1"/>
        <pt x="442" y="359" on="1"/>
        <pt x="532" y="300" on="0"/>
        <pt x="532" y="205" on="1"/>
        <pt x="532" y="99" on="0"/>
        <pt x="387" y="-14" on="0"/>
        <pt x="267" y="-14" on="1"/>
        <pt x="199" y="-14" on="0"/>
        <pt x="84" y="19" on="0"/>
        <pt x="57" y="47" on="1"/>
        <pt x="50" y="66" on="0"/>
      </contour>
    </TTGlyph>
    <TTGlyph name="Scedilla" xMin="49" yMin="-211" xMax="532" yMax="715">
      <contour>
        <pt x="50" y="93" on="1"/>
        <pt x="50" y="165" on="0"/>
        <pt x="81" y="216" on="1"/>
        <pt x="90" y="216" on="1"/>
        <pt x="89" y="208" on="0"/>
        <pt x="89" y="200" on="1"/>
        <pt x="89" y="131" on="0"/>
        <pt x="189" y="28" on="0"/>
        <pt x="274" y="28" on="1"/>
        <pt x="341" y="28" on="0"/>
        <pt x="416" y="92" on="0"/>
        <pt x="416" y="141" on="1"/>
        <pt x="416" y="184" on="0"/>
        <pt x="366" y="223" on="1"/>
        <pt x="353" y="233" on="0"/>
        <pt x="336" y="244" on="1"/>
        <pt x="162" y="359" on="1"/>
        <pt x="65" y="424" on="0"/>
        <pt x="65" y="519" on="1"/>
        <pt x="65" y="529" on="0"/>
        <pt x="67" y="539" on="1"/>
        <pt x="73" y="618" on="0"/>
        <pt x="184" y="714" on="0"/>
        <pt x="277" y="714" on="1"/>
        <pt x="332" y="714" on="0"/>
        <pt x="413" y="704" on="1"/>
        <pt x="476" y="704" on="1"/>
        <pt x="463" y="557" on="1"/>
        <pt x="453" y="557" on="1"/>
        <pt x="453" y="609" on="0"/>
        <pt x="376" y="672" on="0"/>
        <pt x="312" y="672" on="1"/>
        <pt x="234" y="672" on="0"/>
        <pt x="199" y="624" on="1"/>
        <pt x="181" y="601" on="0"/>
        <pt x="181" y="555" on="0"/>
        <pt x="190" y="539" on="1"/>
        <pt x="204" y="513" on="0"/>
        <pt x="251" y="483" on="1"/>
        <pt x="442" y="359" on="1"/>
        <pt x="532" y="300" on="0"/>
        <pt x="532" y="205" on="1"/>
        <pt x="532" y="107" on="0"/>
        <pt x="467" y="49" on="1"/>
        <pt x="407" y="-5" on="0"/>
        <pt x="301" y="-13" on="1"/>
        <pt x="260" y="-61" on="1"/>
        <pt x="275" y="-56" on="0"/>
        <pt x="294" y="-56" on="1"/>
        <pt x="342" y="-56" on="0"/>
        <pt x="362" y="-82" on="1"/>
        <pt x="373" y="-96" on="0"/>
        <pt x="373" y="-118" on="1"/>
        <pt x="373" y="-171" on="0"/>
        <pt x="316" y="-197" on="1"/>
        <pt x="286" y="-211" on="0"/>
        <pt x="229" y="-211" on="0"/>
        <pt x="204" y="-202" on="1"/>
        <pt x="204" y="-192" on="1"/>
        <pt x="241" y="-192" on="0"/>
        <pt x="303" y="-155" on="0"/>
        <pt x="303" y="-118" on="1"/>
        <pt x="303" y="-100" on="0"/>
        <pt x="272" y="-78" on="0"/>
        <pt x="231" y="-78" on="0"/>
        <pt x="211" y="-85" on="1"/>
        <pt x="206" y="-75" on="1"/>
        <pt x="253" y="-14" on="1"/>
        <pt x="188" y="-12" on="0"/>
        <pt x="83" y="20" on="0"/>
        <pt x="57" y="47" on="1"/>
        <pt x="50" y="66" on="0"/>
      </contour>
    </TTGlyph>
    <TTGlyph name="Scommaaccent" xMin="43" yMin="-248" xMax="526" yMax="715">
      <contour>
        <pt x="44" y="92" on="1"/>
        <pt x="44" y="158" on="0"/>
        <pt x="73" y="209" on="1"/>
        <pt x="82" y="209" on="1"/>
        <pt x="82" y="204" on="0"/>
        <pt x="82" y="200" on="1"/>
        <pt x="82" y="130" on="0"/>
        <pt x="186" y="28" on="0"/>
        <pt x="275" y="28" on="1"/>
        <pt x="339" y="29" on="0"/>
        <pt x="410" y="92" on="0"/>
        <pt x="410" y="140" on="1"/>
        <pt x="410" y="169" on="0"/>
        <pt x="373" y="216" on="0"/>
        <pt x="330" y="244" on="1"/>
        <pt x="156" y="360" on="1"/>
        <pt x="59" y="424" on="0"/>
        <pt x="59" y="520" on="1"/>
        <pt x="59" y="584" on="0"/>
        <pt x="88" y="628" on="1"/>
        <pt x="146" y="714" on="0"/>
        <pt x="266" y="714" on="1"/>
        <pt x="336" y="714" on="0"/>
        <pt x="412" y="704" on="1"/>
        <pt x="469" y="704" on="1"/>
        <pt x="456" y="563" on="1"/>
        <pt x="447" y="563" on="1"/>
        <pt x="446" y="587" on="0"/>
        <pt x="433" y="610" on="1"/>
        <pt x="397" y="672" on="0"/>
        <pt x="302" y="672" on="1"/>
        <pt x="247" y="672" on="0"/>
        <pt x="174" y="615" on="0"/>
        <pt x="174" y="571" on="1"/>
        <pt x="174" y="546" on="0"/>
        <pt x="208" y="505" on="0"/>
        <pt x="244" y="482" on="1"/>
        <pt x="435" y="358" on="1"/>
        <pt x="525" y="300" on="0"/>
        <pt x="525" y="205" on="1"/>
        <pt x="525" y="99" on="0"/>
        <pt x="381" y="-14" on="0"/>
        <pt x="262" y="-14" on="1"/>
        <pt x="191" y="-14" on="0"/>
        <pt x="77" y="19" on="0"/>
        <pt x="50" y="47" on="1"/>
        <pt x="44" y="67" on="0"/>
      </contour>
      <contour>
        <pt x="225" y="-239" on="1"/>
        <pt x="259" y="-226" on="0"/>
        <pt x="259" y="-193" on="1"/>
        <pt x="259" y="-175" on="0"/>
        <pt x="227" y="-136" on="0"/>
        <pt x="227" y="-92" on="0"/>
        <pt x="253" y="-64" on="0"/>
        <pt x="266" y="-64" on="1"/>
        <pt x="311" y="-64" on="0"/>
        <pt x="326" y="-98" on="1"/>
        <pt x="335" y="-122" on="0"/>
        <pt x="335" y="-141" on="1"/>
        <pt x="335" y="-198" on="0"/>
        <pt x="293" y="-230" on="1"/>
        <pt x="268" y="-248" on="0"/>
        <pt x="240" y="-248" on="1"/>
        <pt x="234" y="-248" on="0"/>
        <pt x="228" y="-247" on="1"/>
      </contour>
    </TTGlyph>
    <TTGlyph name="T" xMin="13" yMin="-1" xMax="654" yMax="720">
      <contour>
        <pt x="409" y="659" on="1"/>
        <pt x="409" y="72" on="1"/>
        <pt x="410" y="46" on="0"/>
        <pt x="447" y="10" on="0"/>
        <pt x="473" y="10" on="1"/>
        <pt x="485" y="10" on="1"/>
        <pt x="486" y="0" on="1"/>
        <pt x="182" y="0" on="1"/>
        <pt x="182" y="10" on="1"/>
        <pt x="195" y="10" on="1"/>
        <pt x="220" y="10" on="0"/>
        <pt x="257" y="46" on="0"/>
        <pt x="259" y="71" on="1"/>
        <pt x="259" y="659" on="1"/>
        <pt x="124" y="659" on="1"/>
        <pt x="78" y="658" on="0"/>
        <pt x="24" y="602" on="0"/>
        <pt x="24" y="557" on="1"/>
        <pt x="24" y="545" on="1"/>
        <pt x="14" y="545" on="1"/>
        <pt x="14" y="719" on="1"/>
        <pt x="55" y="702" on="0"/>
        <pt x="132" y="701" on="1"/>
        <pt x="535" y="701" on="1"/>
        <pt x="566" y="701" on="0"/>
        <pt x="639" y="713" on="0"/>
        <pt x="653" y="719" on="1"/>
        <pt x="653" y="545" on="1"/>
        <pt x="643" y="545" on="1"/>
        <pt x="643" y="557" on="1"/>
        <pt x="643" y="619" on="0"/>
        <pt x="596" y="645" on="1"/>
        <pt x="574" y="658" on="0"/>
        <pt x="543" y="659" on="1"/>
      </contour>
    </TTGlyph>
    <TTGlyph name="Tbar" xMin="13" yMin="-1" xMax="654" yMax="720">
      <contour>
        <pt x="409" y="659" on="1"/>
        <pt x="409" y="402" on="1"/>
        <pt x="564" y="402" on="1"/>
        <pt x="564" y="360" on="1"/>
        <pt x="409" y="360" on="1"/>
        <pt x="409" y="72" on="1"/>
        <pt x="410" y="46" on="0"/>
        <pt x="447" y="10" on="0"/>
        <pt x="473" y="10" on="1"/>
        <pt x="485" y="10" on="1"/>
        <pt x="486" y="0" on="1"/>
        <pt x="182" y="0" on="1"/>
        <pt x="182" y="10" on="1"/>
        <pt x="195" y="10" on="1"/>
        <pt x="220" y="10" on="0"/>
        <pt x="257" y="46" on="0"/>
        <pt x="259" y="71" on="1"/>
        <pt x="259" y="360" on="1"/>
        <pt x="104" y="360" on="1"/>
        <pt x="104" y="402" on="1"/>
        <pt x="259" y="402" on="1"/>
        <pt x="259" y="659" on="1"/>
        <pt x="124" y="659" on="1"/>
        <pt x="78" y="658" on="0"/>
        <pt x="24" y="602" on="0"/>
        <pt x="24" y="557" on="1"/>
        <pt x="24" y="545" on="1"/>
        <pt x="14" y="545" on="1"/>
        <pt x="14" y="719" on="1"/>
        <pt x="55" y="702" on="0"/>
        <pt x="132" y="701" on="1"/>
        <pt x="535" y="701" on="1"/>
        <pt x="566" y="701" on="0"/>
        <pt x="639" y="713" on="0"/>
        <pt x="653" y="719" on="1"/>
        <pt x="653" y="545" on="1"/>
        <pt x="643" y="545" on="1"/>
        <pt x="643" y="557" on="1"/>
        <pt x="643" y="602" on="0"/>
        <pt x="589" y="658" on="0"/>
        <pt x="543" y="659" on="1"/>
      </contour>
    </TTGlyph>
    <TTGlyph name="Tcaron" xMin="13" yMin="-1" xMax="654" yMax="926">
      <contour>
        <pt x="340" y="764" on="1"/>
        <pt x="329" y="764" on="1"/>
        <pt x="181" y="917" on="1"/>
        <pt x="188" y="925" on="1"/>
        <pt x="335" y="860" on="1"/>
        <pt x="472" y="925" on="1"/>
        <pt x="478" y="917" on="1"/>
      </contour>
      <contour>
        <pt x="409" y="659" on="1"/>
        <pt x="409" y="72" on="1"/>
        <pt x="410" y="46" on="0"/>
        <pt x="447" y="10" on="0"/>
        <pt x="473" y="10" on="1"/>
        <pt x="485" y="10" on="1"/>
        <pt x="486" y="0" on="1"/>
        <pt x="182" y="0" on="1"/>
        <pt x="182" y="10" on="1"/>
        <pt x="195" y="10" on="1"/>
        <pt x="220" y="10" on="0"/>
        <pt x="257" y="46" on="0"/>
        <pt x="259" y="71" on="1"/>
        <pt x="259" y="659" on="1"/>
        <pt x="124" y="659" on="1"/>
        <pt x="78" y="658" on="0"/>
        <pt x="24" y="602" on="0"/>
        <pt x="24" y="557" on="1"/>
        <pt x="24" y="545" on="1"/>
        <pt x="14" y="545" on="1"/>
        <pt x="14" y="719" on="1"/>
        <pt x="55" y="702" on="0"/>
        <pt x="132" y="701" on="1"/>
        <pt x="535" y="701" on="1"/>
        <pt x="566" y="701" on="0"/>
        <pt x="639" y="713" on="0"/>
        <pt x="653" y="719" on="1"/>
        <pt x="653" y="545" on="1"/>
        <pt x="643" y="545" on="1"/>
        <pt x="643" y="557" on="1"/>
        <pt x="643" y="603" on="0"/>
        <pt x="589" y="658" on="0"/>
        <pt x="543" y="659" on="1"/>
      </contour>
    </TTGlyph>
    <TTGlyph name="Tcedilla" xMin="13" yMin="-198" xMax="654" yMax="720">
      <contour>
        <pt x="354" y="-105" on="1"/>
        <pt x="354" y="-87" on="0"/>
        <pt x="323" y="-65" on="0"/>
        <pt x="282" y="-65" on="0"/>
        <pt x="261" y="-72" on="1"/>
        <pt x="256" y="-62" on="1"/>
        <pt x="304" y="0" on="1"/>
        <pt x="182" y="0" on="1"/>
        <pt x="182" y="10" on="1"/>
        <pt x="195" y="10" on="1"/>
        <pt x="220" y="10" on="0"/>
        <pt x="257" y="46" on="0"/>
        <pt x="259" y="71" on="1"/>
        <pt x="259" y="659" on="1"/>
        <pt x="124" y="659" on="1"/>
        <pt x="78" y="658" on="0"/>
        <pt x="24" y="602" on="0"/>
        <pt x="24" y="557" on="1"/>
        <pt x="24" y="545" on="1"/>
        <pt x="14" y="545" on="1"/>
        <pt x="14" y="719" on="1"/>
        <pt x="55" y="702" on="0"/>
        <pt x="132" y="701" on="1"/>
        <pt x="535" y="701" on="1"/>
        <pt x="566" y="701" on="0"/>
        <pt x="639" y="713" on="0"/>
        <pt x="653" y="719" on="1"/>
        <pt x="653" y="545" on="1"/>
        <pt x="643" y="545" on="1"/>
        <pt x="643" y="557" on="1"/>
        <pt x="643" y="603" on="0"/>
        <pt x="589" y="658" on="0"/>
        <pt x="543" y="659" on="1"/>
        <pt x="409" y="659" on="1"/>
        <pt x="409" y="72" on="1"/>
        <pt x="410" y="46" on="0"/>
        <pt x="447" y="10" on="0"/>
        <pt x="473" y="10" on="1"/>
        <pt x="486" y="10" on="1"/>
        <pt x="486" y="0" on="1"/>
        <pt x="352" y="0" on="1"/>
        <pt x="311" y="-48" on="1"/>
        <pt x="342" y="-37" on="0"/>
        <pt x="371" y="-45" on="1"/>
        <pt x="424" y="-59" on="0"/>
        <pt x="424" y="-158" on="0"/>
        <pt x="367" y="-184" on="1"/>
        <pt x="337" y="-198" on="0"/>
        <pt x="280" y="-198" on="0"/>
        <pt x="254" y="-189" on="1"/>
        <pt x="255" y="-179" on="1"/>
        <pt x="292" y="-179" on="0"/>
        <pt x="354" y="-142" on="0"/>
      </contour>
    </TTGlyph>
    <TTGlyph name="Thorn" xMin="42" yMin="-1" xMax="619" yMax="701">
      <contour>
        <pt x="619" y="354" on="1"/>
        <pt x="619" y="308" on="0"/>
        <pt x="601" y="267" on="1"/>
        <pt x="567" y="189" on="0"/>
        <pt x="475" y="159" on="1"/>
        <pt x="449" y="150" on="0"/>
        <pt x="426" y="150" on="1"/>
        <pt x="356" y="150" on="0"/>
        <pt x="299" y="187" on="1"/>
        <pt x="299" y="197" on="1"/>
        <pt x="306" y="196" on="0"/>
        <pt x="312" y="196" on="1"/>
        <pt x="360" y="196" on="0"/>
        <pt x="439" y="255" on="0"/>
        <pt x="454" y="311" on="1"/>
        <pt x="461" y="335" on="0"/>
        <pt x="461" y="366" on="0"/>
        <pt x="459" y="403" on="0"/>
        <pt x="441" y="455" on="0"/>
        <pt x="425" y="473" on="1"/>
        <pt x="391" y="512" on="0"/>
        <pt x="332" y="512" on="1"/>
        <pt x="270" y="512" on="1"/>
        <pt x="270" y="73" on="1"/>
        <pt x="270" y="47" on="0"/>
        <pt x="307" y="10" on="0"/>
        <pt x="334" y="10" on="1"/>
        <pt x="346" y="10" on="1"/>
        <pt x="346" y="0" on="1"/>
        <pt x="43" y="0" on="1"/>
        <pt x="43" y="10" on="1"/>
        <pt x="55" y="10" on="1"/>
        <pt x="82" y="10" on="0"/>
        <pt x="119" y="47" on="0"/>
        <pt x="120" y="73" on="1"/>
        <pt x="120" y="628" on="1"/>
        <pt x="119" y="654" on="0"/>
        <pt x="82" y="690" on="0"/>
        <pt x="56" y="690" on="1"/>
        <pt x="43" y="690" on="1"/>
        <pt x="43" y="700" on="1"/>
        <pt x="346" y="700" on="1"/>
        <pt x="346" y="690" on="1"/>
        <pt x="334" y="690" on="1"/>
        <pt x="308" y="690" on="0"/>
        <pt x="270" y="654" on="0"/>
        <pt x="270" y="628" on="1"/>
        <pt x="270" y="554" on="1"/>
        <pt x="372" y="554" on="1"/>
        <pt x="495" y="554" on="0"/>
        <pt x="555" y="502" on="1"/>
        <pt x="619" y="447" on="0"/>
      </contour>
    </TTGlyph>
    <TTGlyph name="U" xMin="37" yMin="-15" xMax="790" yMax="701">
      <contour>
        <pt x="790" y="690" on="1"/>
        <pt x="773" y="690" on="1"/>
        <pt x="752" y="690" on="0"/>
        <pt x="722" y="663" on="0"/>
        <pt x="721" y="643" on="1"/>
        <pt x="721" y="253" on="1"/>
        <pt x="721" y="130" on="0"/>
        <pt x="567" y="-14" on="0"/>
        <pt x="433" y="-14" on="1"/>
        <pt x="275" y="-14" on="0"/>
        <pt x="107" y="127" on="0"/>
        <pt x="107" y="252" on="1"/>
        <pt x="107" y="640" on="1"/>
        <pt x="106" y="670" on="0"/>
        <pt x="80" y="684" on="1"/>
        <pt x="68" y="690" on="0"/>
        <pt x="54" y="690" on="1"/>
        <pt x="38" y="690" on="1"/>
        <pt x="38" y="700" on="1"/>
        <pt x="326" y="700" on="1"/>
        <pt x="326" y="690" on="1"/>
        <pt x="310" y="690" on="1"/>
        <pt x="288" y="690" on="0"/>
        <pt x="258" y="663" on="0"/>
        <pt x="257" y="642" on="1"/>
        <pt x="257" y="260" on="1"/>
        <pt x="257" y="154" on="0"/>
        <pt x="361" y="30" on="0"/>
        <pt x="543" y="30" on="0"/>
        <pt x="649" y="147" on="0"/>
        <pt x="650" y="247" on="1"/>
        <pt x="650" y="642" on="1"/>
        <pt x="648" y="671" on="0"/>
        <pt x="623" y="684" on="1"/>
        <pt x="611" y="690" on="0"/>
        <pt x="597" y="690" on="1"/>
        <pt x="581" y="690" on="1"/>
        <pt x="581" y="700" on="1"/>
        <pt x="790" y="700" on="1"/>
      </contour>
    </TTGlyph>
    <TTGlyph name="Uacute" xMin="37" yMin="-14" xMax="790" yMax="934">
      <contour>
        <pt x="441" y="762" on="1"/>
        <pt x="434" y="769" on="1"/>
        <pt x="477" y="843" on="0"/>
        <pt x="578" y="933" on="1"/>
        <pt x="626" y="908" on="0"/>
        <pt x="645" y="852" on="1"/>
        <pt x="543" y="787" on="0"/>
      </contour>
      <contour>
        <pt x="790" y="690" on="1"/>
        <pt x="773" y="690" on="1"/>
        <pt x="752" y="690" on="0"/>
        <pt x="722" y="663" on="0"/>
        <pt x="721" y="643" on="1"/>
        <pt x="721" y="253" on="1"/>
        <pt x="721" y="130" on="0"/>
        <pt x="567" y="-14" on="0"/>
        <pt x="433" y="-14" on="1"/>
        <pt x="275" y="-14" on="0"/>
        <pt x="107" y="127" on="0"/>
        <pt x="107" y="252" on="1"/>
        <pt x="107" y="641" on="1"/>
        <pt x="107" y="662" on="0"/>
        <pt x="76" y="690" on="0"/>
        <pt x="54" y="690" on="1"/>
        <pt x="38" y="690" on="1"/>
        <pt x="38" y="700" on="1"/>
        <pt x="326" y="700" on="1"/>
        <pt x="326" y="690" on="1"/>
        <pt x="310" y="690" on="1"/>
        <pt x="288" y="690" on="0"/>
        <pt x="258" y="663" on="0"/>
        <pt x="257" y="642" on="1"/>
        <pt x="257" y="260" on="1"/>
        <pt x="257" y="154" on="0"/>
        <pt x="361" y="30" on="0"/>
        <pt x="543" y="30" on="0"/>
        <pt x="649" y="147" on="0"/>
        <pt x="650" y="247" on="1"/>
        <pt x="650" y="642" on="1"/>
        <pt x="648" y="671" on="0"/>
        <pt x="623" y="684" on="1"/>
        <pt x="611" y="690" on="0"/>
        <pt x="597" y="690" on="1"/>
        <pt x="581" y="690" on="1"/>
        <pt x="581" y="700" on="1"/>
        <pt x="790" y="700" on="1"/>
      </contour>
    </TTGlyph>
    <TTGlyph name="Ucircumflex" xMin="37" yMin="-15" xMax="790" yMax="916">
      <contour>
        <pt x="445" y="915" on="1"/>
        <pt x="456" y="915" on="1"/>
        <pt x="609" y="762" on="1"/>
        <pt x="602" y="754" on="1"/>
        <pt x="450" y="819" on="1"/>
        <pt x="307" y="754" on="1"/>
        <pt x="300" y="762" on="1"/>
      </contour>
      <contour>
        <pt x="790" y="690" on="1"/>
        <pt x="774" y="690" on="1"/>
        <pt x="752" y="690" on="0"/>
        <pt x="722" y="663" on="0"/>
        <pt x="721" y="643" on="1"/>
        <pt x="721" y="253" on="1"/>
        <pt x="721" y="130" on="0"/>
        <pt x="567" y="-14" on="0"/>
        <pt x="433" y="-14" on="1"/>
        <pt x="275" y="-14" on="0"/>
        <pt x="107" y="127" on="0"/>
        <pt x="107" y="252" on="1"/>
        <pt x="107" y="640" on="1"/>
        <pt x="107" y="662" on="0"/>
        <pt x="76" y="690" on="0"/>
        <pt x="54" y="690" on="1"/>
        <pt x="38" y="690" on="1"/>
        <pt x="38" y="700" on="1"/>
        <pt x="326" y="700" on="1"/>
        <pt x="326" y="690" on="1"/>
        <pt x="310" y="690" on="1"/>
        <pt x="288" y="690" on="0"/>
        <pt x="258" y="663" on="0"/>
        <pt x="257" y="642" on="1"/>
        <pt x="257" y="260" on="1"/>
        <pt x="257" y="154" on="0"/>
        <pt x="361" y="30" on="0"/>
        <pt x="451" y="30" on="1"/>
        <pt x="512" y="30" on="0"/>
        <pt x="601" y="82" on="0"/>
        <pt x="650" y="181" on="0"/>
        <pt x="650" y="247" on="1"/>
        <pt x="650" y="642" on="1"/>
        <pt x="648" y="671" on="0"/>
        <pt x="623" y="684" on="1"/>
        <pt x="611" y="690" on="0"/>
        <pt x="597" y="690" on="1"/>
        <pt x="581" y="690" on="1"/>
        <pt x="581" y="700" on="1"/>
        <pt x="790" y="700" on="1"/>
      </contour>
    </TTGlyph>
    <TTGlyph name="Udieresis" xMin="37" yMin="-15" xMax="790" yMax="880">
      <contour>
        <pt x="357" y="759" on="0"/>
        <pt x="307" y="759" on="0"/>
        <pt x="272" y="794" on="0"/>
        <pt x="272" y="844" on="0"/>
        <pt x="307" y="879" on="0"/>
        <pt x="357" y="879" on="0"/>
        <pt x="392" y="844" on="0"/>
        <pt x="392" y="794" on="0"/>
      </contour>
      <contour>
        <pt x="590" y="759" on="0"/>
        <pt x="541" y="759" on="0"/>
        <pt x="506" y="794" on="0"/>
        <pt x="506" y="844" on="0"/>
        <pt x="541" y="879" on="0"/>
        <pt x="590" y="879" on="0"/>
        <pt x="626" y="844" on="0"/>
        <pt x="626" y="794" on="0"/>
      </contour>
      <contour>
        <pt x="790" y="690" on="1"/>
        <pt x="773" y="690" on="1"/>
        <pt x="735" y="690" on="0"/>
        <pt x="723" y="656" on="1"/>
        <pt x="721" y="650" on="0"/>
        <pt x="721" y="643" on="1"/>
        <pt x="721" y="253" on="1"/>
        <pt x="721" y="130" on="0"/>
        <pt x="567" y="-14" on="0"/>
        <pt x="433" y="-14" on="1"/>
        <pt x="275" y="-14" on="0"/>
        <pt x="107" y="127" on="0"/>
        <pt x="107" y="252" on="1"/>
        <pt x="107" y="640" on="1"/>
        <pt x="106" y="670" on="0"/>
        <pt x="80" y="684" on="1"/>
        <pt x="68" y="690" on="0"/>
        <pt x="54" y="690" on="1"/>
        <pt x="38" y="690" on="1"/>
        <pt x="38" y="700" on="1"/>
        <pt x="326" y="700" on="1"/>
        <pt x="326" y="690" on="1"/>
        <pt x="310" y="690" on="1"/>
        <pt x="288" y="690" on="0"/>
        <pt x="258" y="663" on="0"/>
        <pt x="257" y="642" on="1"/>
        <pt x="257" y="260" on="1"/>
        <pt x="257" y="154" on="0"/>
        <pt x="361" y="30" on="0"/>
        <pt x="543" y="30" on="0"/>
        <pt x="649" y="147" on="0"/>
        <pt x="650" y="247" on="1"/>
        <pt x="650" y="642" on="1"/>
        <pt x="648" y="671" on="0"/>
        <pt x="623" y="684" on="1"/>
        <pt x="611" y="690" on="0"/>
        <pt x="597" y="690" on="1"/>
        <pt x="581" y="690" on="1"/>
        <pt x="581" y="700" on="1"/>
        <pt x="790" y="700" on="1"/>
      </contour>
    </TTGlyph>
    <TTGlyph name="Ugrave" xMin="37" yMin="-15" xMax="790" yMax="936">
      <contour>
        <pt x="470" y="771" on="1"/>
        <pt x="463" y="764" on="1"/>
        <pt x="363" y="788" on="0"/>
        <pt x="259" y="854" on="1"/>
        <pt x="278" y="911" on="0"/>
        <pt x="326" y="935" on="1"/>
        <pt x="428" y="844" on="0"/>
      </contour>
      <contour>
        <pt x="790" y="690" on="1"/>
        <pt x="774" y="690" on="1"/>
        <pt x="752" y="690" on="0"/>
        <pt x="722" y="663" on="0"/>
        <pt x="721" y="643" on="1"/>
        <pt x="721" y="253" on="1"/>
        <pt x="721" y="130" on="0"/>
        <pt x="567" y="-14" on="0"/>
        <pt x="433" y="-14" on="1"/>
        <pt x="275" y="-14" on="0"/>
        <pt x="107" y="127" on="0"/>
        <pt x="107" y="252" on="1"/>
        <pt x="107" y="640" on="1"/>
        <pt x="107" y="662" on="0"/>
        <pt x="76" y="690" on="0"/>
        <pt x="54" y="690" on="1"/>
        <pt x="38" y="690" on="1"/>
        <pt x="38" y="700" on="1"/>
        <pt x="326" y="700" on="1"/>
        <pt x="326" y="690" on="1"/>
        <pt x="310" y="690" on="1"/>
        <pt x="288" y="690" on="0"/>
        <pt x="258" y="663" on="0"/>
        <pt x="257" y="642" on="1"/>
        <pt x="257" y="260" on="1"/>
        <pt x="257" y="154" on="0"/>
        <pt x="361" y="30" on="0"/>
        <pt x="451" y="30" on="1"/>
        <pt x="512" y="30" on="0"/>
        <pt x="601" y="82" on="0"/>
        <pt x="650" y="181" on="0"/>
        <pt x="650" y="247" on="1"/>
        <pt x="650" y="642" on="1"/>
        <pt x="648" y="671" on="0"/>
        <pt x="623" y="684" on="1"/>
        <pt x="611" y="690" on="0"/>
        <pt x="597" y="690" on="1"/>
        <pt x="581" y="690" on="1"/>
        <pt x="581" y="700" on="1"/>
        <pt x="790" y="700" on="1"/>
      </contour>
    </TTGlyph>
    <TTGlyph name="Uhungarumlaut" xMin="37" yMin="-15" xMax="790" yMax="935">
      <contour>
        <pt x="353" y="766" on="1"/>
        <pt x="344" y="771" on="1"/>
        <pt x="371" y="832" on="0"/>
        <pt x="465" y="935" on="1"/>
        <pt x="516" y="917" on="0"/>
        <pt x="540" y="869" on="1"/>
        <pt x="452" y="800" on="0"/>
      </contour>
      <contour>
        <pt x="529" y="766" on="1"/>
        <pt x="520" y="771" on="1"/>
        <pt x="548" y="836" on="0"/>
        <pt x="640" y="935" on="1"/>
        <pt x="692" y="918" on="0"/>
        <pt x="716" y="869" on="1"/>
        <pt x="626" y="799" on="0"/>
      </contour>
      <contour>
        <pt x="790" y="690" on="1"/>
        <pt x="774" y="690" on="1"/>
        <pt x="752" y="690" on="0"/>
        <pt x="722" y="663" on="0"/>
        <pt x="721" y="643" on="1"/>
        <pt x="721" y="253" on="1"/>
        <pt x="721" y="130" on="0"/>
        <pt x="567" y="-14" on="0"/>
        <pt x="433" y="-14" on="1"/>
        <pt x="275" y="-14" on="0"/>
        <pt x="107" y="127" on="0"/>
        <pt x="107" y="252" on="1"/>
        <pt x="107" y="640" on="1"/>
        <pt x="107" y="662" on="0"/>
        <pt x="76" y="690" on="0"/>
        <pt x="54" y="690" on="1"/>
        <pt x="38" y="690" on="1"/>
        <pt x="38" y="700" on="1"/>
        <pt x="326" y="700" on="1"/>
        <pt x="326" y="690" on="1"/>
        <pt x="310" y="690" on="1"/>
        <pt x="288" y="690" on="0"/>
        <pt x="258" y="663" on="0"/>
        <pt x="257" y="642" on="1"/>
        <pt x="257" y="260" on="1"/>
        <pt x="257" y="154" on="0"/>
        <pt x="361" y="30" on="0"/>
        <pt x="543" y="30" on="0"/>
        <pt x="649" y="147" on="0"/>
        <pt x="650" y="247" on="1"/>
        <pt x="650" y="642" on="1"/>
        <pt x="648" y="671" on="0"/>
        <pt x="623" y="684" on="1"/>
        <pt x="611" y="690" on="0"/>
        <pt x="597" y="690" on="1"/>
        <pt x="581" y="690" on="1"/>
        <pt x="581" y="700" on="1"/>
        <pt x="790" y="700" on="1"/>
      </contour>
    </TTGlyph>
    <TTGlyph name="Umacron" xMin="37" yMin="-15" xMax="790" yMax="861">
      <contour>
        <pt x="317" y="795" on="1"/>
        <pt x="317" y="861" on="1"/>
        <pt x="591" y="861" on="1"/>
        <pt x="591" y="795" on="1"/>
      </contour>
      <contour>
        <pt x="790" y="690" on="1"/>
        <pt x="773" y="690" on="1"/>
        <pt x="752" y="690" on="0"/>
        <pt x="722" y="663" on="0"/>
        <pt x="721" y="643" on="1"/>
        <pt x="721" y="253" on="1"/>
        <pt x="721" y="130" on="0"/>
        <pt x="567" y="-14" on="0"/>
        <pt x="433" y="-14" on="1"/>
        <pt x="275" y="-14" on="0"/>
        <pt x="107" y="127" on="0"/>
        <pt x="107" y="252" on="1"/>
        <pt x="107" y="640" on="1"/>
        <pt x="107" y="662" on="0"/>
        <pt x="76" y="690" on="0"/>
        <pt x="54" y="690" on="1"/>
        <pt x="38" y="690" on="1"/>
        <pt x="38" y="700" on="1"/>
        <pt x="326" y="700" on="1"/>
        <pt x="326" y="690" on="1"/>
        <pt x="310" y="690" on="1"/>
        <pt x="288" y="690" on="0"/>
        <pt x="258" y="663" on="0"/>
        <pt x="257" y="642" on="1"/>
        <pt x="257" y="260" on="1"/>
        <pt x="257" y="154" on="0"/>
        <pt x="361" y="30" on="0"/>
        <pt x="543" y="30" on="0"/>
        <pt x="649" y="147" on="0"/>
        <pt x="650" y="247" on="1"/>
        <pt x="650" y="642" on="1"/>
        <pt x="648" y="671" on="0"/>
        <pt x="623" y="684" on="1"/>
        <pt x="611" y="690" on="0"/>
        <pt x="597" y="690" on="1"/>
        <pt x="581" y="690" on="1"/>
        <pt x="581" y="700" on="1"/>
        <pt x="790" y="700" on="1"/>
      </contour>
    </TTGlyph>
    <TTGlyph name="Uogonek" xMin="37" yMin="-204" xMax="790" yMax="701">
      <contour>
        <pt x="790" y="690" on="1"/>
        <pt x="773" y="690" on="1"/>
        <pt x="744" y="690" on="0"/>
        <pt x="729" y="667" on="1"/>
        <pt x="721" y="656" on="0"/>
        <pt x="721" y="643" on="1"/>
        <pt x="721" y="253" on="1"/>
        <pt x="721" y="138" on="0"/>
        <pt x="587" y="-3" on="0"/>
        <pt x="468" y="-13" on="1"/>
        <pt x="404" y="-29" on="0"/>
        <pt x="404" y="-84" on="1"/>
        <pt x="404" y="-134" on="0"/>
        <pt x="445" y="-150" on="1"/>
        <pt x="457" y="-154" on="0"/>
        <pt x="494" y="-154" on="0"/>
        <pt x="520" y="-132" on="1"/>
        <pt x="526" y="-138" on="1"/>
        <pt x="521" y="-171" on="0"/>
        <pt x="498" y="-191" on="1"/>
        <pt x="457" y="-227" on="0"/>
        <pt x="391" y="-203" on="1"/>
        <pt x="364" y="-193" on="0"/>
        <pt x="333" y="-142" on="0"/>
        <pt x="333" y="-113" on="1"/>
        <pt x="333" y="-71" on="0"/>
        <pt x="380" y="-23" on="0"/>
        <pt x="413" y="-14" on="1"/>
        <pt x="264" y="-9" on="0"/>
        <pt x="107" y="131" on="0"/>
        <pt x="107" y="252" on="1"/>
        <pt x="107" y="640" on="1"/>
        <pt x="106" y="670" on="0"/>
        <pt x="80" y="684" on="1"/>
        <pt x="68" y="690" on="0"/>
        <pt x="54" y="690" on="1"/>
        <pt x="38" y="690" on="1"/>
        <pt x="38" y="700" on="1"/>
        <pt x="326" y="700" on="1"/>
        <pt x="326" y="690" on="1"/>
        <pt x="310" y="690" on="1"/>
        <pt x="288" y="690" on="0"/>
        <pt x="258" y="663" on="0"/>
        <pt x="257" y="642" on="1"/>
        <pt x="257" y="260" on="1"/>
        <pt x="257" y="154" on="0"/>
        <pt x="361" y="30" on="0"/>
        <pt x="543" y="30" on="0"/>
        <pt x="649" y="147" on="0"/>
        <pt x="650" y="247" on="1"/>
        <pt x="650" y="642" on="1"/>
        <pt x="648" y="671" on="0"/>
        <pt x="623" y="684" on="1"/>
        <pt x="611" y="690" on="0"/>
        <pt x="597" y="690" on="1"/>
        <pt x="581" y="690" on="1"/>
        <pt x="581" y="700" on="1"/>
        <pt x="790" y="700" on="1"/>
      </contour>
    </TTGlyph>
    <TTGlyph name="Uring" xMin="37" yMin="-15" xMax="790" yMax="931">
      <contour>
        <pt x="342" y="883" on="0"/>
        <pt x="404" y="931" on="0"/>
        <pt x="498" y="931" on="0"/>
        <pt x="559" y="885" on="0"/>
        <pt x="559" y="812" on="0"/>
        <pt x="497" y="764" on="0"/>
        <pt x="404" y="764" on="0"/>
        <pt x="342" y="811" on="0"/>
      </contour>
      <contour>
        <pt x="501" y="873" on="0"/>
        <pt x="472" y="906" on="0"/>
        <pt x="429" y="906" on="0"/>
        <pt x="400" y="873" on="0"/>
        <pt x="400" y="821" on="0"/>
        <pt x="429" y="789" on="0"/>
        <pt x="465" y="789" on="0"/>
        <pt x="476" y="796" on="1"/>
        <pt x="501" y="812" on="0"/>
      </contour>
      <contour>
        <pt x="790" y="690" on="1"/>
        <pt x="773" y="690" on="1"/>
        <pt x="752" y="690" on="0"/>
        <pt x="722" y="663" on="0"/>
        <pt x="721" y="643" on="1"/>
        <pt x="721" y="253" on="1"/>
        <pt x="721" y="130" on="0"/>
        <pt x="567" y="-14" on="0"/>
        <pt x="433" y="-14" on="1"/>
        <pt x="275" y="-14" on="0"/>
        <pt x="107" y="127" on="0"/>
        <pt x="107" y="252" on="1"/>
        <pt x="107" y="640" on="1"/>
        <pt x="106" y="670" on="0"/>
        <pt x="80" y="684" on="1"/>
        <pt x="68" y="690" on="0"/>
        <pt x="54" y="690" on="1"/>
        <pt x="38" y="690" on="1"/>
        <pt x="38" y="700" on="1"/>
        <pt x="326" y="700" on="1"/>
        <pt x="326" y="690" on="1"/>
        <pt x="310" y="690" on="1"/>
        <pt x="288" y="690" on="0"/>
        <pt x="258" y="663" on="0"/>
        <pt x="257" y="642" on="1"/>
        <pt x="257" y="260" on="1"/>
        <pt x="257" y="154" on="0"/>
        <pt x="361" y="30" on="0"/>
        <pt x="543" y="30" on="0"/>
        <pt x="649" y="147" on="0"/>
        <pt x="650" y="247" on="1"/>
        <pt x="650" y="642" on="1"/>
        <pt x="648" y="671" on="0"/>
        <pt x="623" y="684" on="1"/>
        <pt x="611" y="690" on="0"/>
        <pt x="597" y="690" on="1"/>
        <pt x="581" y="690" on="1"/>
        <pt x="581" y="700" on="1"/>
        <pt x="790" y="700" on="1"/>
      </contour>
    </TTGlyph>
    <TTGlyph name="V" xMin="-28" yMin="-21" xMax="757" yMax="701">
      <contour>
        <pt x="542" y="700" on="1"/>
        <pt x="756" y="700" on="1"/>
        <pt x="756" y="690" on="1"/>
        <pt x="747" y="690" on="1"/>
        <pt x="724" y="690" on="0"/>
        <pt x="678" y="662" on="0"/>
        <pt x="663" y="634" on="1"/>
        <pt x="426" y="111" on="1"/>
        <pt x="380" y="12" on="0"/>
        <pt x="377" y="-20" on="1"/>
        <pt x="368" y="-20" on="1"/>
        <pt x="65" y="633" on="1"/>
        <pt x="50" y="661" on="0"/>
        <pt x="4" y="690" on="0"/>
        <pt x="-20" y="690" on="1"/>
        <pt x="-28" y="690" on="1"/>
        <pt x="-28" y="700" on="1"/>
        <pt x="290" y="700" on="1"/>
        <pt x="290" y="690" on="1"/>
        <pt x="282" y="690" on="1"/>
        <pt x="260" y="690" on="0"/>
        <pt x="239" y="663" on="0"/>
        <pt x="239" y="639" on="0"/>
        <pt x="243" y="627" on="1"/>
        <pt x="413" y="214" on="1"/>
        <pt x="589" y="627" on="1"/>
        <pt x="594" y="640" on="0"/>
        <pt x="594" y="663" on="0"/>
        <pt x="573" y="690" on="0"/>
        <pt x="551" y="690" on="1"/>
        <pt x="542" y="690" on="1"/>
      </contour>
    </TTGlyph>
    <TTGlyph name="W" xMin="-34" yMin="-19" xMax="1000" yMax="716">
      <contour>
        <pt x="1000" y="690" on="1"/>
        <pt x="991" y="690" on="1"/>
        <pt x="966" y="690" on="0"/>
        <pt x="915" y="660" on="0"/>
        <pt x="904" y="632" on="1"/>
        <pt x="736" y="93" on="1"/>
        <pt x="719" y="38" on="0"/>
        <pt x="719" y="-9" on="1"/>
        <pt x="719" y="-14" on="0"/>
        <pt x="719" y="-18" on="1"/>
        <pt x="709" y="-18" on="1"/>
        <pt x="491" y="465" on="1"/>
        <pt x="333" y="93" on="1"/>
        <pt x="310" y="35" on="0"/>
        <pt x="309" y="-18" on="1"/>
        <pt x="299" y="-18" on="1"/>
        <pt x="60" y="632" on="1"/>
        <pt x="47" y="661" on="0"/>
        <pt x="-1" y="690" on="0"/>
        <pt x="-26" y="690" on="1"/>
        <pt x="-34" y="690" on="1"/>
        <pt x="-34" y="700" on="1"/>
        <pt x="271" y="700" on="1"/>
        <pt x="271" y="690" on="1"/>
        <pt x="262" y="690" on="1"/>
        <pt x="241" y="690" on="0"/>
        <pt x="220" y="663" on="0"/>
        <pt x="220" y="639" on="0"/>
        <pt x="224" y="628" on="1"/>
        <pt x="347" y="280" on="1"/>
        <pt x="528" y="716" on="1"/>
        <pt x="537" y="715" on="1"/>
        <pt x="736" y="276" on="1"/>
        <pt x="836" y="628" on="1"/>
        <pt x="839" y="639" on="0"/>
        <pt x="839" y="663" on="0"/>
        <pt x="820" y="690" on="0"/>
        <pt x="798" y="690" on="1"/>
        <pt x="789" y="690" on="1"/>
        <pt x="789" y="700" on="1"/>
        <pt x="1000" y="700" on="1"/>
      </contour>
    </TTGlyph>
    <TTGlyph name="Wacute" xMin="-34" yMin="-19" xMax="1000" yMax="934">
      <contour>
        <pt x="519" y="762" on="1"/>
        <pt x="512" y="769" on="1"/>
        <pt x="555" y="843" on="0"/>
        <pt x="656" y="933" on="1"/>
        <pt x="704" y="908" on="0"/>
        <pt x="723" y="852" on="1"/>
        <pt x="621" y="787" on="0"/>
      </contour>
      <contour>
        <pt x="1000" y="690" on="1"/>
        <pt x="991" y="690" on="1"/>
        <pt x="966" y="690" on="0"/>
        <pt x="915" y="660" on="0"/>
        <pt x="904" y="632" on="1"/>
        <pt x="736" y="93" on="1"/>
        <pt x="719" y="38" on="0"/>
        <pt x="719" y="-9" on="1"/>
        <pt x="719" y="-14" on="0"/>
        <pt x="719" y="-18" on="1"/>
        <pt x="709" y="-18" on="1"/>
        <pt x="491" y="465" on="1"/>
        <pt x="333" y="93" on="1"/>
        <pt x="310" y="35" on="0"/>
        <pt x="309" y="-18" on="1"/>
        <pt x="299" y="-18" on="1"/>
        <pt x="60" y="632" on="1"/>
        <pt x="47" y="661" on="0"/>
        <pt x="-1" y="690" on="0"/>
        <pt x="-26" y="690" on="1"/>
        <pt x="-34" y="690" on="1"/>
        <pt x="-34" y="700" on="1"/>
        <pt x="271" y="700" on="1"/>
        <pt x="271" y="690" on="1"/>
        <pt x="262" y="690" on="1"/>
        <pt x="241" y="690" on="0"/>
        <pt x="220" y="663" on="0"/>
        <pt x="220" y="639" on="0"/>
        <pt x="224" y="628" on="1"/>
        <pt x="347" y="281" on="1"/>
        <pt x="528" y="716" on="1"/>
        <pt x="537" y="715" on="1"/>
        <pt x="736" y="276" on="1"/>
        <pt x="836" y="628" on="1"/>
        <pt x="839" y="639" on="0"/>
        <pt x="839" y="663" on="0"/>
        <pt x="820" y="690" on="0"/>
        <pt x="798" y="690" on="1"/>
        <pt x="789" y="690" on="1"/>
        <pt x="789" y="700" on="1"/>
        <pt x="1000" y="700" on="1"/>
      </contour>
    </TTGlyph>
    <TTGlyph name="Wcircumflex" xMin="-34" yMin="-19" xMax="1000" yMax="916">
      <contour>
        <pt x="523" y="915" on="1"/>
        <pt x="534" y="915" on="1"/>
        <pt x="687" y="762" on="1"/>
        <pt x="680" y="754" on="1"/>
        <pt x="528" y="819" on="1"/>
        <pt x="385" y="754" on="1"/>
        <pt x="378" y="762" on="1"/>
      </contour>
      <contour>
        <pt x="1000" y="690" on="1"/>
        <pt x="991" y="690" on="1"/>
        <pt x="966" y="690" on="0"/>
        <pt x="915" y="660" on="0"/>
        <pt x="904" y="632" on="1"/>
        <pt x="736" y="93" on="1"/>
        <pt x="719" y="38" on="0"/>
        <pt x="719" y="-9" on="1"/>
        <pt x="719" y="-14" on="0"/>
        <pt x="719" y="-18" on="1"/>
        <pt x="709" y="-18" on="1"/>
        <pt x="491" y="465" on="1"/>
        <pt x="333" y="93" on="1"/>
        <pt x="310" y="35" on="0"/>
        <pt x="309" y="-18" on="1"/>
        <pt x="299" y="-18" on="1"/>
        <pt x="60" y="632" on="1"/>
        <pt x="47" y="661" on="0"/>
        <pt x="-1" y="690" on="0"/>
        <pt x="-26" y="690" on="1"/>
        <pt x="-34" y="690" on="1"/>
        <pt x="-34" y="700" on="1"/>
        <pt x="271" y="700" on="1"/>
        <pt x="271" y="690" on="1"/>
        <pt x="262" y="690" on="1"/>
        <pt x="241" y="690" on="0"/>
        <pt x="220" y="663" on="0"/>
        <pt x="220" y="639" on="0"/>
        <pt x="224" y="627" on="1"/>
        <pt x="347" y="280" on="1"/>
        <pt x="528" y="716" on="1"/>
        <pt x="537" y="715" on="1"/>
        <pt x="736" y="276" on="1"/>
        <pt x="836" y="628" on="1"/>
        <pt x="848" y="672" on="0"/>
        <pt x="817" y="686" on="1"/>
        <pt x="809" y="690" on="0"/>
        <pt x="798" y="690" on="1"/>
        <pt x="789" y="690" on="1"/>
        <pt x="789" y="700" on="1"/>
        <pt x="1000" y="700" on="1"/>
      </contour>
    </TTGlyph>
    <TTGlyph name="Wdieresis" xMin="-34" yMin="-19" xMax="1000" yMax="880">
      <contour>
        <pt x="435" y="759" on="0"/>
        <pt x="385" y="759" on="0"/>
        <pt x="350" y="794" on="0"/>
        <pt x="350" y="844" on="0"/>
        <pt x="385" y="879" on="0"/>
        <pt x="435" y="879" on="0"/>
        <pt x="470" y="844" on="0"/>
        <pt x="470" y="794" on="0"/>
      </contour>
      <contour>
        <pt x="668" y="759" on="0"/>
        <pt x="619" y="759" on="0"/>
        <pt x="583" y="794" on="0"/>
        <pt x="583" y="844" on="0"/>
        <pt x="619" y="879" on="0"/>
        <pt x="668" y="879" on="0"/>
        <pt x="704" y="844" on="0"/>
        <pt x="704" y="794" on="0"/>
      </contour>
      <contour>
        <pt x="1000" y="690" on="1"/>
        <pt x="991" y="690" on="1"/>
        <pt x="966" y="690" on="0"/>
        <pt x="915" y="660" on="0"/>
        <pt x="904" y="632" on="1"/>
        <pt x="736" y="93" on="1"/>
        <pt x="719" y="38" on="0"/>
        <pt x="719" y="-9" on="1"/>
        <pt x="719" y="-14" on="0"/>
        <pt x="719" y="-18" on="1"/>
        <pt x="709" y="-18" on="1"/>
        <pt x="491" y="465" on="1"/>
        <pt x="333" y="93" on="1"/>
        <pt x="310" y="35" on="0"/>
        <pt x="309" y="-18" on="1"/>
        <pt x="299" y="-18" on="1"/>
        <pt x="60" y="632" on="1"/>
        <pt x="47" y="661" on="0"/>
        <pt x="-1" y="690" on="0"/>
        <pt x="-26" y="690" on="1"/>
        <pt x="-34" y="690" on="1"/>
        <pt x="-34" y="700" on="1"/>
        <pt x="271" y="700" on="1"/>
        <pt x="271" y="690" on="1"/>
        <pt x="262" y="690" on="1"/>
        <pt x="241" y="690" on="0"/>
        <pt x="220" y="663" on="0"/>
        <pt x="220" y="639" on="0"/>
        <pt x="224" y="628" on="1"/>
        <pt x="347" y="280" on="1"/>
        <pt x="528" y="716" on="1"/>
        <pt x="537" y="715" on="1"/>
        <pt x="736" y="276" on="1"/>
        <pt x="836" y="628" on="1"/>
        <pt x="848" y="672" on="0"/>
        <pt x="817" y="686" on="1"/>
        <pt x="809" y="690" on="0"/>
        <pt x="798" y="690" on="1"/>
        <pt x="789" y="690" on="1"/>
        <pt x="789" y="700" on="1"/>
        <pt x="1000" y="700" on="1"/>
      </contour>
    </TTGlyph>
    <TTGlyph name="Wgrave" xMin="-34" yMin="-19" xMax="1000" yMax="936">
      <contour>
        <pt x="548" y="771" on="1"/>
        <pt x="541" y="764" on="1"/>
        <pt x="441" y="788" on="0"/>
        <pt x="336" y="854" on="1"/>
        <pt x="356" y="911" on="0"/>
        <pt x="404" y="935" on="1"/>
        <pt x="506" y="844" on="0"/>
      </contour>
      <contour>
        <pt x="1000" y="690" on="1"/>
        <pt x="991" y="690" on="1"/>
        <pt x="966" y="690" on="0"/>
        <pt x="915" y="660" on="0"/>
        <pt x="904" y="632" on="1"/>
        <pt x="736" y="93" on="1"/>
        <pt x="719" y="38" on="0"/>
        <pt x="719" y="-9" on="1"/>
        <pt x="719" y="-14" on="0"/>
        <pt x="719" y="-18" on="1"/>
        <pt x="709" y="-18" on="1"/>
        <pt x="491" y="465" on="1"/>
        <pt x="333" y="93" on="1"/>
        <pt x="310" y="35" on="0"/>
        <pt x="309" y="-18" on="1"/>
        <pt x="299" y="-18" on="1"/>
        <pt x="60" y="632" on="1"/>
        <pt x="47" y="661" on="0"/>
        <pt x="-1" y="690" on="0"/>
        <pt x="-26" y="690" on="1"/>
        <pt x="-34" y="690" on="1"/>
        <pt x="-34" y="700" on="1"/>
        <pt x="271" y="700" on="1"/>
        <pt x="271" y="690" on="1"/>
        <pt x="262" y="690" on="1"/>
        <pt x="241" y="690" on="0"/>
        <pt x="220" y="663" on="0"/>
        <pt x="220" y="639" on="0"/>
        <pt x="224" y="627" on="1"/>
        <pt x="347" y="280" on="1"/>
        <pt x="528" y="716" on="1"/>
        <pt x="537" y="715" on="1"/>
        <pt x="736" y="276" on="1"/>
        <pt x="836" y="628" on="1"/>
        <pt x="839" y="639" on="0"/>
        <pt x="839" y="663" on="0"/>
        <pt x="820" y="690" on="0"/>
        <pt x="798" y="690" on="1"/>
        <pt x="789" y="690" on="1"/>
        <pt x="789" y="700" on="1"/>
        <pt x="1000" y="700" on="1"/>
      </contour>
    </TTGlyph>
    <TTGlyph name="X" xMin="-25" yMin="-1" xMax="757" yMax="701">
      <contour>
        <pt x="428" y="10" on="1"/>
        <pt x="449" y="10" on="0"/>
        <pt x="462" y="30" on="1"/>
        <pt x="468" y="41" on="0"/>
        <pt x="468" y="61" on="0"/>
        <pt x="462" y="71" on="1"/>
        <pt x="322" y="289" on="1"/>
        <pt x="175" y="72" on="1"/>
        <pt x="169" y="62" on="0"/>
        <pt x="169" y="41" on="0"/>
        <pt x="175" y="31" on="1"/>
        <pt x="189" y="10" on="0"/>
        <pt x="210" y="10" on="1"/>
        <pt x="223" y="10" on="1"/>
        <pt x="223" y="0" on="1"/>
        <pt x="-24" y="0" on="1"/>
        <pt x="-24" y="10" on="1"/>
        <pt x="-10" y="10" on="1"/>
        <pt x="46" y="10" on="0"/>
        <pt x="89" y="66" on="1"/>
        <pt x="286" y="345" on="1"/>
        <pt x="101" y="631" on="1"/>
        <pt x="84" y="656" on="0"/>
        <pt x="30" y="690" on="0"/>
        <pt x="0" y="690" on="1"/>
        <pt x="-14" y="690" on="1"/>
        <pt x="-14" y="700" on="1"/>
        <pt x="326" y="700" on="1"/>
        <pt x="326" y="690" on="1"/>
        <pt x="313" y="690" on="1"/>
        <pt x="292" y="690" on="0"/>
        <pt x="279" y="670" on="1"/>
        <pt x="273" y="659" on="0"/>
        <pt x="273" y="638" on="0"/>
        <pt x="278" y="629" on="1"/>
        <pt x="403" y="436" on="1"/>
        <pt x="526" y="628" on="1"/>
        <pt x="532" y="638" on="0"/>
        <pt x="532" y="659" on="0"/>
        <pt x="525" y="669" on="1"/>
        <pt x="512" y="690" on="0"/>
        <pt x="491" y="690" on="1"/>
        <pt x="478" y="690" on="1"/>
        <pt x="478" y="700" on="1"/>
        <pt x="724" y="700" on="1"/>
        <pt x="724" y="690" on="1"/>
        <pt x="710" y="690" on="1"/>
        <pt x="680" y="690" on="0"/>
        <pt x="628" y="657" on="0"/>
        <pt x="610" y="632" on="1"/>
        <pt x="440" y="379" on="1"/>
        <pt x="641" y="68" on="1"/>
        <pt x="658" y="43" on="0"/>
        <pt x="713" y="10" on="0"/>
        <pt x="742" y="10" on="1"/>
        <pt x="756" y="10" on="1"/>
        <pt x="756" y="0" on="1"/>
        <pt x="415" y="0" on="1"/>
        <pt x="415" y="10" on="1"/>
      </contour>
    </TTGlyph>
    <TTGlyph name="Y" xMin="-31" yMin="0" xMax="735" yMax="701">
      <contour>
        <pt x="734" y="690" on="1"/>
        <pt x="720" y="690" on="1"/>
        <pt x="690" y="690" on="0"/>
        <pt x="636" y="656" on="0"/>
        <pt x="620" y="632" on="1"/>
        <pt x="423" y="318" on="1"/>
        <pt x="423" y="73" on="1"/>
        <pt x="423" y="47" on="0"/>
        <pt x="461" y="10" on="0"/>
        <pt x="487" y="10" on="1"/>
        <pt x="499" y="10" on="1"/>
        <pt x="500" y="0" on="1"/>
        <pt x="196" y="0" on="1"/>
        <pt x="196" y="10" on="1"/>
        <pt x="209" y="10" on="1"/>
        <pt x="235" y="10" on="0"/>
        <pt x="272" y="46" on="0"/>
        <pt x="273" y="72" on="1"/>
        <pt x="273" y="319" on="1"/>
        <pt x="82" y="633" on="1"/>
        <pt x="67" y="657" on="0"/>
        <pt x="12" y="690" on="0"/>
        <pt x="-17" y="690" on="1"/>
        <pt x="-31" y="690" on="1"/>
        <pt x="-31" y="700" on="1"/>
        <pt x="300" y="700" on="1"/>
        <pt x="300" y="690" on="1"/>
        <pt x="287" y="690" on="1"/>
        <pt x="265" y="690" on="0"/>
        <pt x="253" y="670" on="1"/>
        <pt x="247" y="659" on="0"/>
        <pt x="247" y="638" on="0"/>
        <pt x="252" y="628" on="1"/>
        <pt x="395" y="368" on="1"/>
        <pt x="544" y="628" on="1"/>
        <pt x="549" y="638" on="0"/>
        <pt x="549" y="659" on="0"/>
        <pt x="542" y="669" on="1"/>
        <pt x="530" y="690" on="0"/>
        <pt x="508" y="690" on="1"/>
        <pt x="496" y="690" on="1"/>
        <pt x="496" y="700" on="1"/>
        <pt x="734" y="700" on="1"/>
      </contour>
    </TTGlyph>
    <TTGlyph name="Yacute" xMin="-31" yMin="0" xMax="735" yMax="934">
      <contour>
        <pt x="387" y="762" on="1"/>
        <pt x="380" y="769" on="1"/>
        <pt x="423" y="843" on="0"/>
        <pt x="524" y="933" on="1"/>
        <pt x="573" y="908" on="0"/>
        <pt x="592" y="852" on="1"/>
        <pt x="489" y="787" on="0"/>
      </contour>
      <contour>
        <pt x="734" y="690" on="1"/>
        <pt x="720" y="690" on="1"/>
        <pt x="690" y="690" on="0"/>
        <pt x="636" y="656" on="0"/>
        <pt x="620" y="632" on="1"/>
        <pt x="423" y="318" on="1"/>
        <pt x="423" y="73" on="1"/>
        <pt x="423" y="47" on="0"/>
        <pt x="461" y="10" on="0"/>
        <pt x="487" y="10" on="1"/>
        <pt x="499" y="10" on="1"/>
        <pt x="500" y="0" on="1"/>
        <pt x="196" y="0" on="1"/>
        <pt x="196" y="10" on="1"/>
        <pt x="209" y="10" on="1"/>
        <pt x="235" y="10" on="0"/>
        <pt x="272" y="46" on="0"/>
        <pt x="273" y="72" on="1"/>
        <pt x="273" y="319" on="1"/>
        <pt x="82" y="633" on="1"/>
        <pt x="67" y="657" on="0"/>
        <pt x="12" y="690" on="0"/>
        <pt x="-17" y="690" on="1"/>
        <pt x="-31" y="690" on="1"/>
        <pt x="-31" y="700" on="1"/>
        <pt x="300" y="700" on="1"/>
        <pt x="300" y="690" on="1"/>
        <pt x="287" y="690" on="1"/>
        <pt x="265" y="690" on="0"/>
        <pt x="253" y="670" on="1"/>
        <pt x="247" y="659" on="0"/>
        <pt x="247" y="638" on="0"/>
        <pt x="252" y="628" on="1"/>
        <pt x="395" y="368" on="1"/>
        <pt x="544" y="628" on="1"/>
        <pt x="549" y="638" on="0"/>
        <pt x="549" y="659" on="0"/>
        <pt x="542" y="669" on="1"/>
        <pt x="530" y="690" on="0"/>
        <pt x="508" y="690" on="1"/>
        <pt x="496" y="690" on="1"/>
        <pt x="496" y="700" on="1"/>
        <pt x="734" y="700" on="1"/>
      </contour>
    </TTGlyph>
    <TTGlyph name="Ycircumflex" xMin="-31" yMin="-1" xMax="735" yMax="916">
      <contour>
        <pt x="391" y="915" on="1"/>
        <pt x="402" y="915" on="1"/>
        <pt x="556" y="762" on="1"/>
        <pt x="549" y="754" on="1"/>
        <pt x="396" y="819" on="1"/>
        <pt x="254" y="754" on="1"/>
        <pt x="247" y="762" on="1"/>
      </contour>
      <contour>
        <pt x="734" y="690" on="1"/>
        <pt x="720" y="690" on="1"/>
        <pt x="680" y="690" on="0"/>
        <pt x="645" y="660" on="1"/>
        <pt x="630" y="648" on="0"/>
        <pt x="620" y="632" on="1"/>
        <pt x="423" y="318" on="1"/>
        <pt x="423" y="73" on="1"/>
        <pt x="423" y="47" on="0"/>
        <pt x="461" y="10" on="0"/>
        <pt x="487" y="10" on="1"/>
        <pt x="499" y="10" on="1"/>
        <pt x="500" y="0" on="1"/>
        <pt x="196" y="0" on="1"/>
        <pt x="196" y="10" on="1"/>
        <pt x="209" y="10" on="1"/>
        <pt x="235" y="10" on="0"/>
        <pt x="272" y="46" on="0"/>
        <pt x="273" y="72" on="1"/>
        <pt x="273" y="319" on="1"/>
        <pt x="82" y="633" on="1"/>
        <pt x="67" y="657" on="0"/>
        <pt x="12" y="690" on="0"/>
        <pt x="-17" y="690" on="1"/>
        <pt x="-31" y="690" on="1"/>
        <pt x="-31" y="700" on="1"/>
        <pt x="300" y="700" on="1"/>
        <pt x="300" y="690" on="1"/>
        <pt x="287" y="690" on="1"/>
        <pt x="265" y="690" on="0"/>
        <pt x="253" y="670" on="1"/>
        <pt x="247" y="659" on="0"/>
        <pt x="247" y="638" on="0"/>
        <pt x="252" y="628" on="1"/>
        <pt x="395" y="368" on="1"/>
        <pt x="544" y="628" on="1"/>
        <pt x="549" y="638" on="0"/>
        <pt x="549" y="659" on="0"/>
        <pt x="542" y="669" on="1"/>
        <pt x="530" y="690" on="0"/>
        <pt x="508" y="690" on="1"/>
        <pt x="496" y="690" on="1"/>
        <pt x="496" y="700" on="1"/>
        <pt x="734" y="700" on="1"/>
      </contour>
    </TTGlyph>
    <TTGlyph name="Ydieresis" xMin="-31" yMin="0" xMax="735" yMax="880">
      <contour>
        <pt x="304" y="759" on="0"/>
        <pt x="254" y="759" on="0"/>
        <pt x="219" y="794" on="0"/>
        <pt x="219" y="844" on="0"/>
        <pt x="254" y="879" on="0"/>
        <pt x="304" y="879" on="0"/>
        <pt x="339" y="844" on="0"/>
        <pt x="339" y="794" on="0"/>
      </contour>
      <contour>
        <pt x="537" y="759" on="0"/>
        <pt x="487" y="759" on="0"/>
        <pt x="452" y="794" on="0"/>
        <pt x="452" y="844" on="0"/>
        <pt x="487" y="879" on="0"/>
        <pt x="537" y="879" on="0"/>
        <pt x="572" y="844" on="0"/>
        <pt x="572" y="794" on="0"/>
      </contour>
      <contour>
        <pt x="734" y="690" on="1"/>
        <pt x="720" y="690" on="1"/>
        <pt x="690" y="690" on="0"/>
        <pt x="636" y="656" on="0"/>
        <pt x="620" y="632" on="1"/>
        <pt x="423" y="318" on="1"/>
        <pt x="423" y="73" on="1"/>
        <pt x="423" y="47" on="0"/>
        <pt x="461" y="10" on="0"/>
        <pt x="487" y="10" on="1"/>
        <pt x="499" y="10" on="1"/>
        <pt x="500" y="0" on="1"/>
        <pt x="196" y="0" on="1"/>
        <pt x="196" y="10" on="1"/>
        <pt x="209" y="10" on="1"/>
        <pt x="235" y="10" on="0"/>
        <pt x="272" y="46" on="0"/>
        <pt x="273" y="72" on="1"/>
        <pt x="273" y="319" on="1"/>
        <pt x="82" y="633" on="1"/>
        <pt x="67" y="657" on="0"/>
        <pt x="12" y="690" on="0"/>
        <pt x="-17" y="690" on="1"/>
        <pt x="-31" y="690" on="1"/>
        <pt x="-31" y="700" on="1"/>
        <pt x="300" y="700" on="1"/>
        <pt x="300" y="690" on="1"/>
        <pt x="287" y="690" on="1"/>
        <pt x="265" y="690" on="0"/>
        <pt x="253" y="670" on="1"/>
        <pt x="247" y="659" on="0"/>
        <pt x="247" y="638" on="0"/>
        <pt x="252" y="628" on="1"/>
        <pt x="395" y="368" on="1"/>
        <pt x="544" y="628" on="1"/>
        <pt x="549" y="638" on="0"/>
        <pt x="549" y="659" on="0"/>
        <pt x="542" y="669" on="1"/>
        <pt x="530" y="690" on="0"/>
        <pt x="508" y="690" on="1"/>
        <pt x="496" y="690" on="1"/>
        <pt x="496" y="700" on="1"/>
        <pt x="734" y="700" on="1"/>
      </contour>
    </TTGlyph>
    <TTGlyph name="Ygrave" xMin="-31" yMin="-1" xMax="735" yMax="936">
      <contour>
        <pt x="417" y="771" on="1"/>
        <pt x="410" y="764" on="1"/>
        <pt x="309" y="788" on="0"/>
        <pt x="205" y="854" on="1"/>
        <pt x="224" y="911" on="0"/>
        <pt x="273" y="935" on="1"/>
        <pt x="374" y="844" on="0"/>
      </contour>
      <contour>
        <pt x="734" y="690" on="1"/>
        <pt x="720" y="690" on="1"/>
        <pt x="680" y="690" on="0"/>
        <pt x="645" y="660" on="1"/>
        <pt x="630" y="648" on="0"/>
        <pt x="620" y="632" on="1"/>
        <pt x="423" y="318" on="1"/>
        <pt x="423" y="73" on="1"/>
        <pt x="423" y="47" on="0"/>
        <pt x="461" y="10" on="0"/>
        <pt x="487" y="10" on="1"/>
        <pt x="499" y="10" on="1"/>
        <pt x="500" y="0" on="1"/>
        <pt x="196" y="0" on="1"/>
        <pt x="196" y="10" on="1"/>
        <pt x="209" y="10" on="1"/>
        <pt x="235" y="10" on="0"/>
        <pt x="272" y="46" on="0"/>
        <pt x="273" y="72" on="1"/>
        <pt x="273" y="319" on="1"/>
        <pt x="82" y="633" on="1"/>
        <pt x="67" y="657" on="0"/>
        <pt x="12" y="690" on="0"/>
        <pt x="-17" y="690" on="1"/>
        <pt x="-31" y="690" on="1"/>
        <pt x="-31" y="700" on="1"/>
        <pt x="300" y="700" on="1"/>
        <pt x="300" y="690" on="1"/>
        <pt x="287" y="690" on="1"/>
        <pt x="265" y="690" on="0"/>
        <pt x="253" y="670" on="1"/>
        <pt x="247" y="659" on="0"/>
        <pt x="247" y="638" on="0"/>
        <pt x="252" y="628" on="1"/>
        <pt x="395" y="368" on="1"/>
        <pt x="543" y="628" on="1"/>
        <pt x="549" y="638" on="0"/>
        <pt x="549" y="659" on="0"/>
        <pt x="542" y="669" on="1"/>
        <pt x="530" y="690" on="0"/>
        <pt x="508" y="690" on="1"/>
        <pt x="496" y="690" on="1"/>
        <pt x="496" y="700" on="1"/>
        <pt x="734" y="700" on="1"/>
      </contour>
    </TTGlyph>
</ttFont>
